Mitr-500.ufo
<glyph name="exclam" format="1">
  <advance width="241"/>
  <unicode hex="0021"/>
  <note>
	exclam
  </note>
  <outline>
    <contour>
      <point x="149" y="184" type="line" smooth="yes"/>
      <point x="183" y="184"/>
      <point x="197" y="198"/>
      <point x="197" y="227" type="curve" smooth="yes"/>
      <point x="204" y="636" type="line" smooth="yes"/>
      <point x="204" y="665"/>
      <point x="193" y="680"/>
      <point x="159" y="680" type="curve" smooth="yes"/>
      <point x="83" y="680" type="line" smooth="yes"/>
      <point x="49" y="680"/>
      <point x="38" y="665"/>
      <point x="38" y="636" type="curve" smooth="yes"/>
      <point x="44" y="227" type="line" smooth="yes"/>
      <point x="44" y="198"/>
      <point x="58" y="184"/>
      <point x="92" y="184" type="curve" smooth="yes"/>
    </contour>
    <contour>
      <point x="136" y="0" type="line" smooth="yes"/>
      <point x="185" y="0"/>
      <point x="210" y="13"/>
      <point x="210" y="46" type="curve" smooth="yes"/>
      <point x="210" y="68" type="line" smooth="yes"/>
      <point x="210" y="101"/>
      <point x="185" y="114"/>
      <point x="136" y="114" type="curve" smooth="yes"/>
      <point x="104" y="114" type="line" smooth="yes"/>
      <point x="55" y="114"/>
      <point x="31" y="102"/>
      <point x="31" y="68" type="curve" smooth="yes"/>
      <point x="31" y="46" type="line" smooth="yes"/>
      <point x="31" y="13"/>
      <point x="55" y="0"/>
      <point x="104" y="0" type="curve" smooth="yes"/>
    </contour>
  </outline>
</glyph>
<glyph name="numbersign" format="1">
  <advance width="807"/>
  <unicode hex="0023"/>
  <note>
	numbersign
  </note>
  <outline>
    <contour>
      <point x="177" y="0" type="line" smooth="yes"/>
      <point x="203" y="0"/>
      <point x="209" y="6"/>
      <point x="215" y="20" type="curve" smooth="yes"/>
      <point x="266" y="150" type="line"/>
      <point x="403" y="150" type="line"/>
      <point x="356" y="30" type="line" smooth="yes"/>
      <point x="349" y="13"/>
      <point x="352" y="0"/>
      <point x="369" y="0" type="curve" smooth="yes"/>
      <point x="472" y="0" type="line" smooth="yes"/>
      <point x="498" y="0"/>
      <point x="504" y="6"/>
      <point x="510" y="20" type="curve" smooth="yes"/>
      <point x="562" y="150" type="line"/>
      <point x="701" y="150" type="line" smooth="yes"/>
      <point x="734" y="150"/>
      <point x="739" y="159"/>
      <point x="739" y="192" type="curve" smooth="yes"/>
      <point x="739" y="225" type="line" smooth="yes"/>
      <point x="739" y="260"/>
      <point x="733" y="268"/>
      <point x="700" y="268" type="curve" smooth="yes"/>
      <point x="607" y="268" type="line"/>
      <point x="657" y="393" type="line"/>
      <point x="738" y="393" type="line" smooth="yes"/>
      <point x="771" y="393"/>
      <point x="776" y="402"/>
      <point x="776" y="435" type="curve" smooth="yes"/>
      <point x="776" y="468" type="line" smooth="yes"/>
      <point x="776" y="503"/>
      <point x="770" y="511"/>
      <point x="737" y="511" type="curve" smooth="yes"/>
      <point x="701" y="511" type="line"/>
      <point x="756" y="650" type="line" smooth="yes"/>
      <point x="763" y="667"/>
      <point x="760" y="680"/>
      <point x="743" y="680" type="curve" smooth="yes"/>
      <point x="640" y="680" type="line" smooth="yes"/>
      <point x="614" y="680"/>
      <point x="608" y="674"/>
      <point x="602" y="660" type="curve" smooth="yes"/>
      <point x="543" y="511" type="line"/>
      <point x="406" y="511" type="line"/>
      <point x="461" y="650" type="line" smooth="yes"/>
      <point x="468" y="667"/>
      <point x="465" y="680"/>
      <point x="448" y="680" type="curve" smooth="yes"/>
      <point x="345" y="680" type="line" smooth="yes"/>
      <point x="319" y="680"/>
      <point x="313" y="674"/>
      <point x="307" y="660" type="curve" smooth="yes"/>
      <point x="248" y="511" type="line"/>
      <point x="128" y="511" type="line" smooth="yes"/>
      <point x="95" y="511"/>
      <point x="89" y="503"/>
      <point x="89" y="468" type="curve" smooth="yes"/>
      <point x="89" y="435" type="line" smooth="yes"/>
      <point x="89" y="402"/>
      <point x="94" y="393"/>
      <point x="127" y="393" type="curve" smooth="yes"/>
      <point x="203" y="393" type="line"/>
      <point x="153" y="268" type="line"/>
      <point x="70" y="268" type="line" smooth="yes"/>
      <point x="37" y="268"/>
      <point x="31" y="260"/>
      <point x="31" y="225" type="curve" smooth="yes"/>
      <point x="31" y="192" type="line" smooth="yes"/>
      <point x="31" y="159"/>
      <point x="36" y="150"/>
      <point x="69" y="150" type="curve" smooth="yes"/>
      <point x="108" y="150" type="line"/>
      <point x="61" y="30" type="line" smooth="yes"/>
      <point x="54" y="13"/>
      <point x="57" y="0"/>
      <point x="74" y="0" type="curve" smooth="yes"/>
    </contour>
    <contour>
      <point x="361" y="392" type="line"/>
      <point x="498" y="392" type="line"/>
      <point x="448" y="268" type="line"/>
      <point x="311" y="268" type="line"/>
    </contour>
  </outline>
</glyph>
<glyph name="dollar" format="1">
  <advance width="598"/>
  <unicode hex="0024"/>
  <note>
	dollar
  </note>
  <outline>
    <contour>
      <point x="334" y="-93" type="line" smooth="yes"/>
      <point x="368" y="-93"/>
      <point x="380" y="-79"/>
      <point x="380" y="-50" type="curve" smooth="yes"/>
      <point x="380" y="-10" type="line"/>
      <point x="506" y="8"/>
      <point x="567" y="78"/>
      <point x="567" y="175" type="curve" smooth="yes"/>
      <point x="567" y="297"/>
      <point x="495" y="338"/>
      <point x="365" y="388" type="curve" smooth="yes"/>
      <point x="273" y="422"/>
      <point x="221" y="437"/>
      <point x="221" y="498" type="curve" smooth="yes"/>
      <point x="221" y="555"/>
      <point x="260" y="576"/>
      <point x="329" y="576" type="curve" smooth="yes"/>
      <point x="396" y="576"/>
      <point x="444" y="560"/>
      <point x="478" y="537" type="curve" smooth="yes"/>
      <point x="491" y="528"/>
      <point x="497" y="528"/>
      <point x="506" y="541" type="curve"/>
      <point x="546" y="605" type="line" smooth="yes"/>
      <point x="555" y="619"/>
      <point x="552" y="627"/>
      <point x="536" y="639" type="curve"/>
      <point x="497" y="665"/>
      <point x="448" y="683"/>
      <point x="380" y="690" type="curve"/>
      <point x="380" y="731" type="line" smooth="yes"/>
      <point x="380" y="760"/>
      <point x="368" y="775"/>
      <point x="334" y="775" type="curve" smooth="yes"/>
      <point x="272" y="775" type="line" smooth="yes"/>
      <point x="238" y="775"/>
      <point x="227" y="760"/>
      <point x="227" y="731" type="curve" smooth="yes"/>
      <point x="227" y="685" type="line"/>
      <point x="125" y="668"/>
      <point x="57" y="607"/>
      <point x="57" y="499" type="curve" smooth="yes"/>
      <point x="57" y="377"/>
      <point x="162" y="327"/>
      <point x="267" y="288" type="curve" smooth="yes"/>
      <point x="356" y="257"/>
      <point x="402" y="239"/>
      <point x="402" y="181" type="curve" smooth="yes"/>
      <point x="402" y="126"/>
      <point x="372" y="104"/>
      <point x="290" y="104" type="curve" smooth="yes"/>
      <point x="225" y="104"/>
      <point x="157" y="121"/>
      <point x="106" y="151" type="curve" smooth="yes"/>
      <point x="92" y="159"/>
      <point x="86" y="159"/>
      <point x="78" y="146" type="curve" smooth="yes"/>
      <point x="37" y="81" type="line" smooth="yes"/>
      <point x="28" y="67"/>
      <point x="30" y="59"/>
      <point x="47" y="47" type="curve" smooth="yes"/>
      <point x="90" y="17"/>
      <point x="162" y="-1"/>
      <point x="227" y="-8" type="curve"/>
      <point x="227" y="-50" type="line" smooth="yes"/>
      <point x="227" y="-79"/>
      <point x="238" y="-93"/>
      <point x="272" y="-93" type="curve" smooth="yes"/>
    </contour>
  </outline>
</glyph>
<glyph name="ampersand" format="1">
  <advance width="723"/>
  <unicode hex="0026"/>
  <note>
	ampersand
  </note>
  <outline>
    <contour>
      <point x="523" y="-15"/>
      <point x="630" y="99"/>
      <point x="630" y="245" type="curve" smooth="yes"/>
      <point x="630" y="297" type="line"/>
      <point x="660" y="297" type="line" smooth="yes"/>
      <point x="693" y="297"/>
      <point x="702" y="310"/>
      <point x="702" y="340" type="curve" smooth="yes"/>
      <point x="702" y="376" type="line" smooth="yes"/>
      <point x="702" y="405"/>
      <point x="693" y="419"/>
      <point x="660" y="419" type="curve" smooth="yes"/>
      <point x="326" y="419" type="line" smooth="yes"/>
      <point x="262" y="419"/>
      <point x="221" y="432"/>
      <point x="221" y="493" type="curve" smooth="yes"/>
      <point x="221" y="551"/>
      <point x="256" y="574"/>
      <point x="345" y="574" type="curve" smooth="yes"/>
      <point x="405" y="574"/>
      <point x="450" y="558"/>
      <point x="479" y="537" type="curve"/>
      <point x="494" y="527"/>
      <point x="501" y="527"/>
      <point x="510" y="542" type="curve" smooth="yes"/>
      <point x="546" y="601" type="line" smooth="yes"/>
      <point x="553" y="612"/>
      <point x="552" y="625"/>
      <point x="542" y="633" type="curve" smooth="yes"/>
      <point x="492" y="674"/>
      <point x="423" y="695"/>
      <point x="328" y="695" type="curve" smooth="yes"/>
      <point x="166" y="695"/>
      <point x="57" y="624"/>
      <point x="57" y="497" type="curve" smooth="yes"/>
      <point x="57" y="446"/>
      <point x="81" y="392"/>
      <point x="126" y="364" type="curve"/>
      <point x="61" y="330"/>
      <point x="32" y="265"/>
      <point x="32" y="198" type="curve" smooth="yes"/>
      <point x="32" y="33"/>
      <point x="193" y="-15"/>
      <point x="328" y="-15" type="curve" smooth="yes"/>
    </contour>
    <contour>
      <point x="242" y="104"/>
      <point x="195" y="137"/>
      <point x="195" y="205" type="curve" smooth="yes"/>
      <point x="195" y="270"/>
      <point x="234" y="297"/>
      <point x="296" y="297" type="curve" smooth="yes"/>
      <point x="476" y="297" type="line"/>
      <point x="476" y="254" type="line" smooth="yes"/>
      <point x="476" y="159"/>
      <point x="434" y="104"/>
      <point x="332" y="104" type="curve" smooth="yes"/>
    </contour>
  </outline>
</glyph>
<glyph name="quotesingle" format="1">
  <advance width="200"/>
  <unicode hex="0027"/>
  <note>
	quotesingle
  </note>
  <outline>
    <contour>
      <point x="125" y="487" type="line" smooth="yes"/>
      <point x="148" y="487"/>
      <point x="158" y="495"/>
      <point x="160" y="520" type="curve" smooth="yes"/>
      <point x="169" y="669" type="line" smooth="yes"/>
      <point x="171" y="694"/>
      <point x="161" y="701"/>
      <point x="134" y="701" type="curve" smooth="yes"/>
      <point x="66" y="701" type="line" smooth="yes"/>
      <point x="39" y="701"/>
      <point x="30" y="694"/>
      <point x="31" y="669" type="curve" smooth="yes"/>
      <point x="39" y="520" type="line" smooth="yes"/>
      <point x="40" y="496"/>
      <point x="51" y="487"/>
      <point x="72" y="487" type="curve" smooth="yes"/>
    </contour>
  </outline>
</glyph>
<glyph name="parenleft" format="1">
  <advance width="362"/>
  <unicode hex="0028"/>
  <note>
	parenleft
  </note>
  <outline>
    <contour>
      <point x="312" y="-144"/>
      <point x="345" y="-137"/>
      <point x="345" y="-84" type="curve" smooth="yes"/>
      <point x="345" y="-42"/>
      <point x="342" y="-33"/>
      <point x="313" y="-11" type="curve" smooth="yes"/>
      <point x="230" y="54"/>
      <point x="195" y="167"/>
      <point x="195" y="316" type="curve" smooth="yes"/>
      <point x="195" y="465"/>
      <point x="229" y="577"/>
      <point x="313" y="643" type="curve" smooth="yes"/>
      <point x="341" y="665"/>
      <point x="345" y="673"/>
      <point x="345" y="715" type="curve" smooth="yes"/>
      <point x="345" y="769"/>
      <point x="312" y="775"/>
      <point x="255" y="753" type="curve" smooth="yes"/>
      <point x="117" y="700"/>
      <point x="31" y="519"/>
      <point x="31" y="316" type="curve" smooth="yes"/>
      <point x="31" y="113"/>
      <point x="117" y="-68"/>
      <point x="255" y="-122" type="curve" smooth="yes"/>
    </contour>
  </outline>
</glyph>
<glyph name="parenright" format="1">
  <advance width="362"/>
  <unicode hex="0029"/>
  <note>
	parenright
  </note>
  <outline>
    <contour>
      <point x="245" y="-68"/>
      <point x="331" y="113"/>
      <point x="331" y="316" type="curve" smooth="yes"/>
      <point x="331" y="519"/>
      <point x="245" y="700"/>
      <point x="107" y="753" type="curve" smooth="yes"/>
      <point x="50" y="775"/>
      <point x="17" y="769"/>
      <point x="17" y="715" type="curve" smooth="yes"/>
      <point x="17" y="673"/>
      <point x="20" y="665"/>
      <point x="49" y="643" type="curve" smooth="yes"/>
      <point x="133" y="577"/>
      <point x="167" y="465"/>
      <point x="167" y="316" type="curve" smooth="yes"/>
      <point x="167" y="167"/>
      <point x="133" y="54"/>
      <point x="49" y="-11" type="curve" smooth="yes"/>
      <point x="20" y="-33"/>
      <point x="17" y="-42"/>
      <point x="17" y="-84" type="curve" smooth="yes"/>
      <point x="17" y="-137"/>
      <point x="50" y="-144"/>
      <point x="107" y="-122" type="curve" smooth="yes"/>
    </contour>
  </outline>
</glyph>
<glyph name="hyphen" format="1">
  <advance width="470"/>
  <unicode hex="002D"/>
  <note>
	hyphen
  </note>
  <outline>
    <contour>
      <point x="401" y="240" type="line" smooth="yes"/>
      <point x="430" y="240"/>
      <point x="439" y="253"/>
      <point x="439" y="279" type="curve" smooth="yes"/>
      <point x="439" y="323" type="line" smooth="yes"/>
      <point x="439" y="349"/>
      <point x="430" y="362"/>
      <point x="401" y="362" type="curve" smooth="yes"/>
      <point x="69" y="362" type="line" smooth="yes"/>
      <point x="39" y="362"/>
      <point x="31" y="349"/>
      <point x="31" y="323" type="curve" smooth="yes"/>
      <point x="31" y="279" type="line" smooth="yes"/>
      <point x="31" y="253"/>
      <point x="39" y="240"/>
      <point x="69" y="240" type="curve" smooth="yes"/>
    </contour>
  </outline>
</glyph>
<glyph name="period" format="1">
  <advance width="179"/>
  <unicode hex="002E"/>
  <note>
	period
  </note>
  <outline>
    <contour>
      <point x="100" y="0" type="line" smooth="yes"/>
      <point x="129" y="0"/>
      <point x="148" y="23"/>
      <point x="148" y="50" type="curve" smooth="yes"/>
      <point x="148" y="70" type="line" smooth="yes"/>
      <point x="148" y="99"/>
      <point x="128" y="121"/>
      <point x="100" y="121" type="curve" smooth="yes"/>
      <point x="79" y="121" type="line" smooth="yes"/>
      <point x="50" y="121"/>
      <point x="31" y="99"/>
      <point x="31" y="70" type="curve" smooth="yes"/>
      <point x="31" y="50" type="line" smooth="yes"/>
      <point x="31" y="23"/>
      <point x="50" y="0"/>
      <point x="79" y="0" type="curve" smooth="yes"/>
    </contour>
  </outline>
</glyph>
<glyph name="two" format="1">
  <advance width="577"/>
  <unicode hex="0032"/>
  <note>
	two
  </note>
  <outline>
    <contour>
      <point x="500" y="0" type="line" smooth="yes"/>
      <point x="533" y="0"/>
      <point x="542" y="13"/>
      <point x="542" y="42" type="curve" smooth="yes"/>
      <point x="542" y="79" type="line" smooth="yes"/>
      <point x="542" y="108"/>
      <point x="533" y="122"/>
      <point x="500" y="122" type="curve" smooth="yes"/>
      <point x="203" y="122" type="line"/>
      <point x="211" y="166"/>
      <point x="274" y="218"/>
      <point x="353" y="261" type="curve" smooth="yes"/>
      <point x="474" y="331"/>
      <point x="543" y="391"/>
      <point x="543" y="499" type="curve" smooth="yes"/>
      <point x="543" y="627"/>
      <point x="437" y="695"/>
      <point x="287" y="695" type="curve" smooth="yes"/>
      <point x="186" y="695"/>
      <point x="99" y="672"/>
      <point x="50" y="638" type="curve"/>
      <point x="37" y="628"/>
      <point x="38" y="618"/>
      <point x="46" y="604" type="curve" smooth="yes"/>
      <point x="81" y="543" type="line" smooth="yes"/>
      <point x="90" y="528"/>
      <point x="97" y="530"/>
      <point x="112" y="538" type="curve" smooth="yes"/>
      <point x="147" y="557"/>
      <point x="199" y="576"/>
      <point x="262" y="576" type="curve" smooth="yes"/>
      <point x="336" y="576"/>
      <point x="378" y="545"/>
      <point x="378" y="488" type="curve" smooth="yes"/>
      <point x="378" y="416"/>
      <point x="340" y="395"/>
      <point x="226" y="326" type="curve" smooth="yes"/>
      <point x="92" y="244"/>
      <point x="34" y="167"/>
      <point x="34" y="86" type="curve" smooth="yes"/>
      <point x="34" y="40" type="line" smooth="yes"/>
      <point x="34" y="13"/>
      <point x="46" y="0"/>
      <point x="73" y="0" type="curve" smooth="yes"/>
    </contour>
  </outline>
</glyph>
<glyph name="five" format="1">
  <advance width="628"/>
  <unicode hex="0035"/>
  <note>
	five
  </note>
  <outline>
    <contour>
      <point x="471" y="-15"/>
      <point x="597" y="75"/>
      <point x="597" y="226" type="curve" smooth="yes"/>
      <point x="597" y="398"/>
      <point x="488" y="459"/>
      <point x="326" y="459" type="curve" smooth="yes"/>
      <point x="282" y="459"/>
      <point x="232" y="453"/>
      <point x="200" y="443" type="curve"/>
      <point x="207" y="558" type="line"/>
      <point x="521" y="558" type="line" smooth="yes"/>
      <point x="554" y="558"/>
      <point x="564" y="571"/>
      <point x="564" y="601" type="curve" smooth="yes"/>
      <point x="564" y="638" type="line" smooth="yes"/>
      <point x="564" y="667"/>
      <point x="554" y="680"/>
      <point x="521" y="680" type="curve" smooth="yes"/>
      <point x="115" y="680" type="line" smooth="yes"/>
      <point x="82" y="680"/>
      <point x="73" y="666"/>
      <point x="71" y="641" type="curve" smooth="yes"/>
      <point x="55" y="385" type="line" smooth="yes"/>
      <point x="51" y="322"/>
      <point x="117" y="306"/>
      <point x="172" y="325" type="curve"/>
      <point x="203" y="339"/>
      <point x="249" y="348"/>
      <point x="299" y="348" type="curve" smooth="yes"/>
      <point x="385" y="348"/>
      <point x="432" y="320"/>
      <point x="432" y="226" type="curve" smooth="yes"/>
      <point x="432" y="144"/>
      <point x="378" y="104"/>
      <point x="283" y="104" type="curve" smooth="yes"/>
      <point x="205" y="104"/>
      <point x="144" y="123"/>
      <point x="104" y="146" type="curve" smooth="yes"/>
      <point x="89" y="155"/>
      <point x="81" y="156"/>
      <point x="73" y="142" type="curve" smooth="yes"/>
      <point x="37" y="80" type="line" smooth="yes"/>
      <point x="29" y="66"/>
      <point x="28" y="56"/>
      <point x="41" y="47" type="curve" smooth="yes"/>
      <point x="96" y="8"/>
      <point x="192" y="-15"/>
      <point x="291" y="-15" type="curve" smooth="yes"/>
    </contour>
  </outline>
</glyph>
<glyph name="seven" format="1">
  <advance width="596"/>
  <unicode hex="0037"/>
  <note>
	seven
  </note>
  <outline>
    <contour>
      <point x="241" y="0" type="line" smooth="yes"/>
      <point x="258" y="0"/>
      <point x="265" y="6"/>
      <point x="271" y="18" type="curve" smooth="yes"/>
      <point x="550" y="564" type="line" smooth="yes"/>
      <point x="561" y="585"/>
      <point x="575" y="613"/>
      <point x="575" y="636" type="curve" smooth="yes"/>
      <point x="575" y="669"/>
      <point x="563" y="680"/>
      <point x="522" y="680" type="curve" smooth="yes"/>
      <point x="61" y="680" type="line" smooth="yes"/>
      <point x="29" y="680"/>
      <point x="21" y="668"/>
      <point x="21" y="639" type="curve" smooth="yes"/>
      <point x="21" y="600" type="line" smooth="yes"/>
      <point x="21" y="571"/>
      <point x="29" y="558"/>
      <point x="61" y="558" type="curve" smooth="yes"/>
      <point x="373" y="558" type="line"/>
      <point x="102" y="31" type="line" smooth="yes"/>
      <point x="94" y="15"/>
      <point x="96" y="0"/>
      <point x="114" y="0" type="curve" smooth="yes"/>
    </contour>
  </outline>
</glyph>
<glyph name="eight" format="1">
  <advance width="642"/>
  <unicode hex="0038"/>
  <note>
	eight
  </note>
  <outline>
    <contour>
      <point x="501" y="-15"/>
      <point x="611" y="62"/>
      <point x="611" y="197" type="curve" smooth="yes"/>
      <point x="611" y="267"/>
      <point x="572" y="327"/>
      <point x="507" y="354" type="curve"/>
      <point x="564" y="383"/>
      <point x="592" y="430"/>
      <point x="592" y="489" type="curve" smooth="yes"/>
      <point x="592" y="620"/>
      <point x="497" y="695"/>
      <point x="321" y="695" type="curve" smooth="yes"/>
      <point x="145" y="695"/>
      <point x="49" y="620"/>
      <point x="49" y="489" type="curve" smooth="yes"/>
      <point x="49" y="430"/>
      <point x="78" y="383"/>
      <point x="135" y="354" type="curve"/>
      <point x="70" y="327"/>
      <point x="31" y="267"/>
      <point x="31" y="197" type="curve" smooth="yes"/>
      <point x="31" y="62"/>
      <point x="140" y="-15"/>
      <point x="321" y="-15" type="curve" smooth="yes"/>
    </contour>
    <contour>
      <point x="236" y="104"/>
      <point x="195" y="135"/>
      <point x="195" y="198" type="curve" smooth="yes"/>
      <point x="195" y="260"/>
      <point x="235" y="294"/>
      <point x="321" y="294" type="curve" smooth="yes"/>
      <point x="406" y="294"/>
      <point x="447" y="260"/>
      <point x="447" y="198" type="curve" smooth="yes"/>
      <point x="447" y="135"/>
      <point x="405" y="104"/>
      <point x="321" y="104" type="curve" smooth="yes"/>
    </contour>
    <contour>
      <point x="254" y="410"/>
      <point x="214" y="431"/>
      <point x="214" y="489" type="curve" smooth="yes"/>
      <point x="214" y="552"/>
      <point x="250" y="576"/>
      <point x="321" y="576" type="curve" smooth="yes"/>
      <point x="392" y="576"/>
      <point x="428" y="552"/>
      <point x="428" y="489" type="curve" smooth="yes"/>
      <point x="428" y="431"/>
      <point x="388" y="410"/>
      <point x="321" y="410" type="curve" smooth="yes"/>
    </contour>
  </outline>
</glyph>
<glyph name="semicolon" format="1">
  <advance width="258"/>
  <unicode hex="003B"/>
  <note>
	semicolon
  </note>
  <outline>
    <contour>
      <point x="113" y="-119" type="line" smooth="yes"/>
      <point x="133" y="-119"/>
      <point x="142" y="-112"/>
      <point x="147" y="-99" type="curve"/>
      <point x="219" y="70" type="line" smooth="yes"/>
      <point x="231" y="100"/>
      <point x="226" y="112"/>
      <point x="194" y="112" type="curve" smooth="yes"/>
      <point x="128" y="112" type="line" smooth="yes"/>
      <point x="102" y="112"/>
      <point x="93" y="106"/>
      <point x="85" y="81" type="curve" smooth="yes"/>
      <point x="33" y="-91" type="line" smooth="yes"/>
      <point x="28" y="-107"/>
      <point x="32" y="-119"/>
      <point x="53" y="-119" type="curve" smooth="yes"/>
    </contour>
    <contour>
      <point x="168" y="348" type="line" smooth="yes"/>
      <point x="203" y="348"/>
      <point x="226" y="376"/>
      <point x="226" y="409" type="curve" smooth="yes"/>
      <point x="226" y="432" type="line" smooth="yes"/>
      <point x="226" y="466"/>
      <point x="203" y="493"/>
      <point x="168" y="493" type="curve" smooth="yes"/>
      <point x="142" y="493" type="line" smooth="yes"/>
      <point x="108" y="493"/>
      <point x="85" y="466"/>
      <point x="85" y="432" type="curve" smooth="yes"/>
      <point x="85" y="409" type="line" smooth="yes"/>
      <point x="85" y="376"/>
      <point x="108" y="348"/>
      <point x="142" y="348" type="curve" smooth="yes"/>
    </contour>
  </outline>
</glyph>
<glyph name="greater" format="1">
  <advance width="542"/>
  <unicode hex="003E"/>
  <note>
	greater
  </note>
  <outline>
    <contour>
      <point x="494" y="216" type="line" smooth="yes"/>
      <point x="506" y="221"/>
      <point x="511" y="228"/>
      <point x="511" y="243" type="curve" smooth="yes"/>
      <point x="511" y="303" type="line" smooth="yes"/>
      <point x="511" y="318"/>
      <point x="506" y="325"/>
      <point x="494" y="330" type="curve" smooth="yes"/>
      <point x="52" y="528" type="line" smooth="yes"/>
      <point x="40" y="533"/>
      <point x="31" y="528"/>
      <point x="31" y="516" type="curve" smooth="yes"/>
      <point x="31" y="415" type="line" smooth="yes"/>
      <point x="31" y="399"/>
      <point x="36" y="395"/>
      <point x="48" y="390" type="curve" smooth="yes"/>
      <point x="317" y="274" type="line"/>
      <point x="48" y="158" type="line" smooth="yes"/>
      <point x="36" y="153"/>
      <point x="31" y="149"/>
      <point x="31" y="133" type="curve" smooth="yes"/>
      <point x="31" y="30" type="line" smooth="yes"/>
      <point x="31" y="18"/>
      <point x="40" y="13"/>
      <point x="52" y="18" type="curve" smooth="yes"/>
    </contour>
  </outline>
</glyph>
<glyph name="at" format="1">
  <advance width="941"/>
  <unicode hex="0040"/>
  <note>
	at
  </note>
  <outline>
    <contour>
      <point x="535" y="-89"/>
      <point x="610" y="-68"/>
      <point x="658" y="-35" type="curve"/>
      <point x="666" y="-30"/>
      <point x="666" y="-27"/>
      <point x="663" y="-19" type="curve" smooth="yes"/>
      <point x="632" y="60" type="line" smooth="yes"/>
      <point x="629" y="68"/>
      <point x="625" y="68"/>
      <point x="618" y="63" type="curve" smooth="yes"/>
      <point x="579" y="34"/>
      <point x="517" y="17"/>
      <point x="454" y="17" type="curve" smooth="yes"/>
      <point x="284" y="17"/>
      <point x="158" y="113"/>
      <point x="158" y="300" type="curve" smooth="yes"/>
      <point x="158" y="518"/>
      <point x="298" y="611"/>
      <point x="493" y="611" type="curve" smooth="yes"/>
      <point x="642" y="611"/>
      <point x="783" y="528"/>
      <point x="783" y="350" type="curve" smooth="yes"/>
      <point x="783" y="249"/>
      <point x="760" y="191"/>
      <point x="718" y="191" type="curve" smooth="yes"/>
      <point x="692" y="191"/>
      <point x="681" y="204"/>
      <point x="681" y="237" type="curve" smooth="yes"/>
      <point x="681" y="466" type="line"/>
      <point x="638" y="510"/>
      <point x="564" y="538"/>
      <point x="492" y="538" type="curve" smooth="yes"/>
      <point x="334" y="538"/>
      <point x="230" y="455"/>
      <point x="230" y="297" type="curve" smooth="yes"/>
      <point x="230" y="169"/>
      <point x="315" y="98"/>
      <point x="442" y="97" type="curve" smooth="yes"/>
      <point x="514" y="97"/>
      <point x="574" y="124"/>
      <point x="610" y="173" type="curve"/>
      <point x="622" y="130"/>
      <point x="659" y="97"/>
      <point x="715" y="97" type="curve" smooth="yes"/>
      <point x="828" y="97"/>
      <point x="910" y="179"/>
      <point x="910" y="349" type="curve" smooth="yes"/>
      <point x="910" y="574"/>
      <point x="757" y="714"/>
      <point x="495" y="714" type="curve" smooth="yes"/>
      <point x="217" y="714"/>
      <point x="31" y="578"/>
      <point x="31" y="300" type="curve" smooth="yes"/>
      <point x="31" y="59"/>
      <point x="200" y="-89"/>
      <point x="455" y="-89" type="curve" smooth="yes"/>
    </contour>
    <contour>
      <point x="386" y="203"/>
      <point x="352" y="235"/>
      <point x="352" y="301" type="curve" smooth="yes"/>
      <point x="352" y="381"/>
      <point x="404" y="426"/>
      <point x="483" y="426" type="curve" smooth="yes"/>
      <point x="515" y="426"/>
      <point x="545" y="418"/>
      <point x="564" y="407" type="curve"/>
      <point x="564" y="289" type="line" smooth="yes"/>
      <point x="564" y="233"/>
      <point x="511" y="203"/>
      <point x="456" y="203" type="curve" smooth="yes"/>
    </contour>
  </outline>
</glyph>
<glyph name="K" format="1">
  <advance width="647"/>
  <unicode hex="004B"/>
  <note>
	K
  </note>
  <outline>
    <contour>
      <point x="596" y="0" type="line" smooth="yes"/>
      <point x="614" y="0"/>
      <point x="619" y="18"/>
      <point x="608" y="33" type="curve"/>
      <point x="364" y="342" type="line"/>
      <point x="601" y="647" type="line" smooth="yes"/>
      <point x="612" y="662"/>
      <point x="607" y="680"/>
      <point x="589" y="680" type="curve" smooth="yes"/>
      <point x="466" y="680" type="line" smooth="yes"/>
      <point x="447" y="680"/>
      <point x="441" y="678"/>
      <point x="433" y="667" type="curve" smooth="yes"/>
      <point x="219" y="382" type="line" smooth="yes"/>
      <point x="209" y="369"/>
      <point x="203" y="361"/>
      <point x="203" y="342" type="curve" smooth="yes"/>
      <point x="203" y="323"/>
      <point x="210" y="314"/>
      <point x="219" y="302" type="curve" smooth="yes"/>
      <point x="440" y="12" type="line" smooth="yes"/>
      <point x="448" y="2"/>
      <point x="455" y="0"/>
      <point x="471" y="0" type="curve" smooth="yes"/>
    </contour>
    <contour>
      <point x="171" y="0" type="line" smooth="yes"/>
      <point x="205" y="0"/>
      <point x="216" y="14"/>
      <point x="216" y="43" type="curve" smooth="yes"/>
      <point x="216" y="636" type="line" smooth="yes"/>
      <point x="216" y="665"/>
      <point x="205" y="680"/>
      <point x="171" y="680" type="curve" smooth="yes"/>
      <point x="96" y="680" type="line" smooth="yes"/>
      <point x="63" y="680"/>
      <point x="51" y="665"/>
      <point x="51" y="636" type="curve" smooth="yes"/>
      <point x="51" y="43" type="line" smooth="yes"/>
      <point x="51" y="14"/>
      <point x="63" y="0"/>
      <point x="96" y="0" type="curve" smooth="yes"/>
    </contour>
  </outline>
</glyph>
<glyph name="M" format="1">
  <advance width="777"/>
  <unicode hex="004D"/>
  <note>
	M
  </note>
  <outline>
    <contour>
      <point x="157" y="0" type="line" smooth="yes"/>
      <point x="191" y="0"/>
      <point x="203" y="14"/>
      <point x="203" y="43" type="curve" smooth="yes"/>
      <point x="203" y="421" type="line"/>
      <point x="336" y="122" type="line" smooth="yes"/>
      <point x="347" y="98"/>
      <point x="356" y="84"/>
      <point x="388" y="84" type="curve" smooth="yes"/>
      <point x="421" y="84"/>
      <point x="429" y="98"/>
      <point x="440" y="122" type="curve" smooth="yes"/>
      <point x="574" y="421" type="line"/>
      <point x="574" y="43" type="line" smooth="yes"/>
      <point x="574" y="14"/>
      <point x="586" y="0"/>
      <point x="620" y="0" type="curve" smooth="yes"/>
      <point x="681" y="0" type="line" smooth="yes"/>
      <point x="714" y="0"/>
      <point x="726" y="14"/>
      <point x="726" y="43" type="curve" smooth="yes"/>
      <point x="726" y="637" type="line" smooth="yes"/>
      <point x="726" y="666"/>
      <point x="714" y="680"/>
      <point x="680" y="680" type="curve" smooth="yes"/>
      <point x="606" y="680" type="line" smooth="yes"/>
      <point x="584" y="680"/>
      <point x="570" y="677"/>
      <point x="562" y="658" type="curve" smooth="yes"/>
      <point x="388" y="250" type="line"/>
      <point x="215" y="658" type="line" smooth="yes"/>
      <point x="207" y="677"/>
      <point x="193" y="680"/>
      <point x="171" y="680" type="curve" smooth="yes"/>
      <point x="97" y="680" type="line" smooth="yes"/>
      <point x="63" y="680"/>
      <point x="51" y="666"/>
      <point x="51" y="637" type="curve" smooth="yes"/>
      <point x="51" y="43" type="line" smooth="yes"/>
      <point x="51" y="14"/>
      <point x="63" y="0"/>
      <point x="96" y="0" type="curve" smooth="yes"/>
    </contour>
  </outline>
</glyph>
<glyph name="Q" format="1">
  <advance width="759"/>
  <unicode hex="0051"/>
  <note>
	Q
  </note>
  <outline>
    <contour>
      <point x="591" y="-181"/>
      <point x="635" y="-165"/>
      <point x="674" y="-137" type="curve" smooth="yes"/>
      <point x="685" y="-129"/>
      <point x="687" y="-124"/>
      <point x="680" y="-113" type="curve" smooth="yes"/>
      <point x="642" y="-53" type="line" smooth="yes"/>
      <point x="637" y="-45"/>
      <point x="632" y="-43"/>
      <point x="621" y="-50" type="curve" smooth="yes"/>
      <point x="598" y="-65"/>
      <point x="569" y="-76"/>
      <point x="530" y="-76" type="curve" smooth="yes"/>
      <point x="480" y="-76"/>
      <point x="437" y="-57"/>
      <point x="431" y="-9" type="curve"/>
      <point x="625" y="11"/>
      <point x="728" y="134"/>
      <point x="728" y="340" type="curve" smooth="yes"/>
      <point x="728" y="564"/>
      <point x="607" y="695"/>
      <point x="380" y="695" type="curve" smooth="yes"/>
      <point x="152" y="695"/>
      <point x="31" y="564"/>
      <point x="31" y="340" type="curve" smooth="yes"/>
      <point x="31" y="140"/>
      <point x="127" y="14"/>
      <point x="309" y="-10" type="curve"/>
      <point x="319" y="-111"/>
      <point x="399" y="-181"/>
      <point x="526" y="-181" type="curve" smooth="yes"/>
    </contour>
    <contour>
      <point x="257" y="104"/>
      <point x="195" y="185"/>
      <point x="195" y="340" type="curve" smooth="yes"/>
      <point x="195" y="495"/>
      <point x="257" y="576"/>
      <point x="380" y="576" type="curve" smooth="yes"/>
      <point x="502" y="576"/>
      <point x="564" y="495"/>
      <point x="564" y="340" type="curve" smooth="yes"/>
      <point x="564" y="185"/>
      <point x="502" y="104"/>
      <point x="380" y="104" type="curve" smooth="yes"/>
    </contour>
  </outline>
</glyph>
<glyph name="V" format="1">
  <advance width="727"/>
  <unicode hex="0056"/>
  <note>
	V
  </note>
  <outline>
    <contour>
      <point x="400" y="0" type="line" smooth="yes"/>
      <point x="422" y="0"/>
      <point x="431" y="7"/>
      <point x="440" y="29" type="curve" smooth="yes"/>
      <point x="692" y="647" type="line" smooth="yes"/>
      <point x="699" y="665"/>
      <point x="696" y="680"/>
      <point x="677" y="680" type="curve" smooth="yes"/>
      <point x="557" y="680" type="line" smooth="yes"/>
      <point x="537" y="680"/>
      <point x="528" y="671"/>
      <point x="523" y="657" type="curve" smooth="yes"/>
      <point x="363" y="228" type="line"/>
      <point x="203" y="657" type="line" smooth="yes"/>
      <point x="198" y="671"/>
      <point x="190" y="680"/>
      <point x="170" y="680" type="curve" smooth="yes"/>
      <point x="50" y="680" type="line" smooth="yes"/>
      <point x="31" y="680"/>
      <point x="28" y="665"/>
      <point x="35" y="647" type="curve" smooth="yes"/>
      <point x="288" y="29" type="line" smooth="yes"/>
      <point x="297" y="7"/>
      <point x="305" y="0"/>
      <point x="327" y="0" type="curve" smooth="yes"/>
    </contour>
  </outline>
</glyph>
<glyph name="W" format="1">
  <advance width="879"/>
  <unicode hex="0057"/>
  <note>
	W
  </note>
  <outline>
    <contour>
      <point x="301" y="0" type="line" smooth="yes"/>
      <point x="323" y="0"/>
      <point x="334" y="7"/>
      <point x="341" y="29" type="curve" smooth="yes"/>
      <point x="439" y="361" type="line"/>
      <point x="538" y="29" type="line" smooth="yes"/>
      <point x="545" y="7"/>
      <point x="555" y="0"/>
      <point x="578" y="0" type="curve" smooth="yes"/>
      <point x="650" y="0" type="line" smooth="yes"/>
      <point x="672" y="0"/>
      <point x="684" y="7"/>
      <point x="690" y="29" type="curve" smooth="yes"/>
      <point x="846" y="653" type="line" smooth="yes"/>
      <point x="851" y="671"/>
      <point x="844" y="680"/>
      <point x="825" y="680" type="curve" smooth="yes"/>
      <point x="713" y="680" type="line" smooth="yes"/>
      <point x="691" y="680"/>
      <point x="684" y="672"/>
      <point x="681" y="657" type="curve" smooth="yes"/>
      <point x="602" y="284" type="line"/>
      <point x="501" y="604" type="line" smooth="yes"/>
      <point x="495" y="622"/>
      <point x="488" y="628"/>
      <point x="467" y="628" type="curve" smooth="yes"/>
      <point x="411" y="628" type="line" smooth="yes"/>
      <point x="390" y="628"/>
      <point x="383" y="622"/>
      <point x="377" y="604" type="curve" smooth="yes"/>
      <point x="277" y="284" type="line"/>
      <point x="197" y="657" type="line" smooth="yes"/>
      <point x="194" y="672"/>
      <point x="188" y="680"/>
      <point x="165" y="680" type="curve" smooth="yes"/>
      <point x="54" y="680" type="line" smooth="yes"/>
      <point x="35" y="680"/>
      <point x="28" y="671"/>
      <point x="33" y="653" type="curve" smooth="yes"/>
      <point x="188" y="29" type="line" smooth="yes"/>
      <point x="193" y="7"/>
      <point x="206" y="0"/>
      <point x="228" y="0" type="curve" smooth="yes"/>
    </contour>
  </outline>
</glyph>
<glyph name="X" format="1">
  <advance width="731"/>
  <unicode hex="0058"/>
  <note>
	X
  </note>
  <outline>
    <contour>
      <point x="175" y="0" type="line" smooth="yes"/>
      <point x="191" y="0"/>
      <point x="197" y="3"/>
      <point x="204" y="12" type="curve" smooth="yes"/>
      <point x="365" y="227" type="line"/>
      <point x="527" y="12" type="line" smooth="yes"/>
      <point x="534" y="3"/>
      <point x="540" y="0"/>
      <point x="556" y="0" type="curve" smooth="yes"/>
      <point x="680" y="0" type="line" smooth="yes"/>
      <point x="699" y="0"/>
      <point x="705" y="17"/>
      <point x="693" y="33" type="curve" smooth="yes"/>
      <point x="456" y="349" type="line"/>
      <point x="679" y="647" type="line" smooth="yes"/>
      <point x="690" y="662"/>
      <point x="686" y="680"/>
      <point x="667" y="680" type="curve" smooth="yes"/>
      <point x="542" y="680" type="line" smooth="yes"/>
      <point x="525" y="680"/>
      <point x="519" y="676"/>
      <point x="512" y="667" type="curve" smooth="yes"/>
      <point x="365" y="471" type="line"/>
      <point x="218" y="667" type="line"/>
      <point x="212" y="676"/>
      <point x="205" y="680"/>
      <point x="188" y="680" type="curve" smooth="yes"/>
      <point x="64" y="680" type="line" smooth="yes"/>
      <point x="45" y="680"/>
      <point x="40" y="662"/>
      <point x="52" y="647" type="curve" smooth="yes"/>
      <point x="274" y="349" type="line"/>
      <point x="37" y="33" type="line" smooth="yes"/>
      <point x="25" y="17"/>
      <point x="32" y="0"/>
      <point x="50" y="0" type="curve" smooth="yes"/>
    </contour>
  </outline>
</glyph>
<glyph name="bracketright" format="1">
  <advance width="332"/>
  <unicode hex="005D"/>
  <note>
	bracketright
  </note>
  <outline>
    <contour>
      <point x="257" y="-70" type="line" smooth="yes"/>
      <point x="289" y="-70"/>
      <point x="301" y="-56"/>
      <point x="301" y="-27" type="curve" smooth="yes"/>
      <point x="301" y="706" type="line" smooth="yes"/>
      <point x="301" y="735"/>
      <point x="289" y="750"/>
      <point x="257" y="750" type="curve" smooth="yes"/>
      <point x="63" y="750" type="line" smooth="yes"/>
      <point x="30" y="750"/>
      <point x="21" y="737"/>
      <point x="21" y="708" type="curve" smooth="yes"/>
      <point x="21" y="671" type="line" smooth="yes"/>
      <point x="21" y="642"/>
      <point x="30" y="628"/>
      <point x="63" y="628" type="curve" smooth="yes"/>
      <point x="135" y="628" type="line"/>
      <point x="135" y="51" type="line"/>
      <point x="63" y="51" type="line" smooth="yes"/>
      <point x="30" y="51"/>
      <point x="21" y="38"/>
      <point x="21" y="8" type="curve" smooth="yes"/>
      <point x="21" y="-28" type="line" smooth="yes"/>
      <point x="21" y="-57"/>
      <point x="30" y="-70"/>
      <point x="63" y="-70" type="curve" smooth="yes"/>
    </contour>
  </outline>
</glyph>
<glyph name="asciicircum" format="1">
  <advance width="622"/>
  <unicode hex="005E"/>
  <note>
	asciicircum
  </note>
  <outline>
    <contour>
      <point x="156" y="339" type="line" smooth="yes"/>
      <point x="175" y="339"/>
      <point x="183" y="344"/>
      <point x="193" y="359" type="curve"/>
      <point x="311" y="558" type="line"/>
      <point x="429" y="359" type="line" smooth="yes"/>
      <point x="438" y="344"/>
      <point x="446" y="339"/>
      <point x="465" y="339" type="curve" smooth="yes"/>
      <point x="571" y="339" type="line" smooth="yes"/>
      <point x="590" y="339"/>
      <point x="596" y="355"/>
      <point x="585" y="372" type="curve" smooth="yes"/>
      <point x="386" y="685" type="line" smooth="yes"/>
      <point x="372" y="707"/>
      <point x="364" y="719"/>
      <point x="334" y="719" type="curve" smooth="yes"/>
      <point x="288" y="719" type="line" smooth="yes"/>
      <point x="257" y="719"/>
      <point x="250" y="707"/>
      <point x="236" y="685" type="curve" smooth="yes"/>
      <point x="37" y="372" type="line" smooth="yes"/>
      <point x="26" y="355"/>
      <point x="32" y="339"/>
      <point x="50" y="339" type="curve" smooth="yes"/>
    </contour>
  </outline>
</glyph>
<glyph name="underscore" format="1">
  <advance width="529"/>
  <unicode hex="005F"/>
  <note>
	underscore
  </note>
  <outline>
    <contour>
      <point x="460" y="-137" type="line" smooth="yes"/>
      <point x="489" y="-137"/>
      <point x="498" y="-124"/>
      <point x="498" y="-98" type="curve" smooth="yes"/>
      <point x="498" y="-54" type="line" smooth="yes"/>
      <point x="498" y="-28"/>
      <point x="489" y="-15"/>
      <point x="460" y="-15" type="curve" smooth="yes"/>
      <point x="69" y="-15" type="line" smooth="yes"/>
      <point x="39" y="-15"/>
      <point x="31" y="-28"/>
      <point x="31" y="-54" type="curve" smooth="yes"/>
      <point x="31" y="-98" type="line" smooth="yes"/>
      <point x="31" y="-124"/>
      <point x="39" y="-137"/>
      <point x="69" y="-137" type="curve" smooth="yes"/>
    </contour>
  </outline>
</glyph>
<glyph name="b" format="1">
  <advance width="620"/>
  <unicode hex="0062"/>
  <note>
	b
  </note>
  <outline>
    <contour>
      <point x="493" y="-15"/>
      <point x="589" y="89"/>
      <point x="589" y="259" type="curve" smooth="yes"/>
      <point x="589" y="408"/>
      <point x="505" y="495"/>
      <point x="350" y="495" type="curve" smooth="yes"/>
      <point x="299" y="495"/>
      <point x="244" y="482"/>
      <point x="213" y="458" type="curve"/>
      <point x="213" y="636" type="line" smooth="yes"/>
      <point x="213" y="665"/>
      <point x="202" y="680"/>
      <point x="168" y="680" type="curve" smooth="yes"/>
      <point x="96" y="680" type="line" smooth="yes"/>
      <point x="63" y="680"/>
      <point x="51" y="665"/>
      <point x="51" y="636" type="curve" smooth="yes"/>
      <point x="51" y="53" type="line"/>
      <point x="104" y="15"/>
      <point x="200" y="-15"/>
      <point x="299" y="-15" type="curve" smooth="yes"/>
    </contour>
    <contour>
      <point x="262" y="99"/>
      <point x="231" y="106"/>
      <point x="213" y="116" type="curve"/>
      <point x="213" y="297" type="line" smooth="yes"/>
      <point x="213" y="355"/>
      <point x="265" y="381"/>
      <point x="316" y="381" type="curve" smooth="yes"/>
      <point x="395" y="381"/>
      <point x="425" y="341"/>
      <point x="425" y="257" type="curve" smooth="yes"/>
      <point x="425" y="152"/>
      <point x="382" y="99"/>
      <point x="291" y="99" type="curve" smooth="yes"/>
    </contour>
  </outline>
</glyph>
<glyph name="d" format="1">
  <advance width="620"/>
  <unicode hex="0064"/>
  <note>
	d
  </note>
  <outline>
    <contour>
      <point x="424" y="-15"/>
      <point x="517" y="15"/>
      <point x="569" y="53" type="curve"/>
      <point x="569" y="636" type="line" smooth="yes"/>
      <point x="569" y="665"/>
      <point x="557" y="680"/>
      <point x="524" y="680" type="curve" smooth="yes"/>
      <point x="452" y="680" type="line" smooth="yes"/>
      <point x="418" y="680"/>
      <point x="407" y="665"/>
      <point x="407" y="636" type="curve" smooth="yes"/>
      <point x="407" y="458" type="line"/>
      <point x="379" y="482"/>
      <point x="331" y="495"/>
      <point x="274" y="495" type="curve" smooth="yes"/>
      <point x="119" y="495"/>
      <point x="31" y="392"/>
      <point x="31" y="242" type="curve" smooth="yes"/>
      <point x="31" y="72"/>
      <point x="127" y="-15"/>
      <point x="323" y="-15" type="curve" smooth="yes"/>
    </contour>
    <contour>
      <point x="242" y="99"/>
      <point x="195" y="136"/>
      <point x="195" y="240" type="curve" smooth="yes"/>
      <point x="195" y="324"/>
      <point x="230" y="381"/>
      <point x="311" y="381" type="curve" smooth="yes"/>
      <point x="367" y="381"/>
      <point x="407" y="356"/>
      <point x="407" y="299" type="curve" smooth="yes"/>
      <point x="407" y="116" type="line"/>
      <point x="389" y="106"/>
      <point x="361" y="99"/>
      <point x="327" y="99" type="curve" smooth="yes"/>
    </contour>
  </outline>
</glyph>
<glyph name="n" format="1">
  <advance width="601"/>
  <unicode hex="006E"/>
  <note>
	n
  </note>
  <outline>
    <contour>
      <point x="171" y="0" type="line" smooth="yes"/>
      <point x="205" y="0"/>
      <point x="216" y="14"/>
      <point x="216" y="43" type="curve" smooth="yes"/>
      <point x="216" y="300" type="line" smooth="yes"/>
      <point x="216" y="350"/>
      <point x="262" y="381"/>
      <point x="316" y="381" type="curve" smooth="yes"/>
      <point x="367" y="381"/>
      <point x="389" y="361"/>
      <point x="389" y="308" type="curve" smooth="yes"/>
      <point x="389" y="43" type="line" smooth="yes"/>
      <point x="389" y="14"/>
      <point x="401" y="0"/>
      <point x="435" y="0" type="curve" smooth="yes"/>
      <point x="510" y="0" type="line" smooth="yes"/>
      <point x="543" y="0"/>
      <point x="555" y="14"/>
      <point x="555" y="43" type="curve" smooth="yes"/>
      <point x="555" y="318" type="line" smooth="yes"/>
      <point x="555" y="441"/>
      <point x="477" y="495"/>
      <point x="374" y="495" type="curve" smooth="yes"/>
      <point x="290" y="495"/>
      <point x="228" y="467"/>
      <point x="189" y="427" type="curve"/>
      <point x="186" y="462" type="line" smooth="yes"/>
      <point x="185" y="476"/>
      <point x="176" y="480"/>
      <point x="161" y="480" type="curve" smooth="yes"/>
      <point x="81" y="480" type="line" smooth="yes"/>
      <point x="56" y="480"/>
      <point x="51" y="473"/>
      <point x="51" y="451" type="curve" smooth="yes"/>
      <point x="51" y="43" type="line" smooth="yes"/>
      <point x="51" y="14"/>
      <point x="63" y="0"/>
      <point x="97" y="0" type="curve" smooth="yes"/>
    </contour>
  </outline>
</glyph>
<glyph name="o" format="1">
  <advance width="623"/>
  <unicode hex="006F"/>
  <note>
	o
  </note>
  <outline>
    <contour>
      <point x="492" y="-15"/>
      <point x="592" y="85"/>
      <point x="592" y="240" type="curve" smooth="yes"/>
      <point x="592" y="395"/>
      <point x="492" y="495"/>
      <point x="311" y="495" type="curve" smooth="yes"/>
      <point x="131" y="495"/>
      <point x="31" y="395"/>
      <point x="31" y="240" type="curve" smooth="yes"/>
      <point x="31" y="85"/>
      <point x="131" y="-15"/>
      <point x="311" y="-15" type="curve" smooth="yes"/>
    </contour>
    <contour>
      <point x="237" y="104"/>
      <point x="195" y="149"/>
      <point x="195" y="240" type="curve" smooth="yes"/>
      <point x="195" y="331"/>
      <point x="237" y="375"/>
      <point x="311" y="375" type="curve" smooth="yes"/>
      <point x="386" y="375"/>
      <point x="428" y="331"/>
      <point x="428" y="240" type="curve" smooth="yes"/>
      <point x="428" y="149"/>
      <point x="386" y="104"/>
      <point x="311" y="104" type="curve" smooth="yes"/>
    </contour>
  </outline>
</glyph>
<glyph name="r" format="1">
  <advance width="439"/>
  <unicode hex="0072"/>
  <note>
	r
  </note>
  <outline>
    <contour>
      <point x="171" y="0" type="line" smooth="yes"/>
      <point x="205" y="0"/>
      <point x="216" y="14"/>
      <point x="216" y="43" type="curve" smooth="yes"/>
      <point x="216" y="290" type="line" smooth="yes"/>
      <point x="216" y="348"/>
      <point x="261" y="382"/>
      <point x="318" y="382" type="curve" smooth="yes"/>
      <point x="345" y="382"/>
      <point x="364" y="376"/>
      <point x="378" y="369" type="curve"/>
      <point x="389" y="363"/>
      <point x="397" y="365"/>
      <point x="401" y="378" type="curve" smooth="yes"/>
      <point x="426" y="453" type="line" smooth="yes"/>
      <point x="429" y="463"/>
      <point x="428" y="469"/>
      <point x="419" y="476" type="curve" smooth="yes"/>
      <point x="400" y="490"/>
      <point x="377" y="495"/>
      <point x="339" y="495" type="curve" smooth="yes"/>
      <point x="272" y="495"/>
      <point x="223" y="467"/>
      <point x="189" y="430" type="curve"/>
      <point x="185" y="462" type="line" smooth="yes"/>
      <point x="183" y="476"/>
      <point x="176" y="480"/>
      <point x="161" y="480" type="curve" smooth="yes"/>
      <point x="81" y="480" type="line" smooth="yes"/>
      <point x="56" y="480"/>
      <point x="51" y="473"/>
      <point x="51" y="451" type="curve" smooth="yes"/>
      <point x="51" y="43" type="line" smooth="yes"/>
      <point x="51" y="14"/>
      <point x="63" y="0"/>
      <point x="97" y="0" type="curve" smooth="yes"/>
    </contour>
  </outline>
</glyph>
<glyph name="v" format="1">
  <advance width="616"/>
  <unicode hex="0076"/>
  <note>
	v
  </note>
  <outline>
    <contour>
      <point x="343" y="0" type="line" smooth="yes"/>
      <point x="366" y="0"/>
      <point x="374" y="8"/>
      <point x="384" y="29" type="curve" smooth="yes"/>
      <point x="581" y="447" type="line" smooth="yes"/>
      <point x="589" y="464"/>
      <point x="584" y="480"/>
      <point x="566" y="480" type="curve" smooth="yes"/>
      <point x="451" y="480" type="line" smooth="yes"/>
      <point x="432" y="480"/>
      <point x="425" y="474"/>
      <point x="418" y="457" type="curve" smooth="yes"/>
      <point x="308" y="187" type="line"/>
      <point x="198" y="457" type="line" smooth="yes"/>
      <point x="191" y="475"/>
      <point x="184" y="480"/>
      <point x="165" y="480" type="curve" smooth="yes"/>
      <point x="50" y="480" type="line" smooth="yes"/>
      <point x="32" y="480"/>
      <point x="27" y="464"/>
      <point x="35" y="447" type="curve" smooth="yes"/>
      <point x="232" y="29" type="line" smooth="yes"/>
      <point x="242" y="8"/>
      <point x="251" y="0"/>
      <point x="273" y="0" type="curve" smooth="yes"/>
    </contour>
  </outline>
</glyph>
<glyph name="bar" format="1">
  <advance width="227"/>
  <unicode hex="007C"/>
  <note>
	bar
  </note>
  <outline>
    <contour>
      <point x="151" y="-90" type="line" smooth="yes"/>
      <point x="185" y="-90"/>
      <point x="196" y="-76"/>
      <point x="196" y="-47" type="curve" smooth="yes"/>
      <point x="196" y="726" type="line" smooth="yes"/>
      <point x="196" y="755"/>
      <point x="185" y="770"/>
      <point x="151" y="770" type="curve" smooth="yes"/>
      <point x="76" y="770" type="line" smooth="yes"/>
      <point x="43" y="770"/>
      <point x="31" y="755"/>
      <point x="31" y="726" type="curve" smooth="yes"/>
      <point x="31" y="-47" type="line" smooth="yes"/>
      <point x="31" y="-76"/>
      <point x="43" y="-90"/>
      <point x="76" y="-90" type="curve" smooth="yes"/>
    </contour>
  </outline>
</glyph>
<glyph name="braceright" format="1">
  <advance width="386"/>
  <unicode hex="007D"/>
  <note>
	braceright
  </note>
  <outline>
    <contour>
      <point x="228" y="-70" type="line" smooth="yes"/>
      <point x="262" y="-70"/>
      <point x="273" y="-56"/>
      <point x="273" y="-27" type="curve" smooth="yes"/>
      <point x="273" y="283" type="line"/>
      <point x="333" y="283" type="line" smooth="yes"/>
      <point x="366" y="283"/>
      <point x="375" y="296"/>
      <point x="375" y="325" type="curve" smooth="yes"/>
      <point x="375" y="355" type="line" smooth="yes"/>
      <point x="375" y="385"/>
      <point x="366" y="398"/>
      <point x="333" y="398" type="curve" smooth="yes"/>
      <point x="273" y="398" type="line"/>
      <point x="273" y="706" type="line" smooth="yes"/>
      <point x="273" y="735"/>
      <point x="262" y="750"/>
      <point x="228" y="750" type="curve" smooth="yes"/>
      <point x="63" y="750" type="line" smooth="yes"/>
      <point x="30" y="750"/>
      <point x="21" y="737"/>
      <point x="21" y="708" type="curve" smooth="yes"/>
      <point x="21" y="677" type="line" smooth="yes"/>
      <point x="21" y="648"/>
      <point x="30" y="634"/>
      <point x="63" y="634" type="curve" smooth="yes"/>
      <point x="111" y="634" type="line"/>
      <point x="111" y="45" type="line"/>
      <point x="63" y="45" type="line" smooth="yes"/>
      <point x="30" y="45"/>
      <point x="21" y="32"/>
      <point x="21" y="2" type="curve" smooth="yes"/>
      <point x="21" y="-28" type="line" smooth="yes"/>
      <point x="21" y="-57"/>
      <point x="30" y="-70"/>
      <point x="63" y="-70" type="curve" smooth="yes"/>
    </contour>
  </outline>
</glyph>
<glyph name="cent" format="1">
  <advance width="563"/>
  <unicode hex="00A2"/>
  <note>
	cent
  </note>
  <outline>
    <contour>
      <point x="345" y="-103" type="line" smooth="yes"/>
      <point x="379" y="-103"/>
      <point x="391" y="-89"/>
      <point x="391" y="-60" type="curve" smooth="yes"/>
      <point x="391" y="-9" type="line"/>
      <point x="441" y="-2"/>
      <point x="483" y="14"/>
      <point x="520" y="38" type="curve" smooth="yes"/>
      <point x="534" y="47"/>
      <point x="535" y="54"/>
      <point x="527" y="67" type="curve" smooth="yes"/>
      <point x="490" y="130" type="line" smooth="yes"/>
      <point x="481" y="145"/>
      <point x="475" y="145"/>
      <point x="459" y="135" type="curve" smooth="yes"/>
      <point x="427" y="114"/>
      <point x="389" y="99"/>
      <point x="337" y="99" type="curve" smooth="yes"/>
      <point x="250" y="99"/>
      <point x="195" y="145"/>
      <point x="195" y="239" type="curve" smooth="yes"/>
      <point x="195" y="327"/>
      <point x="249" y="382"/>
      <point x="331" y="382" type="curve" smooth="yes"/>
      <point x="388" y="382"/>
      <point x="420" y="367"/>
      <point x="452" y="346" type="curve"/>
      <point x="467" y="337"/>
      <point x="474" y="336"/>
      <point x="483" y="351" type="curve" smooth="yes"/>
      <point x="517" y="410" type="line" smooth="yes"/>
      <point x="525" y="424"/>
      <point x="526" y="434"/>
      <point x="513" y="443" type="curve" smooth="yes"/>
      <point x="479" y="467"/>
      <point x="440" y="481"/>
      <point x="391" y="489" type="curve"/>
      <point x="391" y="539" type="line" smooth="yes"/>
      <point x="391" y="568"/>
      <point x="379" y="583"/>
      <point x="345" y="583" type="curve" smooth="yes"/>
      <point x="283" y="583" type="line" smooth="yes"/>
      <point x="249" y="583"/>
      <point x="237" y="568"/>
      <point x="237" y="539" type="curve" smooth="yes"/>
      <point x="237" y="485" type="line"/>
      <point x="109" y="462"/>
      <point x="31" y="368"/>
      <point x="31" y="239" type="curve" smooth="yes"/>
      <point x="31" y="99"/>
      <point x="106" y="15"/>
      <point x="237" y="-6" type="curve"/>
      <point x="237" y="-60" type="line" smooth="yes"/>
      <point x="237" y="-89"/>
      <point x="249" y="-103"/>
      <point x="283" y="-103" type="curve" smooth="yes"/>
    </contour>
  </outline>
</glyph>
<glyph name="sterling" format="1">
  <advance width="567"/>
  <unicode hex="00A3"/>
  <note>
	sterling
  </note>
  <outline>
    <contour>
      <point x="493" y="0" type="line" smooth="yes"/>
      <point x="526" y="0"/>
      <point x="536" y="14"/>
      <point x="536" y="43" type="curve" smooth="yes"/>
      <point x="536" y="73" type="line" smooth="yes"/>
      <point x="536" y="102"/>
      <point x="526" y="115"/>
      <point x="493" y="115" type="curve" smooth="yes"/>
      <point x="255" y="115" type="line"/>
      <point x="276" y="135"/>
      <point x="282" y="164"/>
      <point x="282" y="201" type="curve" smooth="yes"/>
      <point x="282" y="311" type="line"/>
      <point x="398" y="311" type="line" smooth="yes"/>
      <point x="431" y="311"/>
      <point x="440" y="325"/>
      <point x="440" y="354" type="curve" smooth="yes"/>
      <point x="440" y="385" type="line" smooth="yes"/>
      <point x="440" y="414"/>
      <point x="431" y="427"/>
      <point x="398" y="427" type="curve" smooth="yes"/>
      <point x="282" y="427" type="line"/>
      <point x="282" y="506" type="line" smooth="yes"/>
      <point x="282" y="560"/>
      <point x="313" y="585"/>
      <point x="364" y="585" type="curve" smooth="yes"/>
      <point x="391" y="585"/>
      <point x="418" y="578"/>
      <point x="438" y="567" type="curve" smooth="yes"/>
      <point x="450" y="560"/>
      <point x="457" y="561"/>
      <point x="464" y="573" type="curve" smooth="yes"/>
      <point x="495" y="624" type="line" smooth="yes"/>
      <point x="503" y="637"/>
      <point x="501" y="645"/>
      <point x="489" y="654" type="curve" smooth="yes"/>
      <point x="452" y="681"/>
      <point x="398" y="695"/>
      <point x="329" y="695" type="curve" smooth="yes"/>
      <point x="191" y="695"/>
      <point x="117" y="618"/>
      <point x="117" y="501" type="curve" smooth="yes"/>
      <point x="117" y="427" type="line"/>
      <point x="77" y="427" type="line" smooth="yes"/>
      <point x="44" y="427"/>
      <point x="35" y="414"/>
      <point x="35" y="385" type="curve" smooth="yes"/>
      <point x="35" y="354" type="line" smooth="yes"/>
      <point x="35" y="325"/>
      <point x="44" y="311"/>
      <point x="77" y="311" type="curve" smooth="yes"/>
      <point x="117" y="311" type="line"/>
      <point x="117" y="177" type="line" smooth="yes"/>
      <point x="117" y="137"/>
      <point x="101" y="115"/>
      <point x="73" y="115" type="curve" smooth="yes"/>
      <point x="40" y="115"/>
      <point x="31" y="102"/>
      <point x="31" y="73" type="curve" smooth="yes"/>
      <point x="31" y="43" type="line" smooth="yes"/>
      <point x="31" y="14"/>
      <point x="40" y="0"/>
      <point x="73" y="0" type="curve" smooth="yes"/>
    </contour>
  </outline>
</glyph>
<glyph name="yen" format="1">
  <advance width="722"/>
  <unicode hex="00A5"/>
  <note>
	yen
  </note>
  <outline>
    <contour>
      <point x="398" y="0" type="line" smooth="yes"/>
      <point x="432" y="0"/>
      <point x="444" y="14"/>
      <point x="444" y="43" type="curve" smooth="yes"/>
      <point x="444" y="79" type="line"/>
      <point x="546" y="79" type="line" smooth="yes"/>
      <point x="572" y="79"/>
      <point x="578" y="86"/>
      <point x="578" y="115" type="curve" smooth="yes"/>
      <point x="578" y="140" type="line" smooth="yes"/>
      <point x="578" y="169"/>
      <point x="572" y="177"/>
      <point x="546" y="177" type="curve" smooth="yes"/>
      <point x="444" y="177" type="line"/>
      <point x="444" y="224" type="line"/>
      <point x="546" y="224" type="line" smooth="yes"/>
      <point x="572" y="224"/>
      <point x="578" y="231"/>
      <point x="578" y="260" type="curve" smooth="yes"/>
      <point x="578" y="284" type="line" smooth="yes"/>
      <point x="578" y="314"/>
      <point x="572" y="321"/>
      <point x="546" y="321" type="curve" smooth="yes"/>
      <point x="496" y="321" type="line"/>
      <point x="686" y="647" type="line" smooth="yes"/>
      <point x="695" y="663"/>
      <point x="691" y="680"/>
      <point x="671" y="680" type="curve" smooth="yes"/>
      <point x="550" y="680" type="line" smooth="yes"/>
      <point x="531" y="680"/>
      <point x="525" y="672"/>
      <point x="519" y="660" type="curve"/>
      <point x="361" y="381" type="line"/>
      <point x="203" y="660" type="line" smooth="yes"/>
      <point x="196" y="672"/>
      <point x="191" y="680"/>
      <point x="171" y="680" type="curve" smooth="yes"/>
      <point x="51" y="680" type="line" smooth="yes"/>
      <point x="31" y="680"/>
      <point x="26" y="663"/>
      <point x="36" y="647" type="curve" smooth="yes"/>
      <point x="225" y="321" type="line"/>
      <point x="165" y="321" type="line" smooth="yes"/>
      <point x="139" y="321"/>
      <point x="133" y="314"/>
      <point x="133" y="284" type="curve" smooth="yes"/>
      <point x="133" y="260" type="line" smooth="yes"/>
      <point x="133" y="231"/>
      <point x="139" y="224"/>
      <point x="165" y="224" type="curve" smooth="yes"/>
      <point x="278" y="224" type="line"/>
      <point x="278" y="177" type="line"/>
      <point x="165" y="177" type="line" smooth="yes"/>
      <point x="139" y="177"/>
      <point x="133" y="169"/>
      <point x="133" y="140" type="curve" smooth="yes"/>
      <point x="133" y="115" type="line" smooth="yes"/>
      <point x="133" y="86"/>
      <point x="139" y="79"/>
      <point x="165" y="79" type="curve" smooth="yes"/>
      <point x="278" y="79" type="line"/>
      <point x="278" y="43" type="line" smooth="yes"/>
      <point x="278" y="14"/>
      <point x="290" y="0"/>
      <point x="323" y="0" type="curve" smooth="yes"/>
    </contour>
  </outline>
</glyph>
<glyph name="brokenbar" format="1">
  <advance width="227"/>
  <unicode hex="00A6"/>
  <note>
	brokenbar
  </note>
  <outline>
    <contour>
      <point x="151" y="350" type="line" smooth="yes"/>
      <point x="185" y="350"/>
      <point x="196" y="364"/>
      <point x="196" y="393" type="curve" smooth="yes"/>
      <point x="196" y="686" type="line" smooth="yes"/>
      <point x="196" y="715"/>
      <point x="185" y="730"/>
      <point x="151" y="730" type="curve" smooth="yes"/>
      <point x="76" y="730" type="line" smooth="yes"/>
      <point x="43" y="730"/>
      <point x="31" y="715"/>
      <point x="31" y="686" type="curve" smooth="yes"/>
      <point x="31" y="393" type="line" smooth="yes"/>
      <point x="31" y="364"/>
      <point x="43" y="350"/>
      <point x="76" y="350" type="curve" smooth="yes"/>
    </contour>
    <contour>
      <point x="151" y="-219" type="line" smooth="yes"/>
      <point x="185" y="-219"/>
      <point x="196" y="-205"/>
      <point x="196" y="-176" type="curve" smooth="yes"/>
      <point x="196" y="117" type="line" smooth="yes"/>
      <point x="196" y="146"/>
      <point x="185" y="161"/>
      <point x="151" y="161" type="curve" smooth="yes"/>
      <point x="76" y="161" type="line" smooth="yes"/>
      <point x="43" y="161"/>
      <point x="31" y="146"/>
      <point x="31" y="117" type="curve" smooth="yes"/>
      <point x="31" y="-176" type="line" smooth="yes"/>
      <point x="31" y="-205"/>
      <point x="43" y="-219"/>
      <point x="76" y="-219" type="curve" smooth="yes"/>
    </contour>
  </outline>
</glyph>
<glyph name="section" format="1">
  <advance width="598"/>
  <unicode hex="00A7"/>
  <note>
	section
  </note>
  <outline>
    <contour>
      <point x="481" y="-156"/>
      <point x="567" y="-82"/>
      <point x="567" y="25" type="curve" smooth="yes"/>
      <point x="567" y="68"/>
      <point x="559" y="95"/>
      <point x="539" y="119" type="curve"/>
      <point x="559" y="144"/>
      <point x="565" y="171"/>
      <point x="565" y="199" type="curve" smooth="yes"/>
      <point x="565" y="319"/>
      <point x="460" y="362"/>
      <point x="373" y="399" type="curve" smooth="yes"/>
      <point x="279" y="438"/>
      <point x="221" y="448"/>
      <point x="221" y="505" type="curve" smooth="yes"/>
      <point x="221" y="557"/>
      <point x="259" y="576"/>
      <point x="329" y="576" type="curve" smooth="yes"/>
      <point x="393" y="576"/>
      <point x="442" y="559"/>
      <point x="477" y="536" type="curve" smooth="yes"/>
      <point x="491" y="527"/>
      <point x="497" y="527"/>
      <point x="505" y="540" type="curve" smooth="yes"/>
      <point x="546" y="605" type="line" smooth="yes"/>
      <point x="555" y="619"/>
      <point x="552" y="627"/>
      <point x="536" y="639" type="curve" smooth="yes"/>
      <point x="484" y="676"/>
      <point x="412" y="695"/>
      <point x="308" y="695" type="curve" smooth="yes"/>
      <point x="157" y="695"/>
      <point x="58" y="625"/>
      <point x="58" y="514" type="curve" smooth="yes"/>
      <point x="58" y="480"/>
      <point x="67" y="448"/>
      <point x="85" y="422" type="curve"/>
      <point x="68" y="391"/>
      <point x="61" y="363"/>
      <point x="61" y="315" type="curve" smooth="yes"/>
      <point x="61" y="217"/>
      <point x="159" y="174"/>
      <point x="247" y="134" type="curve" smooth="yes"/>
      <point x="340" y="92"/>
      <point x="402" y="83"/>
      <point x="402" y="28" type="curve" smooth="yes"/>
      <point x="402" y="-21"/>
      <point x="360" y="-37"/>
      <point x="288" y="-37" type="curve" smooth="yes"/>
      <point x="215" y="-37"/>
      <point x="156" y="-22"/>
      <point x="105" y="8" type="curve" smooth="yes"/>
      <point x="91" y="16"/>
      <point x="85" y="17"/>
      <point x="77" y="4" type="curve" smooth="yes"/>
      <point x="37" y="-60" type="line" smooth="yes"/>
      <point x="29" y="-73"/>
      <point x="30" y="-84"/>
      <point x="47" y="-95" type="curve" smooth="yes"/>
      <point x="114" y="-136"/>
      <point x="198" y="-156"/>
      <point x="307" y="-156" type="curve" smooth="yes"/>
    </contour>
    <contour>
      <point x="396" y="203"/>
      <point x="348" y="222"/>
      <point x="294" y="245" type="curve" smooth="yes"/>
      <point x="222" y="276"/>
      <point x="194" y="290"/>
      <point x="190" y="346" type="curve"/>
      <point x="190" y="350"/>
      <point x="190" y="353"/>
      <point x="192" y="356" type="curve"/>
      <point x="234" y="329"/>
      <point x="290" y="307"/>
      <point x="336" y="288" type="curve" smooth="yes"/>
      <point x="400" y="263"/>
      <point x="431" y="242"/>
      <point x="436" y="196" type="curve"/>
      <point x="437" y="190"/>
      <point x="437" y="184"/>
      <point x="436" y="180" type="curve"/>
    </contour>
  </outline>
</glyph>
<glyph name="dieresis" format="1">
  <advance width="403"/>
  <unicode hex="00A8"/>
  <note>
	dieresis
  </note>
  <outline>
    <contour>
      <point x="318" y="547" type="line" smooth="yes"/>
      <point x="351" y="547"/>
      <point x="372" y="573"/>
      <point x="372" y="604" type="curve" smooth="yes"/>
      <point x="372" y="626" type="line" smooth="yes"/>
      <point x="372" y="658"/>
      <point x="350" y="683"/>
      <point x="318" y="683" type="curve" smooth="yes"/>
      <point x="295" y="683" type="line" smooth="yes"/>
      <point x="263" y="683"/>
      <point x="241" y="658"/>
      <point x="241" y="626" type="curve" smooth="yes"/>
      <point x="241" y="604" type="line" smooth="yes"/>
      <point x="241" y="573"/>
      <point x="263" y="547"/>
      <point x="295" y="547" type="curve" smooth="yes"/>
    </contour>
    <contour>
      <point x="108" y="547" type="line" smooth="yes"/>
      <point x="141" y="547"/>
      <point x="162" y="573"/>
      <point x="162" y="604" type="curve" smooth="yes"/>
      <point x="162" y="626" type="line" smooth="yes"/>
      <point x="162" y="658"/>
      <point x="140" y="683"/>
      <point x="108" y="683" type="curve" smooth="yes"/>
      <point x="85" y="683" type="line" smooth="yes"/>
      <point x="53" y="683"/>
      <point x="31" y="658"/>
      <point x="31" y="626" type="curve" smooth="yes"/>
      <point x="31" y="604" type="line" smooth="yes"/>
      <point x="31" y="573"/>
      <point x="53" y="547"/>
      <point x="85" y="547" type="curve" smooth="yes"/>
    </contour>
  </outline>
</glyph>
<glyph name="registered" format="1">
  <advance width="784"/>
  <unicode hex="00AE"/>
  <note>
	registered
  </note>
  <outline>
    <contour>
      <point x="588" y="-15"/>
      <point x="753" y="144"/>
      <point x="753" y="340" type="curve" smooth="yes"/>
      <point x="753" y="536"/>
      <point x="588" y="695"/>
      <point x="392" y="695" type="curve" smooth="yes"/>
      <point x="196" y="695"/>
      <point x="31" y="536"/>
      <point x="31" y="340" type="curve" smooth="yes"/>
      <point x="31" y="144"/>
      <point x="196" y="-15"/>
      <point x="392" y="-15" type="curve" smooth="yes"/>
    </contour>
    <contour>
      <point x="236" y="74"/>
      <point x="128" y="185"/>
      <point x="128" y="340" type="curve" smooth="yes"/>
      <point x="128" y="494"/>
      <point x="236" y="606"/>
      <point x="392" y="606" type="curve" smooth="yes"/>
      <point x="547" y="606"/>
      <point x="655" y="494"/>
      <point x="655" y="340" type="curve" smooth="yes"/>
      <point x="655" y="185"/>
      <point x="547" y="74"/>
      <point x="392" y="74" type="curve" smooth="yes"/>
    </contour>
    <contour>
      <point x="314" y="139" type="line" smooth="yes"/>
      <point x="334" y="139"/>
      <point x="342" y="148"/>
      <point x="342" y="166" type="curve" smooth="yes"/>
      <point x="342" y="283" type="line"/>
      <point x="401" y="283" type="line"/>
      <point x="458" y="149" type="line"/>
      <point x="461" y="141"/>
      <point x="467" y="139"/>
      <point x="478" y="139" type="curve" smooth="yes"/>
      <point x="544" y="139" type="line" smooth="yes"/>
      <point x="556" y="139"/>
      <point x="560" y="147"/>
      <point x="554" y="159" type="curve" smooth="yes"/>
      <point x="490" y="296" type="line"/>
      <point x="552" y="314"/>
      <point x="576" y="357"/>
      <point x="576" y="417" type="curve" smooth="yes"/>
      <point x="576" y="505"/>
      <point x="526" y="551"/>
      <point x="423" y="551" type="curve" smooth="yes"/>
      <point x="268" y="551" type="line" smooth="yes"/>
      <point x="247" y="551"/>
      <point x="239" y="542"/>
      <point x="239" y="524" type="curve" smooth="yes"/>
      <point x="239" y="166" type="line" smooth="yes"/>
      <point x="239" y="148"/>
      <point x="247" y="139"/>
      <point x="268" y="139" type="curve" smooth="yes"/>
    </contour>
    <contour>
      <point x="342" y="476" type="line"/>
      <point x="416" y="476" type="line" smooth="yes"/>
      <point x="462" y="476"/>
      <point x="479" y="460"/>
      <point x="479" y="417" type="curve" smooth="yes"/>
      <point x="479" y="377"/>
      <point x="462" y="358"/>
      <point x="414" y="358" type="curve" smooth="yes"/>
      <point x="342" y="358" type="line"/>
    </contour>
  </outline>
</glyph>
<glyph name="twosuperior" format="1">
  <advance width="381"/>
  <unicode hex="00B2"/>
  <note>
	twosuperior
  </note>
  <outline>
    <contour>
      <point x="326" y="286" type="line" smooth="yes"/>
      <point x="344" y="286"/>
      <point x="350" y="293"/>
      <point x="350" y="310" type="curve" smooth="yes"/>
      <point x="350" y="352" type="line" smooth="yes"/>
      <point x="350" y="370"/>
      <point x="344" y="377"/>
      <point x="326" y="377" type="curve" smooth="yes"/>
      <point x="170" y="377" type="line"/>
      <point x="178" y="400"/>
      <point x="205" y="419"/>
      <point x="250" y="444" type="curve" smooth="yes"/>
      <point x="322" y="486"/>
      <point x="347" y="519"/>
      <point x="347" y="579" type="curve" smooth="yes"/>
      <point x="347" y="651"/>
      <point x="287" y="695"/>
      <point x="197" y="695" type="curve" smooth="yes"/>
      <point x="130" y="695"/>
      <point x="72" y="679"/>
      <point x="42" y="659" type="curve" smooth="yes"/>
      <point x="34" y="654"/>
      <point x="35" y="649"/>
      <point x="39" y="640" type="curve"/>
      <point x="63" y="592" type="line"/>
      <point x="68" y="584"/>
      <point x="72" y="585"/>
      <point x="81" y="589" type="curve" smooth="yes"/>
      <point x="104" y="600"/>
      <point x="134" y="611"/>
      <point x="169" y="611" type="curve" smooth="yes"/>
      <point x="210" y="611"/>
      <point x="230" y="594"/>
      <point x="230" y="567" type="curve" smooth="yes"/>
      <point x="230" y="531"/>
      <point x="215" y="520"/>
      <point x="148" y="480" type="curve" smooth="yes"/>
      <point x="70" y="431"/>
      <point x="33" y="391"/>
      <point x="33" y="341" type="curve" smooth="yes"/>
      <point x="33" y="310" type="line" smooth="yes"/>
      <point x="33" y="293"/>
      <point x="40" y="286"/>
      <point x="55" y="286" type="curve" smooth="yes"/>
    </contour>
  </outline>
</glyph>
<glyph name="threesuperior" format="1">
  <advance width="384"/>
  <unicode hex="00B3"/>
  <note>
	threesuperior
  </note>
  <outline>
    <contour>
      <point x="296" y="279"/>
      <point x="353" y="330"/>
      <point x="353" y="404" type="curve" smooth="yes"/>
      <point x="353" y="446"/>
      <point x="337" y="477"/>
      <point x="297" y="494" type="curve"/>
      <point x="330" y="514"/>
      <point x="342" y="541"/>
      <point x="342" y="578" type="curve" smooth="yes"/>
      <point x="342" y="649"/>
      <point x="282" y="695"/>
      <point x="182" y="695" type="curve" smooth="yes"/>
      <point x="125" y="695"/>
      <point x="72" y="681"/>
      <point x="42" y="660" type="curve" smooth="yes"/>
      <point x="35" y="655"/>
      <point x="36" y="649"/>
      <point x="41" y="641" type="curve"/>
      <point x="64" y="596" type="line" smooth="yes"/>
      <point x="68" y="588"/>
      <point x="72" y="589"/>
      <point x="81" y="594" type="curve"/>
      <point x="105" y="606"/>
      <point x="127" y="615"/>
      <point x="162" y="615" type="curve" smooth="yes"/>
      <point x="205" y="615"/>
      <point x="219" y="600"/>
      <point x="219" y="575" type="curve" smooth="yes"/>
      <point x="219" y="550"/>
      <point x="209" y="532"/>
      <point x="178" y="532" type="curve" smooth="yes"/>
      <point x="140" y="532" type="line" smooth="yes"/>
      <point x="120" y="532"/>
      <point x="113" y="525"/>
      <point x="113" y="508" type="curve" smooth="yes"/>
      <point x="113" y="477" type="line" smooth="yes"/>
      <point x="113" y="459"/>
      <point x="120" y="452"/>
      <point x="140" y="452" type="curve" smooth="yes"/>
      <point x="181" y="452" type="line" smooth="yes"/>
      <point x="216" y="452"/>
      <point x="231" y="439"/>
      <point x="231" y="407" type="curve" smooth="yes"/>
      <point x="231" y="374"/>
      <point x="210" y="358"/>
      <point x="159" y="358" type="curve" smooth="yes"/>
      <point x="126" y="358"/>
      <point x="99" y="368"/>
      <point x="75" y="380" type="curve" smooth="yes"/>
      <point x="67" y="384"/>
      <point x="62" y="385"/>
      <point x="58" y="377" type="curve" smooth="yes"/>
      <point x="34" y="332" type="line" smooth="yes"/>
      <point x="30" y="324"/>
      <point x="29" y="319"/>
      <point x="37" y="313" type="curve"/>
      <point x="66" y="293"/>
      <point x="126" y="279"/>
      <point x="181" y="279" type="curve" smooth="yes"/>
    </contour>
  </outline>
</glyph>
<glyph name="acute" format="1">
  <advance width="285"/>
  <unicode hex="00B4"/>
  <note>
	acute
  </note>
  <outline>
    <contour>
      <point x="130" y="557" type="line" smooth="yes"/>
      <point x="163" y="557"/>
      <point x="170" y="563"/>
      <point x="182" y="585" type="curve" smooth="yes"/>
      <point x="247" y="707" type="line" smooth="yes"/>
      <point x="261" y="733"/>
      <point x="248" y="746"/>
      <point x="221" y="746" type="curve" smooth="yes"/>
      <point x="124" y="746" type="line" smooth="yes"/>
      <point x="93" y="746"/>
      <point x="88" y="738"/>
      <point x="80" y="717" type="curve" smooth="yes"/>
      <point x="34" y="591" type="line" smooth="yes"/>
      <point x="27" y="571"/>
      <point x="33" y="557"/>
      <point x="59" y="557" type="curve" smooth="yes"/>
    </contour>
  </outline>
</glyph>
<glyph name="micro" format="1">
  <advance width="562"/>
  <unicode hex="00B5"/>
  <note>
	mu
  </note>
  <outline>
    <contour>
      <point x="131" y="-177" type="line" smooth="yes"/>
      <point x="180" y="-177"/>
      <point x="196" y="-170"/>
      <point x="196" y="-133" type="curve" smooth="yes"/>
      <point x="196" y="1" type="line"/>
      <point x="214" y="-9"/>
      <point x="248" y="-15"/>
      <point x="276" y="-15" type="curve" smooth="yes"/>
      <point x="338" y="-15"/>
      <point x="372" y="8"/>
      <point x="393" y="54" type="curve"/>
      <point x="397" y="17" type="line" smooth="yes"/>
      <point x="398" y="4"/>
      <point x="406" y="0"/>
      <point x="421" y="0" type="curve" smooth="yes"/>
      <point x="501" y="0" type="line" smooth="yes"/>
      <point x="526" y="0"/>
      <point x="531" y="7"/>
      <point x="531" y="29" type="curve" smooth="yes"/>
      <point x="531" y="436" type="line" smooth="yes"/>
      <point x="531" y="465"/>
      <point x="520" y="480"/>
      <point x="485" y="480" type="curve" smooth="yes"/>
      <point x="431" y="480" type="line" smooth="yes"/>
      <point x="382" y="480"/>
      <point x="365" y="473"/>
      <point x="365" y="436" type="curve" smooth="yes"/>
      <point x="365" y="181" type="line" smooth="yes"/>
      <point x="365" y="130"/>
      <point x="335" y="99"/>
      <point x="273" y="99" type="curve" smooth="yes"/>
      <point x="224" y="99"/>
      <point x="196" y="126"/>
      <point x="196" y="174" type="curve" smooth="yes"/>
      <point x="196" y="436" type="line" smooth="yes"/>
      <point x="196" y="466"/>
      <point x="184" y="480"/>
      <point x="151" y="480" type="curve" smooth="yes"/>
      <point x="83" y="480" type="line" smooth="yes"/>
      <point x="45" y="480"/>
      <point x="31" y="469"/>
      <point x="31" y="436" type="curve" smooth="yes"/>
      <point x="31" y="-133" type="line" smooth="yes"/>
      <point x="31" y="-162"/>
      <point x="43" y="-177"/>
      <point x="76" y="-177" type="curve" smooth="yes"/>
    </contour>
  </outline>
</glyph>
<glyph name="paragraph" format="1">
  <advance width="770"/>
  <unicode hex="00B6"/>
  <note>
	paragraph
  </note>
  <outline>
    <contour>
      <point x="364" y="-100" type="line" smooth="yes"/>
      <point x="398" y="-100"/>
      <point x="410" y="-86"/>
      <point x="410" y="-57" type="curve" smooth="yes"/>
      <point x="410" y="558" type="line"/>
      <point x="498" y="558" type="line"/>
      <point x="498" y="-57" type="line" smooth="yes"/>
      <point x="498" y="-86"/>
      <point x="510" y="-100"/>
      <point x="543" y="-100" type="curve" smooth="yes"/>
      <point x="616" y="-100" type="line" smooth="yes"/>
      <point x="650" y="-100"/>
      <point x="662" y="-86"/>
      <point x="662" y="-57" type="curve" smooth="yes"/>
      <point x="662" y="558" type="line"/>
      <point x="696" y="558" type="line" smooth="yes"/>
      <point x="729" y="558"/>
      <point x="739" y="571"/>
      <point x="739" y="600" type="curve" smooth="yes"/>
      <point x="739" y="637" type="line" smooth="yes"/>
      <point x="739" y="666"/>
      <point x="729" y="680"/>
      <point x="696" y="680" type="curve" smooth="yes"/>
      <point x="304" y="680" type="line" smooth="yes"/>
      <point x="113" y="680"/>
      <point x="31" y="611"/>
      <point x="31" y="460" type="curve" smooth="yes"/>
      <point x="31" y="330"/>
      <point x="112" y="259"/>
      <point x="245" y="259" type="curve"/>
      <point x="245" y="-57" type="line" smooth="yes"/>
      <point x="245" y="-86"/>
      <point x="257" y="-100"/>
      <point x="291" y="-100" type="curve" smooth="yes"/>
    </contour>
  </outline>
</glyph>
<glyph name="periodcentered" format="1">
  <advance width="179"/>
  <unicode hex="00B7"/>
  <note>
	periodcentered
  </note>
  <outline>
    <contour>
      <point x="100" y="259" type="line" smooth="yes"/>
      <point x="129" y="259"/>
      <point x="148" y="283"/>
      <point x="148" y="310" type="curve" smooth="yes"/>
      <point x="148" y="330" type="line" smooth="yes"/>
      <point x="148" y="358"/>
      <point x="128" y="380"/>
      <point x="100" y="380" type="curve" smooth="yes"/>
      <point x="79" y="380" type="line" smooth="yes"/>
      <point x="50" y="380"/>
      <point x="31" y="358"/>
      <point x="31" y="330" type="curve" smooth="yes"/>
      <point x="31" y="310" type="line" smooth="yes"/>
      <point x="31" y="283"/>
      <point x="50" y="259"/>
      <point x="79" y="259" type="curve" smooth="yes"/>
    </contour>
  </outline>
</glyph>
<glyph name="onesuperior" format="1">
  <advance width="354"/>
  <unicode hex="00B9"/>
  <note>
	onesuperior
  </note>
  <outline>
    <contour>
      <point x="316" y="286" type="line" smooth="yes"/>
      <point x="337" y="286"/>
      <point x="343" y="294"/>
      <point x="343" y="314" type="curve" smooth="yes"/>
      <point x="343" y="342" type="line" smooth="yes"/>
      <point x="343" y="361"/>
      <point x="337" y="370"/>
      <point x="316" y="370" type="curve" smooth="yes"/>
      <point x="258" y="370" type="line"/>
      <point x="258" y="651" type="line" smooth="yes"/>
      <point x="258" y="670"/>
      <point x="250" y="680"/>
      <point x="228" y="680" type="curve" smooth="yes"/>
      <point x="181" y="680" type="line" smooth="yes"/>
      <point x="168" y="680"/>
      <point x="163" y="678"/>
      <point x="155" y="673" type="curve" smooth="yes"/>
      <point x="40" y="603" type="line"/>
      <point x="31" y="598"/>
      <point x="28" y="592"/>
      <point x="34" y="583" type="curve" smooth="yes"/>
      <point x="64" y="538" type="line"/>
      <point x="70" y="528"/>
      <point x="78" y="528"/>
      <point x="86" y="533" type="curve" smooth="yes"/>
      <point x="140" y="567" type="line"/>
      <point x="140" y="370" type="line"/>
      <point x="82" y="370" type="line" smooth="yes"/>
      <point x="60" y="370"/>
      <point x="53" y="361"/>
      <point x="53" y="342" type="curve" smooth="yes"/>
      <point x="53" y="314" type="line" smooth="yes"/>
      <point x="53" y="294"/>
      <point x="60" y="286"/>
      <point x="82" y="286" type="curve" smooth="yes"/>
    </contour>
  </outline>
</glyph>
<glyph name="ordmasculine" format="1">
  <advance width="413"/>
  <unicode hex="00BA"/>
  <note>
	ordmasculine
  </note>
  <outline>
    <contour>
      <point x="317" y="368"/>
      <point x="382" y="430"/>
      <point x="382" y="531" type="curve" smooth="yes"/>
      <point x="382" y="633"/>
      <point x="317" y="695"/>
      <point x="206" y="695" type="curve" smooth="yes"/>
      <point x="95" y="695"/>
      <point x="31" y="633"/>
      <point x="31" y="531" type="curve" smooth="yes"/>
      <point x="31" y="430"/>
      <point x="95" y="368"/>
      <point x="206" y="368" type="curve" smooth="yes"/>
    </contour>
    <contour>
      <point x="164" y="446"/>
      <point x="137" y="474"/>
      <point x="137" y="531" type="curve" smooth="yes"/>
      <point x="137" y="590"/>
      <point x="164" y="616"/>
      <point x="206" y="616" type="curve" smooth="yes"/>
      <point x="249" y="616"/>
      <point x="276" y="590"/>
      <point x="276" y="531" type="curve" smooth="yes"/>
      <point x="276" y="474"/>
      <point x="249" y="446"/>
      <point x="206" y="446" type="curve" smooth="yes"/>
    </contour>
  </outline>
</glyph>
<glyph name="threequarters" format="1">
  <advance width="854"/>
  <unicode hex="00BE"/>
  <note>
	threequarters
  </note>
  <outline>
    <contour>
      <point x="248" y="0" type="line" smooth="yes"/>
      <point x="272" y="0"/>
      <point x="292" y="-2"/>
      <point x="303" y="16" type="curve" smooth="yes"/>
      <point x="703" y="649" type="line" smooth="yes"/>
      <point x="712" y="664"/>
      <point x="708" y="680"/>
      <point x="690" y="680" type="curve" smooth="yes"/>
      <point x="591" y="680" type="line" smooth="yes"/>
      <point x="575" y="680"/>
      <point x="567" y="673"/>
      <point x="559" y="660" type="curve" smooth="yes"/>
      <point x="162" y="31" type="line" smooth="yes"/>
      <point x="153" y="16"/>
      <point x="157" y="0"/>
      <point x="175" y="0" type="curve" smooth="yes"/>
    </contour>
    <contour>
      <point x="291" y="279"/>
      <point x="348" y="330"/>
      <point x="348" y="404" type="curve" smooth="yes"/>
      <point x="348" y="446"/>
      <point x="332" y="477"/>
      <point x="292" y="494" type="curve"/>
      <point x="325" y="514"/>
      <point x="337" y="541"/>
      <point x="337" y="578" type="curve" smooth="yes"/>
      <point x="337" y="649"/>
      <point x="277" y="695"/>
      <point x="177" y="695" type="curve" smooth="yes"/>
      <point x="120" y="695"/>
      <point x="67" y="681"/>
      <point x="37" y="660" type="curve" smooth="yes"/>
      <point x="30" y="655"/>
      <point x="31" y="649"/>
      <point x="36" y="641" type="curve"/>
      <point x="59" y="596" type="line" smooth="yes"/>
      <point x="63" y="588"/>
      <point x="67" y="589"/>
      <point x="76" y="594" type="curve"/>
      <point x="100" y="606"/>
      <point x="122" y="615"/>
      <point x="157" y="615" type="curve" smooth="yes"/>
      <point x="200" y="615"/>
      <point x="214" y="600"/>
      <point x="214" y="575" type="curve" smooth="yes"/>
      <point x="214" y="550"/>
      <point x="204" y="532"/>
      <point x="173" y="532" type="curve" smooth="yes"/>
      <point x="135" y="532" type="line" smooth="yes"/>
      <point x="115" y="532"/>
      <point x="108" y="525"/>
      <point x="108" y="508" type="curve" smooth="yes"/>
      <point x="108" y="477" type="line" smooth="yes"/>
      <point x="108" y="459"/>
      <point x="115" y="452"/>
      <point x="135" y="452" type="curve" smooth="yes"/>
      <point x="176" y="452" type="line" smooth="yes"/>
      <point x="211" y="452"/>
      <point x="226" y="439"/>
      <point x="226" y="407" type="curve" smooth="yes"/>
      <point x="226" y="374"/>
      <point x="205" y="358"/>
      <point x="154" y="358" type="curve" smooth="yes"/>
      <point x="121" y="358"/>
      <point x="94" y="368"/>
      <point x="70" y="380" type="curve" smooth="yes"/>
      <point x="62" y="384"/>
      <point x="57" y="385"/>
      <point x="53" y="377" type="curve" smooth="yes"/>
      <point x="29" y="332" type="line" smooth="yes"/>
      <point x="25" y="324"/>
      <point x="24" y="319"/>
      <point x="32" y="313" type="curve"/>
      <point x="61" y="293"/>
      <point x="121" y="279"/>
      <point x="176" y="279" type="curve" smooth="yes"/>
    </contour>
    <contour>
      <point x="715" y="0" type="line" smooth="yes"/>
      <point x="737" y="0"/>
      <point x="746" y="7"/>
      <point x="746" y="27" type="curve" smooth="yes"/>
      <point x="746" y="83" type="line"/>
      <point x="778" y="83" type="line" smooth="yes"/>
      <point x="801" y="83"/>
      <point x="806" y="87"/>
      <point x="806" y="106" type="curve" smooth="yes"/>
      <point x="806" y="138" type="line" smooth="yes"/>
      <point x="806" y="157"/>
      <point x="800" y="164"/>
      <point x="778" y="164" type="curve" smooth="yes"/>
      <point x="746" y="164" type="line"/>
      <point x="746" y="367" type="line" smooth="yes"/>
      <point x="746" y="388"/>
      <point x="742" y="394"/>
      <point x="721" y="394" type="curve" smooth="yes"/>
      <point x="660" y="394" type="line" smooth="yes"/>
      <point x="633" y="394"/>
      <point x="626" y="392"/>
      <point x="615" y="378" type="curve" smooth="yes"/>
      <point x="452" y="177" type="line" smooth="yes"/>
      <point x="437" y="158"/>
      <point x="433" y="150"/>
      <point x="433" y="127" type="curve" smooth="yes"/>
      <point x="433" y="99" type="line" smooth="yes"/>
      <point x="433" y="88"/>
      <point x="438" y="83"/>
      <point x="450" y="83" type="curve" smooth="yes"/>
      <point x="622" y="83" type="line"/>
      <point x="622" y="27" type="line" smooth="yes"/>
      <point x="622" y="7"/>
      <point x="631" y="0"/>
      <point x="653" y="0" type="curve" smooth="yes"/>
    </contour>
    <contour>
      <point x="645" y="274" type="line"/>
      <point x="645" y="164" type="line"/>
      <point x="560" y="164" type="line"/>
    </contour>
  </outline>
</glyph>
<glyph name="questiondown" format="1">
  <advance width="553"/>
  <unicode hex="00BF"/>
  <note>
	questiondown
  </note>
  <outline>
    <contour>
      <point x="382" y="-108"/>
      <point x="457" y="-86"/>
      <point x="512" y="-46" type="curve" smooth="yes"/>
      <point x="525" y="-36"/>
      <point x="524" y="-26"/>
      <point x="516" y="-12" type="curve" smooth="yes"/>
      <point x="480" y="49" type="line" smooth="yes"/>
      <point x="472" y="63"/>
      <point x="464" y="64"/>
      <point x="449" y="54" type="curve" smooth="yes"/>
      <point x="414" y="31"/>
      <point x="364" y="11"/>
      <point x="302" y="11" type="curve" smooth="yes"/>
      <point x="233" y="11"/>
      <point x="195" y="38"/>
      <point x="195" y="87" type="curve" smooth="yes"/>
      <point x="195" y="131"/>
      <point x="213" y="145"/>
      <point x="278" y="185" type="curve" smooth="yes"/>
      <point x="360" y="235"/>
      <point x="399" y="284"/>
      <point x="399" y="370" type="curve" smooth="yes"/>
      <point x="399" y="384" type="line" smooth="yes"/>
      <point x="399" y="412"/>
      <point x="387" y="427"/>
      <point x="354" y="427" type="curve" smooth="yes"/>
      <point x="279" y="427" type="line" smooth="yes"/>
      <point x="245" y="427"/>
      <point x="234" y="412"/>
      <point x="234" y="384" type="curve" smooth="yes"/>
      <point x="234" y="373" type="line" smooth="yes"/>
      <point x="234" y="322"/>
      <point x="214" y="297"/>
      <point x="149" y="260" type="curve" smooth="yes"/>
      <point x="71" y="215"/>
      <point x="31" y="171"/>
      <point x="31" y="86" type="curve" smooth="yes"/>
      <point x="31" y="-39"/>
      <point x="135" y="-108"/>
      <point x="281" y="-108" type="curve" smooth="yes"/>
    </contour>
    <contour>
      <point x="346" y="473" type="line" smooth="yes"/>
      <point x="386" y="473"/>
      <point x="406" y="491"/>
      <point x="406" y="519" type="curve" smooth="yes"/>
      <point x="406" y="541" type="line" smooth="yes"/>
      <point x="406" y="569"/>
      <point x="386" y="587"/>
      <point x="346" y="587" type="curve" smooth="yes"/>
      <point x="288" y="587" type="line" smooth="yes"/>
      <point x="247" y="587"/>
      <point x="227" y="569"/>
      <point x="227" y="541" type="curve" smooth="yes"/>
      <point x="227" y="519" type="line" smooth="yes"/>
      <point x="227" y="491"/>
      <point x="247" y="473"/>
      <point x="288" y="473" type="curve" smooth="yes"/>
    </contour>
  </outline>
</glyph>
<glyph name="Agrave" format="1">
  <advance width="740"/>
  <unicode hex="00C0"/>
  <note>
	Agrave
  </note>
  <outline>
    <contour>
      <point x="171" y="0" type="line" smooth="yes"/>
      <point x="190" y="0"/>
      <point x="197" y="6"/>
      <point x="203" y="21" type="curve" smooth="yes"/>
      <point x="248" y="139" type="line"/>
      <point x="491" y="139" type="line"/>
      <point x="537" y="21" type="line" smooth="yes"/>
      <point x="543" y="6"/>
      <point x="550" y="0"/>
      <point x="569" y="0" type="curve" smooth="yes"/>
      <point x="690" y="0" type="line" smooth="yes"/>
      <point x="709" y="0"/>
      <point x="712" y="15"/>
      <point x="705" y="33" type="curve" smooth="yes"/>
      <point x="446" y="650" type="line" smooth="yes"/>
      <point x="437" y="672"/>
      <point x="429" y="680"/>
      <point x="407" y="680" type="curve" smooth="yes"/>
      <point x="334" y="680" type="line" smooth="yes"/>
      <point x="312" y="680"/>
      <point x="303" y="672"/>
      <point x="294" y="650" type="curve" smooth="yes"/>
      <point x="35" y="33" type="line" smooth="yes"/>
      <point x="28" y="15"/>
      <point x="31" y="0"/>
      <point x="50" y="0" type="curve" smooth="yes"/>
    </contour>
    <contour>
      <point x="370" y="470" type="line"/>
      <point x="453" y="254" type="line"/>
      <point x="286" y="254" type="line"/>
    </contour>
    <contour>
      <point x="413" y="723" type="line" smooth="yes"/>
      <point x="439" y="723"/>
      <point x="446" y="737"/>
      <point x="439" y="757" type="curve" smooth="yes"/>
      <point x="393" y="883" type="line" smooth="yes"/>
      <point x="385" y="905"/>
      <point x="380" y="912"/>
      <point x="348" y="912" type="curve" smooth="yes"/>
      <point x="252" y="912" type="line" smooth="yes"/>
      <point x="225" y="912"/>
      <point x="211" y="899"/>
      <point x="225" y="873" type="curve" smooth="yes"/>
      <point x="291" y="751" type="line" smooth="yes"/>
      <point x="303" y="729"/>
      <point x="310" y="723"/>
      <point x="343" y="723" type="curve" smooth="yes"/>
    </contour>
  </outline>
</glyph>
<glyph name="Aacute" format="1">
  <advance width="740"/>
  <unicode hex="00C1"/>
  <note>
	Aacute
  </note>
  <outline>
    <contour>
      <point x="171" y="0" type="line" smooth="yes"/>
      <point x="190" y="0"/>
      <point x="197" y="6"/>
      <point x="203" y="21" type="curve" smooth="yes"/>
      <point x="248" y="139" type="line"/>
      <point x="491" y="139" type="line"/>
      <point x="537" y="21" type="line" smooth="yes"/>
      <point x="543" y="6"/>
      <point x="550" y="0"/>
      <point x="569" y="0" type="curve" smooth="yes"/>
      <point x="690" y="0" type="line" smooth="yes"/>
      <point x="709" y="0"/>
      <point x="712" y="15"/>
      <point x="705" y="33" type="curve" smooth="yes"/>
      <point x="446" y="650" type="line" smooth="yes"/>
      <point x="437" y="672"/>
      <point x="429" y="680"/>
      <point x="407" y="680" type="curve" smooth="yes"/>
      <point x="334" y="680" type="line" smooth="yes"/>
      <point x="312" y="680"/>
      <point x="303" y="672"/>
      <point x="294" y="650" type="curve" smooth="yes"/>
      <point x="35" y="33" type="line" smooth="yes"/>
      <point x="28" y="15"/>
      <point x="31" y="0"/>
      <point x="50" y="0" type="curve" smooth="yes"/>
    </contour>
    <contour>
      <point x="370" y="470" type="line"/>
      <point x="453" y="254" type="line"/>
      <point x="286" y="254" type="line"/>
    </contour>
    <contour>
      <point x="399" y="723" type="line" smooth="yes"/>
      <point x="432" y="723"/>
      <point x="440" y="729"/>
      <point x="452" y="751" type="curve" smooth="yes"/>
      <point x="517" y="873" type="line" smooth="yes"/>
      <point x="531" y="899"/>
      <point x="518" y="912"/>
      <point x="491" y="912" type="curve" smooth="yes"/>
      <point x="394" y="912" type="line" smooth="yes"/>
      <point x="363" y="912"/>
      <point x="357" y="904"/>
      <point x="349" y="883" type="curve" smooth="yes"/>
      <point x="304" y="757" type="line" smooth="yes"/>
      <point x="297" y="737"/>
      <point x="303" y="723"/>
      <point x="329" y="723" type="curve" smooth="yes"/>
    </contour>
  </outline>
</glyph>
<glyph name="Adieresis" format="1">
  <advance width="740"/>
  <unicode hex="00C4"/>
  <note>
	Adieresis
  </note>
  <outline>
    <contour>
      <point x="171" y="0" type="line" smooth="yes"/>
      <point x="190" y="0"/>
      <point x="197" y="6"/>
      <point x="203" y="21" type="curve" smooth="yes"/>
      <point x="248" y="139" type="line"/>
      <point x="491" y="139" type="line"/>
      <point x="537" y="21" type="line" smooth="yes"/>
      <point x="543" y="6"/>
      <point x="550" y="0"/>
      <point x="569" y="0" type="curve" smooth="yes"/>
      <point x="690" y="0" type="line" smooth="yes"/>
      <point x="709" y="0"/>
      <point x="712" y="15"/>
      <point x="705" y="33" type="curve" smooth="yes"/>
      <point x="446" y="650" type="line" smooth="yes"/>
      <point x="437" y="672"/>
      <point x="429" y="680"/>
      <point x="407" y="680" type="curve" smooth="yes"/>
      <point x="334" y="680" type="line" smooth="yes"/>
      <point x="312" y="680"/>
      <point x="303" y="672"/>
      <point x="294" y="650" type="curve" smooth="yes"/>
      <point x="35" y="33" type="line" smooth="yes"/>
      <point x="28" y="15"/>
      <point x="31" y="0"/>
      <point x="50" y="0" type="curve" smooth="yes"/>
    </contour>
    <contour>
      <point x="370" y="470" type="line"/>
      <point x="453" y="254" type="line"/>
      <point x="286" y="254" type="line"/>
    </contour>
    <contour>
      <point x="279" y="717" type="line" smooth="yes"/>
      <point x="312" y="717"/>
      <point x="333" y="743"/>
      <point x="333" y="774" type="curve" smooth="yes"/>
      <point x="333" y="796" type="line" smooth="yes"/>
      <point x="333" y="828"/>
      <point x="311" y="853"/>
      <point x="279" y="853" type="curve" smooth="yes"/>
      <point x="256" y="853" type="line" smooth="yes"/>
      <point x="224" y="853"/>
      <point x="202" y="828"/>
      <point x="202" y="796" type="curve" smooth="yes"/>
      <point x="202" y="774" type="line" smooth="yes"/>
      <point x="202" y="743"/>
      <point x="224" y="717"/>
      <point x="256" y="717" type="curve" smooth="yes"/>
    </contour>
    <contour>
      <point x="485" y="717" type="line" smooth="yes"/>
      <point x="518" y="717"/>
      <point x="539" y="743"/>
      <point x="539" y="774" type="curve" smooth="yes"/>
      <point x="539" y="796" type="line" smooth="yes"/>
      <point x="539" y="828"/>
      <point x="517" y="853"/>
      <point x="485" y="853" type="curve" smooth="yes"/>
      <point x="461" y="853" type="line" smooth="yes"/>
      <point x="430" y="853"/>
      <point x="407" y="828"/>
      <point x="407" y="796" type="curve" smooth="yes"/>
      <point x="407" y="774" type="line" smooth="yes"/>
      <point x="407" y="743"/>
      <point x="430" y="717"/>
      <point x="461" y="717" type="curve" smooth="yes"/>
    </contour>
  </outline>
</glyph>
<glyph name="Aring" format="1">
  <advance width="740"/>
  <unicode hex="00C5"/>
  <note>
	Aring
  </note>
  <outline>
    <contour>
      <point x="171" y="0" type="line" smooth="yes"/>
      <point x="190" y="0"/>
      <point x="197" y="6"/>
      <point x="203" y="21" type="curve" smooth="yes"/>
      <point x="248" y="139" type="line"/>
      <point x="491" y="139" type="line"/>
      <point x="537" y="21" type="line" smooth="yes"/>
      <point x="543" y="6"/>
      <point x="550" y="0"/>
      <point x="569" y="0" type="curve" smooth="yes"/>
      <point x="690" y="0" type="line" smooth="yes"/>
      <point x="709" y="0"/>
      <point x="712" y="15"/>
      <point x="705" y="33" type="curve" smooth="yes"/>
      <point x="446" y="650" type="line" smooth="yes"/>
      <point x="437" y="672"/>
      <point x="429" y="680"/>
      <point x="407" y="680" type="curve" smooth="yes"/>
      <point x="334" y="680" type="line" smooth="yes"/>
      <point x="312" y="680"/>
      <point x="303" y="672"/>
      <point x="294" y="650" type="curve" smooth="yes"/>
      <point x="35" y="33" type="line" smooth="yes"/>
      <point x="28" y="15"/>
      <point x="31" y="0"/>
      <point x="50" y="0" type="curve" smooth="yes"/>
    </contour>
    <contour>
      <point x="370" y="470" type="line"/>
      <point x="453" y="254" type="line"/>
      <point x="286" y="254" type="line"/>
    </contour>
    <contour>
      <point x="437" y="635"/>
      <point x="491" y="688"/>
      <point x="491" y="755" type="curve" smooth="yes"/>
      <point x="491" y="822"/>
      <point x="437" y="876"/>
      <point x="370" y="876" type="curve" smooth="yes"/>
      <point x="303" y="876"/>
      <point x="250" y="822"/>
      <point x="250" y="755" type="curve" smooth="yes"/>
      <point x="250" y="688"/>
      <point x="303" y="635"/>
      <point x="370" y="635" type="curve" smooth="yes"/>
    </contour>
    <contour>
      <point x="344" y="709"/>
      <point x="324" y="729"/>
      <point x="324" y="755" type="curve" smooth="yes"/>
      <point x="324" y="780"/>
      <point x="344" y="801"/>
      <point x="370" y="801" type="curve" smooth="yes"/>
      <point x="395" y="801"/>
      <point x="416" y="780"/>
      <point x="416" y="755" type="curve" smooth="yes"/>
      <point x="416" y="729"/>
      <point x="395" y="709"/>
      <point x="370" y="709" type="curve" smooth="yes"/>
    </contour>
  </outline>
</glyph>
<glyph name="Ecircumflex" format="1">
  <advance width="574"/>
  <unicode hex="00CA"/>
  <note>
	Ecircumflex
  </note>
  <outline>
    <contour>
      <point x="510" y="0" type="line" smooth="yes"/>
      <point x="543" y="0"/>
      <point x="552" y="13"/>
      <point x="552" y="42" type="curve" smooth="yes"/>
      <point x="552" y="78" type="line" smooth="yes"/>
      <point x="552" y="108"/>
      <point x="543" y="121"/>
      <point x="510" y="121" type="curve" smooth="yes"/>
      <point x="216" y="121" type="line"/>
      <point x="216" y="280" type="line"/>
      <point x="422" y="280" type="line" smooth="yes"/>
      <point x="455" y="280"/>
      <point x="464" y="294"/>
      <point x="464" y="323" type="curve" smooth="yes"/>
      <point x="464" y="358" type="line" smooth="yes"/>
      <point x="464" y="387"/>
      <point x="455" y="400"/>
      <point x="422" y="400" type="curve" smooth="yes"/>
      <point x="216" y="400" type="line"/>
      <point x="216" y="558" type="line"/>
      <point x="511" y="558" type="line" smooth="yes"/>
      <point x="544" y="558"/>
      <point x="553" y="572"/>
      <point x="553" y="601" type="curve" smooth="yes"/>
      <point x="553" y="638" type="line" smooth="yes"/>
      <point x="553" y="667"/>
      <point x="544" y="680"/>
      <point x="511" y="680" type="curve" smooth="yes"/>
      <point x="96" y="680" type="line" smooth="yes"/>
      <point x="63" y="680"/>
      <point x="51" y="665"/>
      <point x="51" y="636" type="curve" smooth="yes"/>
      <point x="51" y="43" type="line" smooth="yes"/>
      <point x="51" y="14"/>
      <point x="63" y="0"/>
      <point x="96" y="0" type="curve" smooth="yes"/>
    </contour>
    <contour>
      <point x="193" y="746" type="line" smooth="yes"/>
      <point x="222" y="746"/>
      <point x="230" y="753"/>
      <point x="241" y="770" type="curve" smooth="yes"/>
      <point x="300" y="858" type="line"/>
      <point x="359" y="770" type="line" smooth="yes"/>
      <point x="370" y="753"/>
      <point x="378" y="746"/>
      <point x="407" y="746" type="curve" smooth="yes"/>
      <point x="468" y="746" type="line" smooth="yes"/>
      <point x="494" y="746"/>
      <point x="503" y="762"/>
      <point x="485" y="786" type="curve" smooth="yes"/>
      <point x="385" y="919" type="line" smooth="yes"/>
      <point x="372" y="936"/>
      <point x="368" y="943"/>
      <point x="339" y="943" type="curve" smooth="yes"/>
      <point x="260" y="943" type="line" smooth="yes"/>
      <point x="231" y="943"/>
      <point x="228" y="936"/>
      <point x="214" y="919" type="curve"/>
      <point x="114" y="786" type="line" smooth="yes"/>
      <point x="96" y="762"/>
      <point x="106" y="746"/>
      <point x="132" y="746" type="curve" smooth="yes"/>
    </contour>
  </outline>
</glyph>
<glyph name="Iacute" format="1">
  <advance width="290"/>
  <unicode hex="00CD"/>
  <note>
	Iacute
  </note>
  <outline>
    <contour>
      <point x="183" y="0" type="line" smooth="yes"/>
      <point x="217" y="0"/>
      <point x="228" y="14"/>
      <point x="228" y="43" type="curve" smooth="yes"/>
      <point x="228" y="636" type="line" smooth="yes"/>
      <point x="228" y="665"/>
      <point x="217" y="680"/>
      <point x="183" y="680" type="curve" smooth="yes"/>
      <point x="108" y="680" type="line" smooth="yes"/>
      <point x="75" y="680"/>
      <point x="63" y="665"/>
      <point x="63" y="636" type="curve" smooth="yes"/>
      <point x="63" y="43" type="line" smooth="yes"/>
      <point x="63" y="14"/>
      <point x="75" y="0"/>
      <point x="108" y="0" type="curve" smooth="yes"/>
    </contour>
    <contour>
      <point x="168" y="747" type="line" smooth="yes"/>
      <point x="201" y="747"/>
      <point x="209" y="753"/>
      <point x="221" y="775" type="curve" smooth="yes"/>
      <point x="286" y="897" type="line" smooth="yes"/>
      <point x="300" y="923"/>
      <point x="287" y="936"/>
      <point x="260" y="936" type="curve" smooth="yes"/>
      <point x="163" y="936" type="line" smooth="yes"/>
      <point x="132" y="936"/>
      <point x="126" y="928"/>
      <point x="118" y="907" type="curve" smooth="yes"/>
      <point x="73" y="781" type="line" smooth="yes"/>
      <point x="66" y="761"/>
      <point x="72" y="747"/>
      <point x="98" y="747" type="curve" smooth="yes"/>
    </contour>
  </outline>
</glyph>
<glyph name="Icircumflex" format="1">
  <advance width="289"/>
  <unicode hex="00CE"/>
  <note>
	Icircumflex
  </note>
  <outline>
    <contour>
      <point x="183" y="0" type="line" smooth="yes"/>
      <point x="217" y="0"/>
      <point x="228" y="14"/>
      <point x="228" y="43" type="curve" smooth="yes"/>
      <point x="228" y="636" type="line" smooth="yes"/>
      <point x="228" y="665"/>
      <point x="217" y="680"/>
      <point x="183" y="680" type="curve" smooth="yes"/>
      <point x="108" y="680" type="line" smooth="yes"/>
      <point x="75" y="680"/>
      <point x="63" y="665"/>
      <point x="63" y="636" type="curve" smooth="yes"/>
      <point x="63" y="43" type="line" smooth="yes"/>
      <point x="63" y="14"/>
      <point x="75" y="0"/>
      <point x="108" y="0" type="curve" smooth="yes"/>
    </contour>
    <contour>
      <point x="38" y="753" type="line" smooth="yes"/>
      <point x="67" y="753"/>
      <point x="75" y="760"/>
      <point x="86" y="777" type="curve" smooth="yes"/>
      <point x="145" y="865" type="line"/>
      <point x="204" y="777" type="line" smooth="yes"/>
      <point x="215" y="760"/>
      <point x="223" y="753"/>
      <point x="252" y="753" type="curve" smooth="yes"/>
      <point x="313" y="753" type="line" smooth="yes"/>
      <point x="339" y="753"/>
      <point x="348" y="769"/>
      <point x="330" y="793" type="curve" smooth="yes"/>
      <point x="230" y="926" type="line" smooth="yes"/>
      <point x="217" y="943"/>
      <point x="213" y="950"/>
      <point x="184" y="950" type="curve" smooth="yes"/>
      <point x="105" y="950" type="line" smooth="yes"/>
      <point x="76" y="950"/>
      <point x="73" y="943"/>
      <point x="59" y="926" type="curve"/>
      <point x="-41" y="793" type="line" smooth="yes"/>
      <point x="-59" y="769"/>
      <point x="-49" y="753"/>
      <point x="-23" y="753" type="curve" smooth="yes"/>
    </contour>
  </outline>
</glyph>
<glyph name="Ntilde" format="1">
  <advance width="699"/>
  <unicode hex="00D1"/>
  <note>
	Ntilde
  </note>
  <outline>
    <contour>
      <point x="171" y="0" type="line" smooth="yes"/>
      <point x="205" y="0"/>
      <point x="216" y="14"/>
      <point x="216" y="43" type="curve" smooth="yes"/>
      <point x="216" y="416" type="line"/>
      <point x="497" y="22" type="line" smooth="yes"/>
      <point x="510" y="4"/>
      <point x="519" y="0"/>
      <point x="540" y="0" type="curve" smooth="yes"/>
      <point x="603" y="0" type="line" smooth="yes"/>
      <point x="637" y="0"/>
      <point x="648" y="14"/>
      <point x="648" y="43" type="curve" smooth="yes"/>
      <point x="648" y="636" type="line" smooth="yes"/>
      <point x="648" y="665"/>
      <point x="637" y="680"/>
      <point x="603" y="680" type="curve" smooth="yes"/>
      <point x="528" y="680" type="line" smooth="yes"/>
      <point x="495" y="680"/>
      <point x="483" y="665"/>
      <point x="483" y="636" type="curve" smooth="yes"/>
      <point x="483" y="263" type="line"/>
      <point x="203" y="658" type="line" smooth="yes"/>
      <point x="190" y="676"/>
      <point x="181" y="680"/>
      <point x="159" y="680" type="curve" smooth="yes"/>
      <point x="97" y="680" type="line" smooth="yes"/>
      <point x="63" y="680"/>
      <point x="51" y="666"/>
      <point x="51" y="637" type="curve" smooth="yes"/>
      <point x="51" y="43" type="line" smooth="yes"/>
      <point x="51" y="14"/>
      <point x="63" y="0"/>
      <point x="96" y="0" type="curve" smooth="yes"/>
    </contour>
    <contour>
      <point x="502" y="754"/>
      <point x="534" y="779"/>
      <point x="569" y="831" type="curve" smooth="yes"/>
      <point x="588" y="858"/>
      <point x="585" y="872"/>
      <point x="554" y="896" type="curve" smooth="yes"/>
      <point x="522" y="920"/>
      <point x="504" y="924"/>
      <point x="489" y="905" type="curve" smooth="yes"/>
      <point x="468" y="879"/>
      <point x="456" y="870"/>
      <point x="430" y="870" type="curve" smooth="yes"/>
      <point x="378" y="870"/>
      <point x="339" y="921"/>
      <point x="259" y="921" type="curve" smooth="yes"/>
      <point x="205" y="921"/>
      <point x="174" y="892"/>
      <point x="141" y="848" type="curve" smooth="yes"/>
      <point x="122" y="822"/>
      <point x="125" y="808"/>
      <point x="154" y="785" type="curve" smooth="yes"/>
      <point x="185" y="760"/>
      <point x="203" y="755"/>
      <point x="218" y="773" type="curve" smooth="yes"/>
      <point x="238" y="796"/>
      <point x="250" y="805"/>
      <point x="276" y="805" type="curve" smooth="yes"/>
      <point x="328" y="805"/>
      <point x="378" y="754"/>
      <point x="443" y="754" type="curve" smooth="yes"/>
    </contour>
  </outline>
</glyph>
<glyph name="Ocircumflex" format="1">
  <advance width="759"/>
  <unicode hex="00D4"/>
  <note>
	Ocircumflex
  </note>
  <outline>
    <contour>
      <point x="607" y="-15"/>
      <point x="728" y="116"/>
      <point x="728" y="340" type="curve" smooth="yes"/>
      <point x="728" y="564"/>
      <point x="607" y="695"/>
      <point x="380" y="695" type="curve" smooth="yes"/>
      <point x="152" y="695"/>
      <point x="31" y="564"/>
      <point x="31" y="340" type="curve" smooth="yes"/>
      <point x="31" y="116"/>
      <point x="152" y="-15"/>
      <point x="380" y="-15" type="curve" smooth="yes"/>
    </contour>
    <contour>
      <point x="257" y="104"/>
      <point x="195" y="185"/>
      <point x="195" y="340" type="curve" smooth="yes"/>
      <point x="195" y="495"/>
      <point x="257" y="576"/>
      <point x="380" y="576" type="curve" smooth="yes"/>
      <point x="502" y="576"/>
      <point x="564" y="495"/>
      <point x="564" y="340" type="curve" smooth="yes"/>
      <point x="564" y="185"/>
      <point x="502" y="104"/>
      <point x="380" y="104" type="curve" smooth="yes"/>
    </contour>
    <contour>
      <point x="273" y="746" type="line" smooth="yes"/>
      <point x="302" y="746"/>
      <point x="310" y="753"/>
      <point x="321" y="770" type="curve" smooth="yes"/>
      <point x="380" y="858" type="line"/>
      <point x="439" y="770" type="line" smooth="yes"/>
      <point x="450" y="753"/>
      <point x="458" y="746"/>
      <point x="487" y="746" type="curve" smooth="yes"/>
      <point x="548" y="746" type="line" smooth="yes"/>
      <point x="574" y="746"/>
      <point x="583" y="762"/>
      <point x="565" y="786" type="curve" smooth="yes"/>
      <point x="465" y="919" type="line" smooth="yes"/>
      <point x="452" y="936"/>
      <point x="448" y="943"/>
      <point x="419" y="943" type="curve" smooth="yes"/>
      <point x="340" y="943" type="line" smooth="yes"/>
      <point x="311" y="943"/>
      <point x="308" y="936"/>
      <point x="294" y="919" type="curve"/>
      <point x="194" y="786" type="line" smooth="yes"/>
      <point x="176" y="762"/>
      <point x="186" y="746"/>
      <point x="212" y="746" type="curve" smooth="yes"/>
    </contour>
  </outline>
</glyph>
<glyph name="Odieresis" format="1">
  <advance width="759"/>
  <unicode hex="00D6"/>
  <note>
	Odieresis
  </note>
  <outline>
    <contour>
      <point x="607" y="-15"/>
      <point x="728" y="116"/>
      <point x="728" y="340" type="curve" smooth="yes"/>
      <point x="728" y="564"/>
      <point x="607" y="695"/>
      <point x="380" y="695" type="curve" smooth="yes"/>
      <point x="152" y="695"/>
      <point x="31" y="564"/>
      <point x="31" y="340" type="curve" smooth="yes"/>
      <point x="31" y="116"/>
      <point x="152" y="-15"/>
      <point x="380" y="-15" type="curve" smooth="yes"/>
    </contour>
    <contour>
      <point x="257" y="104"/>
      <point x="195" y="185"/>
      <point x="195" y="340" type="curve" smooth="yes"/>
      <point x="195" y="495"/>
      <point x="257" y="576"/>
      <point x="380" y="576" type="curve" smooth="yes"/>
      <point x="502" y="576"/>
      <point x="564" y="495"/>
      <point x="564" y="340" type="curve" smooth="yes"/>
      <point x="564" y="185"/>
      <point x="502" y="104"/>
      <point x="380" y="104" type="curve" smooth="yes"/>
    </contour>
    <contour>
      <point x="288" y="731" type="line" smooth="yes"/>
      <point x="321" y="731"/>
      <point x="342" y="757"/>
      <point x="342" y="788" type="curve" smooth="yes"/>
      <point x="342" y="810" type="line" smooth="yes"/>
      <point x="342" y="842"/>
      <point x="320" y="867"/>
      <point x="288" y="867" type="curve" smooth="yes"/>
      <point x="265" y="867" type="line" smooth="yes"/>
      <point x="233" y="867"/>
      <point x="211" y="842"/>
      <point x="211" y="810" type="curve" smooth="yes"/>
      <point x="211" y="788" type="line" smooth="yes"/>
      <point x="211" y="757"/>
      <point x="233" y="731"/>
      <point x="265" y="731" type="curve" smooth="yes"/>
    </contour>
    <contour>
      <point x="494" y="731" type="line" smooth="yes"/>
      <point x="527" y="731"/>
      <point x="548" y="757"/>
      <point x="548" y="788" type="curve" smooth="yes"/>
      <point x="548" y="810" type="line" smooth="yes"/>
      <point x="548" y="842"/>
      <point x="526" y="867"/>
      <point x="494" y="867" type="curve" smooth="yes"/>
      <point x="470" y="867" type="line" smooth="yes"/>
      <point x="439" y="867"/>
      <point x="416" y="842"/>
      <point x="416" y="810" type="curve" smooth="yes"/>
      <point x="416" y="788" type="line" smooth="yes"/>
      <point x="416" y="757"/>
      <point x="439" y="731"/>
      <point x="470" y="731" type="curve" smooth="yes"/>
    </contour>
  </outline>
</glyph>
<glyph name="Ucircumflex" format="1">
  <advance width="716"/>
  <unicode hex="00DB"/>
  <note>
	Ucircumflex
  </note>
  <outline>
    <contour>
      <point x="542" y="-15"/>
      <point x="670" y="82"/>
      <point x="670" y="243" type="curve" smooth="yes"/>
      <point x="670" y="636" type="line" smooth="yes"/>
      <point x="670" y="665"/>
      <point x="658" y="680"/>
      <point x="624" y="680" type="curve" smooth="yes"/>
      <point x="549" y="680" type="line" smooth="yes"/>
      <point x="516" y="680"/>
      <point x="504" y="665"/>
      <point x="504" y="636" type="curve" smooth="yes"/>
      <point x="504" y="240" type="line" smooth="yes"/>
      <point x="504" y="153"/>
      <point x="450" y="104"/>
      <point x="358" y="104" type="curve" smooth="yes"/>
      <point x="266" y="104"/>
      <point x="211" y="153"/>
      <point x="211" y="240" type="curve" smooth="yes"/>
      <point x="211" y="636" type="line" smooth="yes"/>
      <point x="211" y="665"/>
      <point x="200" y="680"/>
      <point x="166" y="680" type="curve" smooth="yes"/>
      <point x="91" y="680" type="line" smooth="yes"/>
      <point x="58" y="680"/>
      <point x="46" y="665"/>
      <point x="46" y="636" type="curve" smooth="yes"/>
      <point x="46" y="243" type="line" smooth="yes"/>
      <point x="46" y="82"/>
      <point x="173" y="-15"/>
      <point x="358" y="-15" type="curve" smooth="yes"/>
    </contour>
    <contour>
      <point x="251" y="746" type="line" smooth="yes"/>
      <point x="280" y="746"/>
      <point x="288" y="753"/>
      <point x="299" y="770" type="curve" smooth="yes"/>
      <point x="358" y="858" type="line"/>
      <point x="417" y="770" type="line" smooth="yes"/>
      <point x="428" y="753"/>
      <point x="436" y="746"/>
      <point x="465" y="746" type="curve" smooth="yes"/>
      <point x="526" y="746" type="line" smooth="yes"/>
      <point x="552" y="746"/>
      <point x="561" y="762"/>
      <point x="543" y="786" type="curve" smooth="yes"/>
      <point x="443" y="919" type="line" smooth="yes"/>
      <point x="430" y="936"/>
      <point x="426" y="943"/>
      <point x="397" y="943" type="curve" smooth="yes"/>
      <point x="318" y="943" type="line" smooth="yes"/>
      <point x="289" y="943"/>
      <point x="286" y="936"/>
      <point x="272" y="919" type="curve"/>
      <point x="172" y="786" type="line" smooth="yes"/>
      <point x="154" y="762"/>
      <point x="164" y="746"/>
      <point x="190" y="746" type="curve" smooth="yes"/>
    </contour>
  </outline>
</glyph>
<glyph name="Udieresis" format="1">
  <advance width="716"/>
  <unicode hex="00DC"/>
  <note>
	Udieresis
  </note>
  <outline>
    <contour>
      <point x="542" y="-15"/>
      <point x="670" y="82"/>
      <point x="670" y="243" type="curve" smooth="yes"/>
      <point x="670" y="636" type="line" smooth="yes"/>
      <point x="670" y="665"/>
      <point x="658" y="680"/>
      <point x="624" y="680" type="curve" smooth="yes"/>
      <point x="549" y="680" type="line" smooth="yes"/>
      <point x="516" y="680"/>
      <point x="504" y="665"/>
      <point x="504" y="636" type="curve" smooth="yes"/>
      <point x="504" y="240" type="line" smooth="yes"/>
      <point x="504" y="153"/>
      <point x="450" y="104"/>
      <point x="358" y="104" type="curve" smooth="yes"/>
      <point x="266" y="104"/>
      <point x="211" y="153"/>
      <point x="211" y="240" type="curve" smooth="yes"/>
      <point x="211" y="636" type="line" smooth="yes"/>
      <point x="211" y="665"/>
      <point x="200" y="680"/>
      <point x="166" y="680" type="curve" smooth="yes"/>
      <point x="91" y="680" type="line" smooth="yes"/>
      <point x="58" y="680"/>
      <point x="46" y="665"/>
      <point x="46" y="636" type="curve" smooth="yes"/>
      <point x="46" y="243" type="line" smooth="yes"/>
      <point x="46" y="82"/>
      <point x="173" y="-15"/>
      <point x="358" y="-15" type="curve" smooth="yes"/>
    </contour>
    <contour>
      <point x="267" y="731" type="line" smooth="yes"/>
      <point x="300" y="731"/>
      <point x="321" y="757"/>
      <point x="321" y="788" type="curve" smooth="yes"/>
      <point x="321" y="810" type="line" smooth="yes"/>
      <point x="321" y="842"/>
      <point x="299" y="867"/>
      <point x="267" y="867" type="curve" smooth="yes"/>
      <point x="244" y="867" type="line" smooth="yes"/>
      <point x="212" y="867"/>
      <point x="190" y="842"/>
      <point x="190" y="810" type="curve" smooth="yes"/>
      <point x="190" y="788" type="line" smooth="yes"/>
      <point x="190" y="757"/>
      <point x="212" y="731"/>
      <point x="244" y="731" type="curve" smooth="yes"/>
    </contour>
    <contour>
      <point x="473" y="731" type="line" smooth="yes"/>
      <point x="506" y="731"/>
      <point x="527" y="757"/>
      <point x="527" y="788" type="curve" smooth="yes"/>
      <point x="527" y="810" type="line" smooth="yes"/>
      <point x="527" y="842"/>
      <point x="505" y="867"/>
      <point x="473" y="867" type="curve" smooth="yes"/>
      <point x="449" y="867" type="line" smooth="yes"/>
      <point x="418" y="867"/>
      <point x="395" y="842"/>
      <point x="395" y="810" type="curve" smooth="yes"/>
      <point x="395" y="788" type="line" smooth="yes"/>
      <point x="395" y="757"/>
      <point x="418" y="731"/>
      <point x="449" y="731" type="curve" smooth="yes"/>
    </contour>
  </outline>
</glyph>
<glyph name="germandbls" format="1">
  <advance width="654"/>
  <unicode hex="00DF"/>
  <note>
	germandbls
  </note>
  <outline>
    <contour>
      <point x="549" y="-15"/>
      <point x="623" y="63"/>
      <point x="623" y="191" type="curve" smooth="yes"/>
      <point x="623" y="267"/>
      <point x="594" y="330"/>
      <point x="520" y="355" type="curve"/>
      <point x="573" y="377"/>
      <point x="604" y="436"/>
      <point x="604" y="507" type="curve" smooth="yes"/>
      <point x="604" y="635"/>
      <point x="520" y="720"/>
      <point x="327" y="720" type="curve" smooth="yes"/>
      <point x="126" y="720"/>
      <point x="46" y="620"/>
      <point x="46" y="482" type="curve" smooth="yes"/>
      <point x="46" y="43" type="line" smooth="yes"/>
      <point x="46" y="13"/>
      <point x="58" y="0"/>
      <point x="93" y="0" type="curve" smooth="yes"/>
      <point x="165" y="0" type="line" smooth="yes"/>
      <point x="199" y="0"/>
      <point x="211" y="14"/>
      <point x="211" y="43" type="curve" smooth="yes"/>
      <point x="211" y="489" type="line" smooth="yes"/>
      <point x="211" y="561"/>
      <point x="248" y="601"/>
      <point x="327" y="601" type="curve" smooth="yes"/>
      <point x="408" y="601"/>
      <point x="440" y="574"/>
      <point x="440" y="499" type="curve" smooth="yes"/>
      <point x="440" y="424"/>
      <point x="398" y="407"/>
      <point x="315" y="407" type="curve" smooth="yes"/>
      <point x="289" y="407"/>
      <point x="279" y="400"/>
      <point x="279" y="377" type="curve" smooth="yes"/>
      <point x="279" y="326" type="line" smooth="yes"/>
      <point x="279" y="303"/>
      <point x="293" y="295"/>
      <point x="318" y="295" type="curve" smooth="yes"/>
      <point x="403" y="295"/>
      <point x="452" y="284"/>
      <point x="452" y="203" type="curve" smooth="yes"/>
      <point x="452" y="146"/>
      <point x="429" y="105"/>
      <point x="370" y="107" type="curve" smooth="yes"/>
      <point x="344" y="107"/>
      <point x="322" y="114"/>
      <point x="306" y="125" type="curve" smooth="yes"/>
      <point x="297" y="131"/>
      <point x="290" y="130"/>
      <point x="284" y="120" type="curve" smooth="yes"/>
      <point x="244" y="52" type="line" smooth="yes"/>
      <point x="238" y="41"/>
      <point x="241" y="32"/>
      <point x="249" y="26" type="curve"/>
      <point x="291" y="-3"/>
      <point x="350" y="-15"/>
      <point x="413" y="-15" type="curve" smooth="yes"/>
    </contour>
  </outline>
</glyph>
<glyph name="aacute" format="1">
  <advance width="617"/>
  <unicode hex="00E1"/>
  <note>
	aacute
  </note>
  <outline>
    <contour>
      <point x="323" y="-15"/>
      <point x="379" y="5"/>
      <point x="419" y="52" type="curve"/>
      <point x="430" y="17" type="line" smooth="yes"/>
      <point x="434" y="5"/>
      <point x="440" y="0"/>
      <point x="455" y="0" type="curve" smooth="yes"/>
      <point x="534" y="0" type="line" smooth="yes"/>
      <point x="559" y="0"/>
      <point x="566" y="7"/>
      <point x="566" y="29" type="curve" smooth="yes"/>
      <point x="566" y="433" type="line"/>
      <point x="510" y="470"/>
      <point x="441" y="495"/>
      <point x="341" y="495" type="curve" smooth="yes"/>
      <point x="156" y="495"/>
      <point x="31" y="384"/>
      <point x="31" y="214" type="curve" smooth="yes"/>
      <point x="31" y="66"/>
      <point x="116" y="-15"/>
      <point x="242" y="-15" type="curve" smooth="yes"/>
    </contour>
    <contour>
      <point x="231" y="99"/>
      <point x="195" y="136"/>
      <point x="195" y="217" type="curve" smooth="yes"/>
      <point x="195" y="322"/>
      <point x="253" y="382"/>
      <point x="340" y="382" type="curve" smooth="yes"/>
      <point x="367" y="382"/>
      <point x="392" y="377"/>
      <point x="412" y="367" type="curve"/>
      <point x="412" y="192" type="line" smooth="yes"/>
      <point x="412" y="132"/>
      <point x="358" y="99"/>
      <point x="303" y="99" type="curve" smooth="yes"/>
    </contour>
    <contour>
      <point x="351" y="545" type="line" smooth="yes"/>
      <point x="384" y="545"/>
      <point x="392" y="551"/>
      <point x="404" y="573" type="curve" smooth="yes"/>
      <point x="469" y="695" type="line" smooth="yes"/>
      <point x="483" y="721"/>
      <point x="470" y="734"/>
      <point x="443" y="734" type="curve" smooth="yes"/>
      <point x="346" y="734" type="line" smooth="yes"/>
      <point x="315" y="734"/>
      <point x="309" y="726"/>
      <point x="301" y="705" type="curve" smooth="yes"/>
      <point x="256" y="579" type="line" smooth="yes"/>
      <point x="249" y="559"/>
      <point x="255" y="545"/>
      <point x="281" y="545" type="curve" smooth="yes"/>
    </contour>
  </outline>
</glyph>
<glyph name="acircumflex" format="1">
  <advance width="617"/>
  <unicode hex="00E2"/>
  <note>
	acircumflex
  </note>
  <outline>
    <contour>
      <point x="323" y="-15"/>
      <point x="379" y="5"/>
      <point x="419" y="52" type="curve"/>
      <point x="430" y="17" type="line" smooth="yes"/>
      <point x="434" y="5"/>
      <point x="440" y="0"/>
      <point x="455" y="0" type="curve" smooth="yes"/>
      <point x="534" y="0" type="line" smooth="yes"/>
      <point x="559" y="0"/>
      <point x="566" y="7"/>
      <point x="566" y="29" type="curve" smooth="yes"/>
      <point x="566" y="433" type="line"/>
      <point x="510" y="470"/>
      <point x="441" y="495"/>
      <point x="341" y="495" type="curve" smooth="yes"/>
      <point x="156" y="495"/>
      <point x="31" y="384"/>
      <point x="31" y="214" type="curve" smooth="yes"/>
      <point x="31" y="66"/>
      <point x="116" y="-15"/>
      <point x="242" y="-15" type="curve" smooth="yes"/>
    </contour>
    <contour>
      <point x="231" y="99"/>
      <point x="195" y="136"/>
      <point x="195" y="217" type="curve" smooth="yes"/>
      <point x="195" y="322"/>
      <point x="253" y="382"/>
      <point x="340" y="382" type="curve" smooth="yes"/>
      <point x="367" y="382"/>
      <point x="392" y="377"/>
      <point x="412" y="367" type="curve"/>
      <point x="412" y="192" type="line" smooth="yes"/>
      <point x="412" y="132"/>
      <point x="358" y="99"/>
      <point x="303" y="99" type="curve" smooth="yes"/>
    </contour>
    <contour>
      <point x="222" y="544" type="line" smooth="yes"/>
      <point x="251" y="544"/>
      <point x="259" y="551"/>
      <point x="270" y="568" type="curve" smooth="yes"/>
      <point x="329" y="656" type="line"/>
      <point x="388" y="568" type="line" smooth="yes"/>
      <point x="399" y="551"/>
      <point x="407" y="544"/>
      <point x="436" y="544" type="curve" smooth="yes"/>
      <point x="497" y="544" type="line" smooth="yes"/>
      <point x="523" y="544"/>
      <point x="532" y="560"/>
      <point x="514" y="584" type="curve" smooth="yes"/>
      <point x="414" y="717" type="line" smooth="yes"/>
      <point x="401" y="734"/>
      <point x="397" y="741"/>
      <point x="368" y="741" type="curve" smooth="yes"/>
      <point x="289" y="741" type="line" smooth="yes"/>
      <point x="260" y="741"/>
      <point x="257" y="734"/>
      <point x="243" y="717" type="curve"/>
      <point x="143" y="584" type="line" smooth="yes"/>
      <point x="125" y="560"/>
      <point x="135" y="544"/>
      <point x="161" y="544" type="curve" smooth="yes"/>
    </contour>
  </outline>
</glyph>
<glyph name="atilde" format="1">
  <advance width="626"/>
  <unicode hex="00E3"/>
  <note>
	atilde
  </note>
  <outline>
    <contour>
      <point x="323" y="-15"/>
      <point x="379" y="5"/>
      <point x="419" y="52" type="curve"/>
      <point x="430" y="17" type="line" smooth="yes"/>
      <point x="434" y="5"/>
      <point x="440" y="0"/>
      <point x="455" y="0" type="curve" smooth="yes"/>
      <point x="534" y="0" type="line" smooth="yes"/>
      <point x="559" y="0"/>
      <point x="566" y="7"/>
      <point x="566" y="29" type="curve" smooth="yes"/>
      <point x="566" y="433" type="line"/>
      <point x="510" y="470"/>
      <point x="441" y="495"/>
      <point x="341" y="495" type="curve" smooth="yes"/>
      <point x="156" y="495"/>
      <point x="31" y="384"/>
      <point x="31" y="214" type="curve" smooth="yes"/>
      <point x="31" y="66"/>
      <point x="116" y="-15"/>
      <point x="242" y="-15" type="curve" smooth="yes"/>
    </contour>
    <contour>
      <point x="231" y="99"/>
      <point x="195" y="136"/>
      <point x="195" y="217" type="curve" smooth="yes"/>
      <point x="195" y="322"/>
      <point x="253" y="382"/>
      <point x="340" y="382" type="curve" smooth="yes"/>
      <point x="367" y="382"/>
      <point x="392" y="377"/>
      <point x="412" y="367" type="curve"/>
      <point x="412" y="192" type="line" smooth="yes"/>
      <point x="412" y="132"/>
      <point x="358" y="99"/>
      <point x="303" y="99" type="curve" smooth="yes"/>
    </contour>
    <contour>
      <point x="496" y="564"/>
      <point x="528" y="589"/>
      <point x="563" y="641" type="curve" smooth="yes"/>
      <point x="582" y="668"/>
      <point x="579" y="682"/>
      <point x="548" y="706" type="curve" smooth="yes"/>
      <point x="516" y="730"/>
      <point x="498" y="734"/>
      <point x="483" y="715" type="curve" smooth="yes"/>
      <point x="462" y="689"/>
      <point x="450" y="680"/>
      <point x="424" y="680" type="curve" smooth="yes"/>
      <point x="372" y="680"/>
      <point x="333" y="731"/>
      <point x="253" y="731" type="curve" smooth="yes"/>
      <point x="199" y="731"/>
      <point x="168" y="702"/>
      <point x="135" y="658" type="curve" smooth="yes"/>
      <point x="116" y="632"/>
      <point x="119" y="618"/>
      <point x="148" y="595" type="curve" smooth="yes"/>
      <point x="179" y="570"/>
      <point x="197" y="565"/>
      <point x="212" y="583" type="curve" smooth="yes"/>
      <point x="232" y="606"/>
      <point x="244" y="615"/>
      <point x="270" y="615" type="curve" smooth="yes"/>
      <point x="322" y="615"/>
      <point x="372" y="564"/>
      <point x="437" y="564" type="curve" smooth="yes"/>
    </contour>
  </outline>
</glyph>
<glyph name="adieresis" format="1">
  <advance width="617"/>
  <unicode hex="00E4"/>
  <note>
	adieresis
  </note>
  <outline>
    <contour>
      <point x="323" y="-15"/>
      <point x="379" y="5"/>
      <point x="419" y="52" type="curve"/>
      <point x="430" y="17" type="line" smooth="yes"/>
      <point x="434" y="5"/>
      <point x="440" y="0"/>
      <point x="455" y="0" type="curve" smooth="yes"/>
      <point x="534" y="0" type="line" smooth="yes"/>
      <point x="559" y="0"/>
      <point x="566" y="7"/>
      <point x="566" y="29" type="curve" smooth="yes"/>
      <point x="566" y="433" type="line"/>
      <point x="510" y="470"/>
      <point x="441" y="495"/>
      <point x="341" y="495" type="curve" smooth="yes"/>
      <point x="156" y="495"/>
      <point x="31" y="384"/>
      <point x="31" y="214" type="curve" smooth="yes"/>
      <point x="31" y="66"/>
      <point x="116" y="-15"/>
      <point x="242" y="-15" type="curve" smooth="yes"/>
    </contour>
    <contour>
      <point x="231" y="99"/>
      <point x="195" y="136"/>
      <point x="195" y="217" type="curve" smooth="yes"/>
      <point x="195" y="322"/>
      <point x="253" y="382"/>
      <point x="340" y="382" type="curve" smooth="yes"/>
      <point x="367" y="382"/>
      <point x="392" y="377"/>
      <point x="412" y="367" type="curve"/>
      <point x="412" y="192" type="line" smooth="yes"/>
      <point x="412" y="132"/>
      <point x="358" y="99"/>
      <point x="303" y="99" type="curve" smooth="yes"/>
    </contour>
    <contour>
      <point x="249" y="541" type="line" smooth="yes"/>
      <point x="282" y="541"/>
      <point x="303" y="567"/>
      <point x="303" y="598" type="curve" smooth="yes"/>
      <point x="303" y="620" type="line" smooth="yes"/>
      <point x="303" y="652"/>
      <point x="281" y="677"/>
      <point x="249" y="677" type="curve" smooth="yes"/>
      <point x="226" y="677" type="line" smooth="yes"/>
      <point x="194" y="677"/>
      <point x="172" y="652"/>
      <point x="172" y="620" type="curve" smooth="yes"/>
      <point x="172" y="598" type="line" smooth="yes"/>
      <point x="172" y="567"/>
      <point x="194" y="541"/>
      <point x="226" y="541" type="curve" smooth="yes"/>
    </contour>
    <contour>
      <point x="455" y="541" type="line" smooth="yes"/>
      <point x="488" y="541"/>
      <point x="509" y="567"/>
      <point x="509" y="598" type="curve" smooth="yes"/>
      <point x="509" y="620" type="line" smooth="yes"/>
      <point x="509" y="652"/>
      <point x="487" y="677"/>
      <point x="455" y="677" type="curve" smooth="yes"/>
      <point x="431" y="677" type="line" smooth="yes"/>
      <point x="400" y="677"/>
      <point x="377" y="652"/>
      <point x="377" y="620" type="curve" smooth="yes"/>
      <point x="377" y="598" type="line" smooth="yes"/>
      <point x="377" y="567"/>
      <point x="400" y="541"/>
      <point x="431" y="541" type="curve" smooth="yes"/>
    </contour>
  </outline>
</glyph>
<glyph name="ae" format="1">
  <advance width="941"/>
  <unicode hex="00E6"/>
  <note>
	ae
  </note>
  <outline>
    <contour>
      <point x="330" y="-15"/>
      <point x="411" y="17"/>
      <point x="460" y="82" type="curve"/>
      <point x="500" y="16"/>
      <point x="576" y="-15"/>
      <point x="669" y="-15" type="curve" smooth="yes"/>
      <point x="753" y="-15"/>
      <point x="811" y="0"/>
      <point x="866" y="35" type="curve" smooth="yes"/>
      <point x="879" y="43"/>
      <point x="880" y="51"/>
      <point x="873" y="63" type="curve"/>
      <point x="844" y="117" type="line" smooth="yes"/>
      <point x="838" y="128"/>
      <point x="832" y="131"/>
      <point x="817" y="123" type="curve" smooth="yes"/>
      <point x="785" y="105"/>
      <point x="747" y="90"/>
      <point x="686" y="90" type="curve" smooth="yes"/>
      <point x="593" y="90"/>
      <point x="538" y="132"/>
      <point x="538" y="203" type="curve"/>
      <point x="873" y="203" type="line" smooth="yes"/>
      <point x="898" y="203"/>
      <point x="910" y="217"/>
      <point x="910" y="245" type="curve" smooth="yes"/>
      <point x="910" y="402"/>
      <point x="824" y="495"/>
      <point x="649" y="495" type="curve" smooth="yes"/>
      <point x="564" y="495"/>
      <point x="497" y="466"/>
      <point x="460" y="409" type="curve"/>
      <point x="427" y="464"/>
      <point x="366" y="495"/>
      <point x="268" y="495" type="curve" smooth="yes"/>
      <point x="197" y="495"/>
      <point x="131" y="482"/>
      <point x="81" y="452" type="curve" smooth="yes"/>
      <point x="68" y="444"/>
      <point x="67" y="436"/>
      <point x="74" y="424" type="curve"/>
      <point x="101" y="372" type="line" smooth="yes"/>
      <point x="108" y="359"/>
      <point x="114" y="356"/>
      <point x="130" y="364" type="curve" smooth="yes"/>
      <point x="164" y="380"/>
      <point x="203" y="391"/>
      <point x="254" y="391" type="curve" smooth="yes"/>
      <point x="353" y="391"/>
      <point x="377" y="356"/>
      <point x="377" y="308" type="curve" smooth="yes"/>
      <point x="377" y="293" type="line"/>
      <point x="235" y="293" type="line" smooth="yes"/>
      <point x="107" y="293"/>
      <point x="31" y="247"/>
      <point x="31" y="138" type="curve" smooth="yes"/>
      <point x="31" y="31"/>
      <point x="116" y="-15"/>
      <point x="235" y="-15" type="curve" smooth="yes"/>
    </contour>
    <contour>
      <point x="199" y="90"/>
      <point x="170" y="107"/>
      <point x="170" y="146" type="curve" smooth="yes"/>
      <point x="170" y="191"/>
      <point x="202" y="207"/>
      <point x="251" y="207" type="curve" smooth="yes"/>
      <point x="377" y="207" type="line"/>
      <point x="377" y="187" type="line" smooth="yes"/>
      <point x="377" y="123"/>
      <point x="334" y="90"/>
      <point x="253" y="90" type="curve" smooth="yes"/>
    </contour>
    <contour>
      <point x="538" y="356"/>
      <point x="573" y="395"/>
      <point x="651" y="395" type="curve" smooth="yes"/>
      <point x="729" y="395"/>
      <point x="764" y="356"/>
      <point x="764" y="289" type="curve"/>
      <point x="538" y="289" type="line"/>
    </contour>
  </outline>
</glyph>
<glyph name="ccedilla" format="1">
  <advance width="563"/>
  <unicode hex="00E7"/>
  <note>
	ccedilla
  </note>
  <outline>
    <contour>
      <point x="408" y="-15"/>
      <point x="467" y="4"/>
      <point x="520" y="38" type="curve" smooth="yes"/>
      <point x="534" y="47"/>
      <point x="535" y="54"/>
      <point x="527" y="67" type="curve" smooth="yes"/>
      <point x="490" y="130" type="line" smooth="yes"/>
      <point x="481" y="145"/>
      <point x="475" y="145"/>
      <point x="459" y="135" type="curve" smooth="yes"/>
      <point x="427" y="114"/>
      <point x="391" y="99"/>
      <point x="337" y="99" type="curve" smooth="yes"/>
      <point x="247" y="99"/>
      <point x="195" y="145"/>
      <point x="195" y="239" type="curve" smooth="yes"/>
      <point x="195" y="327"/>
      <point x="247" y="382"/>
      <point x="331" y="382" type="curve" smooth="yes"/>
      <point x="385" y="382"/>
      <point x="417" y="368"/>
      <point x="452" y="346" type="curve" smooth="yes"/>
      <point x="467" y="337"/>
      <point x="474" y="336"/>
      <point x="483" y="351" type="curve" smooth="yes"/>
      <point x="517" y="410" type="line" smooth="yes"/>
      <point x="525" y="424"/>
      <point x="526" y="434"/>
      <point x="513" y="443" type="curve" smooth="yes"/>
      <point x="464" y="477"/>
      <point x="408" y="495"/>
      <point x="318" y="495" type="curve" smooth="yes"/>
      <point x="139" y="495"/>
      <point x="31" y="391"/>
      <point x="31" y="239" type="curve" smooth="yes"/>
      <point x="31" y="73"/>
      <point x="137" y="-15"/>
      <point x="318" y="-15" type="curve" smooth="yes"/>
    </contour>
    <contour>
      <point x="374" y="-234"/>
      <point x="413" y="-197"/>
      <point x="413" y="-149" type="curve" smooth="yes"/>
      <point x="413" y="-104"/>
      <point x="389" y="-81"/>
      <point x="344" y="-75" type="curve"/>
      <point x="367" y="-25" type="line" smooth="yes"/>
      <point x="372" y="-15"/>
      <point x="369" y="-9"/>
      <point x="357" y="-9" type="curve" smooth="yes"/>
      <point x="274" y="-9" type="line" smooth="yes"/>
      <point x="260" y="-9"/>
      <point x="256" y="-12"/>
      <point x="252" y="-23" type="curve" smooth="yes"/>
      <point x="225" y="-91" type="line" smooth="yes"/>
      <point x="221" y="-101"/>
      <point x="225" y="-107"/>
      <point x="235" y="-107" type="curve" smooth="yes"/>
      <point x="251" y="-107" type="line" smooth="yes"/>
      <point x="289" y="-107"/>
      <point x="307" y="-112"/>
      <point x="307" y="-136" type="curve" smooth="yes"/>
      <point x="307" y="-153"/>
      <point x="297" y="-161"/>
      <point x="271" y="-161" type="curve" smooth="yes"/>
      <point x="257" y="-161"/>
      <point x="239" y="-157"/>
      <point x="226" y="-151" type="curve" smooth="yes"/>
      <point x="217" y="-147"/>
      <point x="212" y="-146"/>
      <point x="208" y="-155" type="curve"/>
      <point x="191" y="-199" type="line" smooth="yes"/>
      <point x="187" y="-209"/>
      <point x="189" y="-211"/>
      <point x="201" y="-217" type="curve" smooth="yes"/>
      <point x="220" y="-227"/>
      <point x="259" y="-234"/>
      <point x="292" y="-234" type="curve" smooth="yes"/>
    </contour>
  </outline>
</glyph>
<glyph name="eacute" format="1">
  <advance width="596"/>
  <unicode hex="00E9"/>
  <note>
	eacute
  </note>
  <outline>
    <contour>
      <point x="401" y="-15"/>
      <point x="466" y="-1"/>
      <point x="521" y="35" type="curve" smooth="yes"/>
      <point x="533" y="43"/>
      <point x="535" y="51"/>
      <point x="528" y="63" type="curve"/>
      <point x="499" y="117" type="line" smooth="yes"/>
      <point x="493" y="128"/>
      <point x="487" y="131"/>
      <point x="472" y="123" type="curve" smooth="yes"/>
      <point x="439" y="105"/>
      <point x="400" y="90"/>
      <point x="339" y="90" type="curve" smooth="yes"/>
      <point x="245" y="90"/>
      <point x="187" y="130"/>
      <point x="187" y="203" type="curve"/>
      <point x="527" y="203" type="line" smooth="yes"/>
      <point x="553" y="203"/>
      <point x="565" y="217"/>
      <point x="565" y="245" type="curve" smooth="yes"/>
      <point x="565" y="402"/>
      <point x="478" y="495"/>
      <point x="303" y="495" type="curve" smooth="yes"/>
      <point x="129" y="495"/>
      <point x="31" y="405"/>
      <point x="31" y="233" type="curve" smooth="yes"/>
      <point x="31" y="64"/>
      <point x="159" y="-15"/>
      <point x="316" y="-15" type="curve" smooth="yes"/>
    </contour>
    <contour>
      <point x="187" y="352"/>
      <point x="226" y="395"/>
      <point x="304" y="395" type="curve" smooth="yes"/>
      <point x="382" y="395"/>
      <point x="417" y="354"/>
      <point x="417" y="289" type="curve"/>
      <point x="187" y="289" type="line"/>
    </contour>
    <contour>
      <point x="332" y="545" type="line" smooth="yes"/>
      <point x="365" y="545"/>
      <point x="373" y="551"/>
      <point x="385" y="573" type="curve" smooth="yes"/>
      <point x="450" y="695" type="line" smooth="yes"/>
      <point x="464" y="721"/>
      <point x="451" y="734"/>
      <point x="424" y="734" type="curve" smooth="yes"/>
      <point x="327" y="734" type="line" smooth="yes"/>
      <point x="296" y="734"/>
      <point x="290" y="726"/>
      <point x="282" y="705" type="curve" smooth="yes"/>
      <point x="237" y="579" type="line" smooth="yes"/>
      <point x="230" y="559"/>
      <point x="236" y="545"/>
      <point x="262" y="545" type="curve" smooth="yes"/>
    </contour>
  </outline>
</glyph>
<glyph name="idieresis" format="1">
  <advance width="285"/>
  <unicode hex="00EF"/>
  <note>
	idieresis
  </note>
  <outline>
    <contour>
      <point x="180" y="0" type="line" smooth="yes"/>
      <point x="214" y="0"/>
      <point x="225" y="14"/>
      <point x="225" y="43" type="curve" smooth="yes"/>
      <point x="225" y="436" type="line" smooth="yes"/>
      <point x="225" y="465"/>
      <point x="214" y="480"/>
      <point x="180" y="480" type="curve" smooth="yes"/>
      <point x="105" y="480" type="line" smooth="yes"/>
      <point x="72" y="480"/>
      <point x="60" y="465"/>
      <point x="60" y="436" type="curve" smooth="yes"/>
      <point x="60" y="43" type="line" smooth="yes"/>
      <point x="60" y="14"/>
      <point x="72" y="0"/>
      <point x="105" y="0" type="curve" smooth="yes"/>
    </contour>
    <contour>
      <point x="51" y="529" type="line" smooth="yes"/>
      <point x="84" y="529"/>
      <point x="105" y="555"/>
      <point x="105" y="586" type="curve" smooth="yes"/>
      <point x="105" y="608" type="line" smooth="yes"/>
      <point x="105" y="640"/>
      <point x="83" y="665"/>
      <point x="51" y="665" type="curve" smooth="yes"/>
      <point x="28" y="665" type="line" smooth="yes"/>
      <point x="-4" y="665"/>
      <point x="-26" y="640"/>
      <point x="-26" y="608" type="curve" smooth="yes"/>
      <point x="-26" y="586" type="line" smooth="yes"/>
      <point x="-26" y="555"/>
      <point x="-4" y="529"/>
      <point x="28" y="529" type="curve" smooth="yes"/>
    </contour>
    <contour>
      <point x="257" y="529" type="line" smooth="yes"/>
      <point x="290" y="529"/>
      <point x="311" y="555"/>
      <point x="311" y="586" type="curve" smooth="yes"/>
      <point x="311" y="608" type="line" smooth="yes"/>
      <point x="311" y="640"/>
      <point x="289" y="665"/>
      <point x="257" y="665" type="curve" smooth="yes"/>
      <point x="233" y="665" type="line" smooth="yes"/>
      <point x="202" y="665"/>
      <point x="179" y="640"/>
      <point x="179" y="608" type="curve" smooth="yes"/>
      <point x="179" y="586" type="line" smooth="yes"/>
      <point x="179" y="555"/>
      <point x="202" y="529"/>
      <point x="233" y="529" type="curve" smooth="yes"/>
    </contour>
  </outline>
</glyph>
<glyph name="eth" format="1">
  <advance width="673"/>
  <unicode hex="00F0"/>
  <note>
	eth
  </note>
  <outline>
    <contour>
      <point x="424" y="-15"/>
      <point x="572" y="69"/>
      <point x="621" y="299" type="curve" smooth="yes"/>
      <point x="661" y="488"/>
      <point x="617" y="599"/>
      <point x="534" y="653" type="curve"/>
      <point x="570" y="703" type="line"/>
      <point x="574" y="709"/>
      <point x="572" y="716"/>
      <point x="562" y="716" type="curve" smooth="yes"/>
      <point x="473" y="716" type="line" smooth="yes"/>
      <point x="465" y="716"/>
      <point x="459" y="712"/>
      <point x="455" y="706" type="curve" smooth="yes"/>
      <point x="443" y="689" type="line"/>
      <point x="422" y="693"/>
      <point x="400" y="695"/>
      <point x="378" y="695" type="curve" smooth="yes"/>
      <point x="294" y="695"/>
      <point x="227" y="678"/>
      <point x="174" y="647" type="curve" smooth="yes"/>
      <point x="159" y="638"/>
      <point x="158" y="628"/>
      <point x="163" y="614" type="curve" smooth="yes"/>
      <point x="186" y="554" type="line" smooth="yes"/>
      <point x="191" y="541"/>
      <point x="199" y="542"/>
      <point x="215" y="549" type="curve" smooth="yes"/>
      <point x="254" y="567"/>
      <point x="297" y="579"/>
      <point x="344" y="579" type="curve" smooth="yes"/>
      <point x="351" y="579"/>
      <point x="357" y="579"/>
      <point x="364" y="578" type="curve"/>
      <point x="315" y="510" type="line"/>
      <point x="311" y="504"/>
      <point x="314" y="497"/>
      <point x="324" y="497" type="curve" smooth="yes"/>
      <point x="413" y="497" type="line" smooth="yes"/>
      <point x="421" y="497"/>
      <point x="426" y="501"/>
      <point x="430" y="507" type="curve"/>
      <point x="461" y="550" type="line"/>
      <point x="489" y="524"/>
      <point x="498" y="480"/>
      <point x="497" y="409" type="curve"/>
      <point x="457" y="452"/>
      <point x="409" y="475"/>
      <point x="327" y="475" type="curve" smooth="yes"/>
      <point x="148" y="475"/>
      <point x="31" y="363"/>
      <point x="31" y="188" type="curve" smooth="yes"/>
      <point x="31" y="56"/>
      <point x="98" y="-15"/>
      <point x="267" y="-15" type="curve" smooth="yes"/>
    </contour>
    <contour>
      <point x="229" y="104"/>
      <point x="194" y="133"/>
      <point x="194" y="193" type="curve" smooth="yes"/>
      <point x="194" y="325"/>
      <point x="254" y="378"/>
      <point x="348" y="378" type="curve" smooth="yes"/>
      <point x="413" y="378"/>
      <point x="461" y="339"/>
      <point x="447" y="263" type="curve" smooth="yes"/>
      <point x="429" y="160"/>
      <point x="372" y="104"/>
      <point x="292" y="104" type="curve" smooth="yes"/>
    </contour>
  </outline>
</glyph>
<glyph name="ntilde" format="1">
  <advance width="601"/>
  <unicode hex="00F1"/>
  <note>
	ntilde
  </note>
  <outline>
    <contour>
      <point x="171" y="0" type="line" smooth="yes"/>
      <point x="205" y="0"/>
      <point x="216" y="14"/>
      <point x="216" y="43" type="curve" smooth="yes"/>
      <point x="216" y="300" type="line" smooth="yes"/>
      <point x="216" y="350"/>
      <point x="262" y="381"/>
      <point x="316" y="381" type="curve" smooth="yes"/>
      <point x="367" y="381"/>
      <point x="389" y="361"/>
      <point x="389" y="308" type="curve" smooth="yes"/>
      <point x="389" y="43" type="line" smooth="yes"/>
      <point x="389" y="14"/>
      <point x="401" y="0"/>
      <point x="435" y="0" type="curve" smooth="yes"/>
      <point x="510" y="0" type="line" smooth="yes"/>
      <point x="543" y="0"/>
      <point x="555" y="14"/>
      <point x="555" y="43" type="curve" smooth="yes"/>
      <point x="555" y="318" type="line" smooth="yes"/>
      <point x="555" y="441"/>
      <point x="477" y="495"/>
      <point x="374" y="495" type="curve" smooth="yes"/>
      <point x="290" y="495"/>
      <point x="228" y="467"/>
      <point x="189" y="427" type="curve"/>
      <point x="186" y="462" type="line" smooth="yes"/>
      <point x="185" y="476"/>
      <point x="176" y="480"/>
      <point x="161" y="480" type="curve" smooth="yes"/>
      <point x="81" y="480" type="line" smooth="yes"/>
      <point x="56" y="480"/>
      <point x="51" y="473"/>
      <point x="51" y="451" type="curve" smooth="yes"/>
      <point x="51" y="43" type="line" smooth="yes"/>
      <point x="51" y="14"/>
      <point x="63" y="0"/>
      <point x="97" y="0" type="curve" smooth="yes"/>
    </contour>
    <contour>
      <point x="452" y="564"/>
      <point x="484" y="589"/>
      <point x="519" y="641" type="curve" smooth="yes"/>
      <point x="538" y="668"/>
      <point x="535" y="682"/>
      <point x="504" y="706" type="curve" smooth="yes"/>
      <point x="472" y="730"/>
      <point x="454" y="734"/>
      <point x="439" y="715" type="curve" smooth="yes"/>
      <point x="418" y="689"/>
      <point x="406" y="680"/>
      <point x="380" y="680" type="curve" smooth="yes"/>
      <point x="328" y="680"/>
      <point x="289" y="731"/>
      <point x="209" y="731" type="curve" smooth="yes"/>
      <point x="155" y="731"/>
      <point x="124" y="702"/>
      <point x="91" y="658" type="curve" smooth="yes"/>
      <point x="72" y="632"/>
      <point x="75" y="618"/>
      <point x="104" y="595" type="curve" smooth="yes"/>
      <point x="135" y="570"/>
      <point x="153" y="565"/>
      <point x="168" y="583" type="curve" smooth="yes"/>
      <point x="188" y="606"/>
      <point x="200" y="615"/>
      <point x="226" y="615" type="curve" smooth="yes"/>
      <point x="278" y="615"/>
      <point x="328" y="564"/>
      <point x="393" y="564" type="curve" smooth="yes"/>
    </contour>
  </outline>
</glyph>
<glyph name="oacute" format="1">
  <advance width="623"/>
  <unicode hex="00F3"/>
  <note>
	oacute
  </note>
  <outline>
    <contour>
      <point x="492" y="-15"/>
      <point x="592" y="85"/>
      <point x="592" y="240" type="curve" smooth="yes"/>
      <point x="592" y="395"/>
      <point x="492" y="495"/>
      <point x="311" y="495" type="curve" smooth="yes"/>
      <point x="131" y="495"/>
      <point x="31" y="395"/>
      <point x="31" y="240" type="curve" smooth="yes"/>
      <point x="31" y="85"/>
      <point x="131" y="-15"/>
      <point x="311" y="-15" type="curve" smooth="yes"/>
    </contour>
    <contour>
      <point x="237" y="104"/>
      <point x="195" y="149"/>
      <point x="195" y="240" type="curve" smooth="yes"/>
      <point x="195" y="331"/>
      <point x="237" y="375"/>
      <point x="311" y="375" type="curve" smooth="yes"/>
      <point x="386" y="375"/>
      <point x="428" y="331"/>
      <point x="428" y="240" type="curve" smooth="yes"/>
      <point x="428" y="149"/>
      <point x="386" y="104"/>
      <point x="311" y="104" type="curve" smooth="yes"/>
    </contour>
    <contour>
      <point x="321" y="545" type="line" smooth="yes"/>
      <point x="354" y="545"/>
      <point x="362" y="551"/>
      <point x="374" y="573" type="curve" smooth="yes"/>
      <point x="439" y="695" type="line" smooth="yes"/>
      <point x="453" y="721"/>
      <point x="440" y="734"/>
      <point x="413" y="734" type="curve" smooth="yes"/>
      <point x="316" y="734" type="line" smooth="yes"/>
      <point x="285" y="734"/>
      <point x="279" y="726"/>
      <point x="271" y="705" type="curve" smooth="yes"/>
      <point x="226" y="579" type="line" smooth="yes"/>
      <point x="219" y="559"/>
      <point x="225" y="545"/>
      <point x="251" y="545" type="curve" smooth="yes"/>
    </contour>
  </outline>
</glyph>
<glyph name="ocircumflex" format="1">
  <advance width="623"/>
  <unicode hex="00F4"/>
  <note>
	ocircumflex
  </note>
  <outline>
    <contour>
      <point x="492" y="-15"/>
      <point x="592" y="85"/>
      <point x="592" y="240" type="curve" smooth="yes"/>
      <point x="592" y="395"/>
      <point x="492" y="495"/>
      <point x="311" y="495" type="curve" smooth="yes"/>
      <point x="131" y="495"/>
      <point x="31" y="395"/>
      <point x="31" y="240" type="curve" smooth="yes"/>
      <point x="31" y="85"/>
      <point x="131" y="-15"/>
      <point x="311" y="-15" type="curve" smooth="yes"/>
    </contour>
    <contour>
      <point x="237" y="104"/>
      <point x="195" y="149"/>
      <point x="195" y="240" type="curve" smooth="yes"/>
      <point x="195" y="331"/>
      <point x="237" y="375"/>
      <point x="311" y="375" type="curve" smooth="yes"/>
      <point x="386" y="375"/>
      <point x="428" y="331"/>
      <point x="428" y="240" type="curve" smooth="yes"/>
      <point x="428" y="149"/>
      <point x="386" y="104"/>
      <point x="311" y="104" type="curve" smooth="yes"/>
    </contour>
    <contour>
      <point x="203" y="544" type="line" smooth="yes"/>
      <point x="232" y="544"/>
      <point x="240" y="551"/>
      <point x="251" y="568" type="curve" smooth="yes"/>
      <point x="310" y="656" type="line"/>
      <point x="369" y="568" type="line" smooth="yes"/>
      <point x="380" y="551"/>
      <point x="388" y="544"/>
      <point x="417" y="544" type="curve" smooth="yes"/>
      <point x="478" y="544" type="line" smooth="yes"/>
      <point x="504" y="544"/>
      <point x="513" y="560"/>
      <point x="495" y="584" type="curve" smooth="yes"/>
      <point x="395" y="717" type="line" smooth="yes"/>
      <point x="382" y="734"/>
      <point x="378" y="741"/>
      <point x="349" y="741" type="curve" smooth="yes"/>
      <point x="270" y="741" type="line" smooth="yes"/>
      <point x="241" y="741"/>
      <point x="238" y="734"/>
      <point x="224" y="717" type="curve"/>
      <point x="124" y="584" type="line" smooth="yes"/>
      <point x="106" y="560"/>
      <point x="116" y="544"/>
      <point x="142" y="544" type="curve" smooth="yes"/>
    </contour>
  </outline>
</glyph>
<glyph name="ucircumflex" format="1">
  <advance width="597"/>
  <unicode hex="00FB"/>
  <note>
	ucircumflex
  </note>
  <outline>
    <contour>
      <point x="310" y="-15"/>
      <point x="369" y="13"/>
      <point x="408" y="54" type="curve"/>
      <point x="412" y="17" type="line" smooth="yes"/>
      <point x="413" y="4"/>
      <point x="422" y="0"/>
      <point x="436" y="0" type="curve" smooth="yes"/>
      <point x="516" y="0" type="line" smooth="yes"/>
      <point x="541" y="0"/>
      <point x="546" y="7"/>
      <point x="546" y="29" type="curve" smooth="yes"/>
      <point x="546" y="436" type="line" smooth="yes"/>
      <point x="546" y="465"/>
      <point x="534" y="480"/>
      <point x="500" y="480" type="curve" smooth="yes"/>
      <point x="426" y="480" type="line" smooth="yes"/>
      <point x="392" y="480"/>
      <point x="380" y="465"/>
      <point x="380" y="436" type="curve" smooth="yes"/>
      <point x="380" y="181" type="line" smooth="yes"/>
      <point x="380" y="130"/>
      <point x="342" y="99"/>
      <point x="288" y="99" type="curve" smooth="yes"/>
      <point x="238" y="99"/>
      <point x="211" y="121"/>
      <point x="211" y="174" type="curve" smooth="yes"/>
      <point x="211" y="436" type="line" smooth="yes"/>
      <point x="211" y="465"/>
      <point x="200" y="480"/>
      <point x="166" y="480" type="curve" smooth="yes"/>
      <point x="91" y="480" type="line" smooth="yes"/>
      <point x="58" y="480"/>
      <point x="46" y="465"/>
      <point x="46" y="436" type="curve" smooth="yes"/>
      <point x="46" y="168" type="line" smooth="yes"/>
      <point x="46" y="42"/>
      <point x="122" y="-15"/>
      <point x="227" y="-15" type="curve" smooth="yes"/>
    </contour>
    <contour>
      <point x="188" y="544" type="line" smooth="yes"/>
      <point x="217" y="544"/>
      <point x="225" y="551"/>
      <point x="236" y="568" type="curve" smooth="yes"/>
      <point x="295" y="656" type="line"/>
      <point x="354" y="568" type="line" smooth="yes"/>
      <point x="365" y="551"/>
      <point x="373" y="544"/>
      <point x="402" y="544" type="curve" smooth="yes"/>
      <point x="463" y="544" type="line" smooth="yes"/>
      <point x="489" y="544"/>
      <point x="498" y="560"/>
      <point x="480" y="584" type="curve" smooth="yes"/>
      <point x="380" y="717" type="line" smooth="yes"/>
      <point x="367" y="734"/>
      <point x="363" y="741"/>
      <point x="334" y="741" type="curve" smooth="yes"/>
      <point x="255" y="741" type="line" smooth="yes"/>
      <point x="226" y="741"/>
      <point x="223" y="734"/>
      <point x="209" y="717" type="curve"/>
      <point x="109" y="584" type="line" smooth="yes"/>
      <point x="91" y="560"/>
      <point x="101" y="544"/>
      <point x="127" y="544" type="curve" smooth="yes"/>
    </contour>
  </outline>
</glyph>
<glyph name="thorn" format="1">
  <advance width="620"/>
  <unicode hex="00FE"/>
  <note>
	thorn
  </note>
  <outline>
    <contour>
      <point x="168" y="-202" type="line" smooth="yes"/>
      <point x="202" y="-202"/>
      <point x="213" y="-188"/>
      <point x="213" y="-159" type="curve" smooth="yes"/>
      <point x="213" y="25" type="line"/>
      <point x="244" y="-2"/>
      <point x="293" y="-15"/>
      <point x="348" y="-15" type="curve" smooth="yes"/>
      <point x="502" y="-15"/>
      <point x="589" y="85"/>
      <point x="589" y="239" type="curve" smooth="yes"/>
      <point x="589" y="410"/>
      <point x="486" y="495"/>
      <point x="308" y="495" type="curve" smooth="yes"/>
      <point x="276" y="495"/>
      <point x="238" y="489"/>
      <point x="213" y="480" type="curve"/>
      <point x="213" y="651" type="line" smooth="yes"/>
      <point x="213" y="680"/>
      <point x="202" y="695"/>
      <point x="168" y="695" type="curve" smooth="yes"/>
      <point x="96" y="695" type="line" smooth="yes"/>
      <point x="63" y="695"/>
      <point x="51" y="680"/>
      <point x="51" y="651" type="curve" smooth="yes"/>
      <point x="51" y="-159" type="line" smooth="yes"/>
      <point x="51" y="-188"/>
      <point x="63" y="-202"/>
      <point x="96" y="-202" type="curve" smooth="yes"/>
    </contour>
    <contour>
      <point x="256" y="98"/>
      <point x="213" y="130"/>
      <point x="213" y="189" type="curve" smooth="yes"/>
      <point x="213" y="367" type="line"/>
      <point x="231" y="376"/>
      <point x="260" y="381"/>
      <point x="289" y="381" type="curve" smooth="yes"/>
      <point x="377" y="381"/>
      <point x="425" y="346"/>
      <point x="425" y="242" type="curve" smooth="yes"/>
      <point x="425" y="154"/>
      <point x="390" y="98"/>
      <point x="312" y="98" type="curve" smooth="yes"/>
    </contour>
  </outline>
</glyph>
<glyph name="Amacron" format="1">
  <advance width="740"/>
  <unicode hex="0100"/>
  <note>
	Amacron
  </note>
  <outline>
    <contour>
      <point x="171" y="0" type="line" smooth="yes"/>
      <point x="190" y="0"/>
      <point x="197" y="6"/>
      <point x="203" y="21" type="curve" smooth="yes"/>
      <point x="248" y="139" type="line"/>
      <point x="491" y="139" type="line"/>
      <point x="537" y="21" type="line" smooth="yes"/>
      <point x="543" y="6"/>
      <point x="550" y="0"/>
      <point x="569" y="0" type="curve" smooth="yes"/>
      <point x="690" y="0" type="line" smooth="yes"/>
      <point x="709" y="0"/>
      <point x="712" y="15"/>
      <point x="705" y="33" type="curve" smooth="yes"/>
      <point x="446" y="650" type="line" smooth="yes"/>
      <point x="437" y="672"/>
      <point x="429" y="680"/>
      <point x="407" y="680" type="curve" smooth="yes"/>
      <point x="334" y="680" type="line" smooth="yes"/>
      <point x="312" y="680"/>
      <point x="303" y="672"/>
      <point x="294" y="650" type="curve" smooth="yes"/>
      <point x="35" y="33" type="line" smooth="yes"/>
      <point x="28" y="15"/>
      <point x="31" y="0"/>
      <point x="50" y="0" type="curve" smooth="yes"/>
    </contour>
    <contour>
      <point x="370" y="470" type="line"/>
      <point x="453" y="254" type="line"/>
      <point x="286" y="254" type="line"/>
    </contour>
    <contour>
      <point x="506" y="765" type="line" smooth="yes"/>
      <point x="539" y="765"/>
      <point x="548" y="778"/>
      <point x="548" y="808" type="curve" smooth="yes"/>
      <point x="548" y="844" type="line" smooth="yes"/>
      <point x="548" y="873"/>
      <point x="539" y="887"/>
      <point x="506" y="887" type="curve" smooth="yes"/>
      <point x="235" y="887" type="line" smooth="yes"/>
      <point x="202" y="887"/>
      <point x="193" y="873"/>
      <point x="193" y="844" type="curve" smooth="yes"/>
      <point x="193" y="808" type="line" smooth="yes"/>
      <point x="193" y="778"/>
      <point x="202" y="765"/>
      <point x="235" y="765" type="curve" smooth="yes"/>
    </contour>
  </outline>
</glyph>
<glyph name="Aogonek" format="1">
  <advance width="740"/>
  <unicode hex="0104"/>
  <note>
	Aogonek
  </note>
  <outline>
    <contour>
      <point x="171" y="0" type="line" smooth="yes"/>
      <point x="190" y="0"/>
      <point x="197" y="6"/>
      <point x="203" y="21" type="curve" smooth="yes"/>
      <point x="248" y="139" type="line"/>
      <point x="491" y="139" type="line"/>
      <point x="537" y="21" type="line" smooth="yes"/>
      <point x="543" y="6"/>
      <point x="550" y="0"/>
      <point x="569" y="0" type="curve" smooth="yes"/>
      <point x="690" y="0" type="line" smooth="yes"/>
      <point x="709" y="0"/>
      <point x="712" y="15"/>
      <point x="705" y="33" type="curve" smooth="yes"/>
      <point x="446" y="650" type="line" smooth="yes"/>
      <point x="437" y="672"/>
      <point x="429" y="680"/>
      <point x="407" y="680" type="curve" smooth="yes"/>
      <point x="334" y="680" type="line" smooth="yes"/>
      <point x="312" y="680"/>
      <point x="303" y="672"/>
      <point x="294" y="650" type="curve" smooth="yes"/>
      <point x="35" y="33" type="line" smooth="yes"/>
      <point x="28" y="15"/>
      <point x="31" y="0"/>
      <point x="50" y="0" type="curve" smooth="yes"/>
    </contour>
    <contour>
      <point x="610" y="-214"/>
      <point x="638" y="-211"/>
      <point x="660" y="-200" type="curve" smooth="yes"/>
      <point x="673" y="-194"/>
      <point x="673" y="-190"/>
      <point x="670" y="-183" type="curve" smooth="yes"/>
      <point x="652" y="-144" type="line" smooth="yes"/>
      <point x="649" y="-137"/>
      <point x="645" y="-136"/>
      <point x="638" y="-139" type="curve"/>
      <point x="632" y="-142"/>
      <point x="625" y="-143"/>
      <point x="616" y="-143" type="curve" smooth="yes"/>
      <point x="600" y="-143"/>
      <point x="592" y="-134"/>
      <point x="592" y="-116" type="curve" smooth="yes"/>
      <point x="592" y="-87"/>
      <point x="605" y="-66"/>
      <point x="652" y="-11" type="curve" smooth="yes"/>
      <point x="659" y="-3"/>
      <point x="654" y="5"/>
      <point x="642" y="5" type="curve" smooth="yes"/>
      <point x="564" y="5" type="line" smooth="yes"/>
      <point x="551" y="5"/>
      <point x="547" y="1"/>
      <point x="539" y="-8" type="curve" smooth="yes"/>
      <point x="495" y="-58"/>
      <point x="478" y="-95"/>
      <point x="478" y="-131" type="curve" smooth="yes"/>
      <point x="478" y="-176"/>
      <point x="507" y="-214"/>
      <point x="572" y="-214" type="curve" smooth="yes"/>
    </contour>
    <contour>
      <point x="370" y="470" type="line"/>
      <point x="453" y="254" type="line"/>
      <point x="286" y="254" type="line"/>
    </contour>
  </outline>
</glyph>
<glyph name="cacute" format="1">
  <advance width="563"/>
  <unicode hex="0107"/>
  <note>
	cacute
  </note>
  <outline>
    <contour>
      <point x="408" y="-15"/>
      <point x="467" y="4"/>
      <point x="520" y="38" type="curve" smooth="yes"/>
      <point x="534" y="47"/>
      <point x="535" y="54"/>
      <point x="527" y="67" type="curve" smooth="yes"/>
      <point x="490" y="130" type="line" smooth="yes"/>
      <point x="481" y="145"/>
      <point x="475" y="145"/>
      <point x="459" y="135" type="curve" smooth="yes"/>
      <point x="427" y="114"/>
      <point x="391" y="99"/>
      <point x="337" y="99" type="curve" smooth="yes"/>
      <point x="247" y="99"/>
      <point x="195" y="145"/>
      <point x="195" y="239" type="curve" smooth="yes"/>
      <point x="195" y="327"/>
      <point x="247" y="382"/>
      <point x="331" y="382" type="curve" smooth="yes"/>
      <point x="385" y="382"/>
      <point x="417" y="368"/>
      <point x="452" y="346" type="curve" smooth="yes"/>
      <point x="467" y="337"/>
      <point x="474" y="336"/>
      <point x="483" y="351" type="curve" smooth="yes"/>
      <point x="517" y="410" type="line" smooth="yes"/>
      <point x="525" y="424"/>
      <point x="526" y="434"/>
      <point x="513" y="443" type="curve" smooth="yes"/>
      <point x="464" y="477"/>
      <point x="408" y="495"/>
      <point x="318" y="495" type="curve" smooth="yes"/>
      <point x="139" y="495"/>
      <point x="31" y="391"/>
      <point x="31" y="239" type="curve" smooth="yes"/>
      <point x="31" y="73"/>
      <point x="137" y="-15"/>
      <point x="318" y="-15" type="curve" smooth="yes"/>
    </contour>
    <contour>
      <point x="325" y="545" type="line" smooth="yes"/>
      <point x="358" y="545"/>
      <point x="366" y="551"/>
      <point x="378" y="573" type="curve" smooth="yes"/>
      <point x="443" y="695" type="line" smooth="yes"/>
      <point x="457" y="721"/>
      <point x="444" y="734"/>
      <point x="417" y="734" type="curve" smooth="yes"/>
      <point x="320" y="734" type="line" smooth="yes"/>
      <point x="289" y="734"/>
      <point x="283" y="726"/>
      <point x="275" y="705" type="curve" smooth="yes"/>
      <point x="230" y="579" type="line" smooth="yes"/>
      <point x="223" y="559"/>
      <point x="229" y="545"/>
      <point x="255" y="545" type="curve" smooth="yes"/>
    </contour>
  </outline>
</glyph>
<glyph name="Ccircumflex" format="1">
  <advance width="678"/>
  <unicode hex="0108"/>
  <note>
	Ccircumflex
  </note>
  <outline>
    <contour>
      <point x="501" y="-15"/>
      <point x="583" y="2"/>
      <point x="637" y="41" type="curve" smooth="yes"/>
      <point x="650" y="51"/>
      <point x="652" y="55"/>
      <point x="645" y="68" type="curve" smooth="yes"/>
      <point x="606" y="135" type="line" smooth="yes"/>
      <point x="597" y="150"/>
      <point x="590" y="148"/>
      <point x="575" y="140" type="curve" smooth="yes"/>
      <point x="536" y="118"/>
      <point x="488" y="104"/>
      <point x="417" y="104" type="curve" smooth="yes"/>
      <point x="286" y="104"/>
      <point x="195" y="177"/>
      <point x="195" y="340" type="curve" smooth="yes"/>
      <point x="195" y="500"/>
      <point x="278" y="576"/>
      <point x="412" y="576" type="curve" smooth="yes"/>
      <point x="480" y="576"/>
      <point x="529" y="559"/>
      <point x="563" y="540" type="curve" smooth="yes"/>
      <point x="578" y="532"/>
      <point x="585" y="530"/>
      <point x="594" y="545" type="curve" smooth="yes"/>
      <point x="629" y="606" type="line" smooth="yes"/>
      <point x="637" y="620"/>
      <point x="638" y="630"/>
      <point x="625" y="639" type="curve" smooth="yes"/>
      <point x="571" y="675"/>
      <point x="489" y="695"/>
      <point x="392" y="695" type="curve" smooth="yes"/>
      <point x="162" y="695"/>
      <point x="31" y="572"/>
      <point x="31" y="340" type="curve" smooth="yes"/>
      <point x="31" y="108"/>
      <point x="167" y="-15"/>
      <point x="396" y="-15" type="curve" smooth="yes"/>
    </contour>
    <contour>
      <point x="271" y="734" type="line" smooth="yes"/>
      <point x="300" y="734"/>
      <point x="308" y="741"/>
      <point x="319" y="758" type="curve" smooth="yes"/>
      <point x="378" y="846" type="line"/>
      <point x="437" y="758" type="line" smooth="yes"/>
      <point x="448" y="741"/>
      <point x="456" y="734"/>
      <point x="485" y="734" type="curve" smooth="yes"/>
      <point x="546" y="734" type="line" smooth="yes"/>
      <point x="572" y="734"/>
      <point x="581" y="750"/>
      <point x="563" y="774" type="curve" smooth="yes"/>
      <point x="463" y="907" type="line" smooth="yes"/>
      <point x="450" y="924"/>
      <point x="446" y="931"/>
      <point x="417" y="931" type="curve" smooth="yes"/>
      <point x="338" y="931" type="line" smooth="yes"/>
      <point x="309" y="931"/>
      <point x="306" y="924"/>
      <point x="292" y="907" type="curve"/>
      <point x="192" y="774" type="line" smooth="yes"/>
      <point x="174" y="750"/>
      <point x="184" y="734"/>
      <point x="210" y="734" type="curve" smooth="yes"/>
    </contour>
  </outline>
</glyph>
<glyph name="ccaron" format="1">
  <advance width="563"/>
  <unicode hex="010D"/>
  <note>
	ccaron
  </note>
  <outline>
    <contour>
      <point x="408" y="-15"/>
      <point x="467" y="4"/>
      <point x="520" y="38" type="curve" smooth="yes"/>
      <point x="534" y="47"/>
      <point x="535" y="54"/>
      <point x="527" y="67" type="curve" smooth="yes"/>
      <point x="490" y="130" type="line" smooth="yes"/>
      <point x="481" y="145"/>
      <point x="475" y="145"/>
      <point x="459" y="135" type="curve" smooth="yes"/>
      <point x="427" y="114"/>
      <point x="391" y="99"/>
      <point x="337" y="99" type="curve" smooth="yes"/>
      <point x="247" y="99"/>
      <point x="195" y="145"/>
      <point x="195" y="239" type="curve" smooth="yes"/>
      <point x="195" y="327"/>
      <point x="247" y="382"/>
      <point x="331" y="382" type="curve" smooth="yes"/>
      <point x="385" y="382"/>
      <point x="417" y="368"/>
      <point x="452" y="346" type="curve" smooth="yes"/>
      <point x="467" y="337"/>
      <point x="474" y="336"/>
      <point x="483" y="351" type="curve" smooth="yes"/>
      <point x="517" y="410" type="line" smooth="yes"/>
      <point x="525" y="424"/>
      <point x="526" y="434"/>
      <point x="513" y="443" type="curve" smooth="yes"/>
      <point x="464" y="477"/>
      <point x="408" y="495"/>
      <point x="318" y="495" type="curve" smooth="yes"/>
      <point x="139" y="495"/>
      <point x="31" y="391"/>
      <point x="31" y="239" type="curve" smooth="yes"/>
      <point x="31" y="73"/>
      <point x="137" y="-15"/>
      <point x="318" y="-15" type="curve" smooth="yes"/>
    </contour>
    <contour>
      <point x="344" y="550" type="line" smooth="yes"/>
      <point x="373" y="550"/>
      <point x="377" y="556"/>
      <point x="390" y="574" type="curve" smooth="yes"/>
      <point x="490" y="707" type="line" smooth="yes"/>
      <point x="508" y="730"/>
      <point x="502" y="746"/>
      <point x="476" y="746" type="curve" smooth="yes"/>
      <point x="411" y="746" type="line" smooth="yes"/>
      <point x="382" y="746"/>
      <point x="375" y="741"/>
      <point x="364" y="724" type="curve" smooth="yes"/>
      <point x="305" y="635" type="line"/>
      <point x="245" y="724" type="line" smooth="yes"/>
      <point x="234" y="741"/>
      <point x="227" y="746"/>
      <point x="198" y="746" type="curve" smooth="yes"/>
      <point x="133" y="746" type="line" smooth="yes"/>
      <point x="107" y="746"/>
      <point x="101" y="730"/>
      <point x="119" y="707" type="curve" smooth="yes"/>
      <point x="219" y="574" type="line" smooth="yes"/>
      <point x="233" y="556"/>
      <point x="236" y="550"/>
      <point x="265" y="550" type="curve" smooth="yes"/>
    </contour>
  </outline>
</glyph>
<glyph name="Dcroat" format="1">
  <advance width="719"/>
  <unicode hex="0110"/>
  <note>
	Dcroat
  </note>
  <outline>
    <contour>
      <point x="339" y="0" type="line" smooth="yes"/>
      <point x="558" y="0"/>
      <point x="688" y="103"/>
      <point x="688" y="340" type="curve" smooth="yes"/>
      <point x="688" y="582"/>
      <point x="558" y="680"/>
      <point x="339" y="680" type="curve" smooth="yes"/>
      <point x="129" y="680" type="line" smooth="yes"/>
      <point x="95" y="680"/>
      <point x="84" y="665"/>
      <point x="84" y="636" type="curve" smooth="yes"/>
      <point x="84" y="401" type="line"/>
      <point x="43" y="401" type="line" smooth="yes"/>
      <point x="10" y="401"/>
      <point x="1" y="388"/>
      <point x="1" y="358" type="curve" smooth="yes"/>
      <point x="1" y="322" type="line" smooth="yes"/>
      <point x="1" y="293"/>
      <point x="10" y="280"/>
      <point x="43" y="280" type="curve" smooth="yes"/>
      <point x="84" y="280" type="line"/>
      <point x="84" y="43" type="line" smooth="yes"/>
      <point x="84" y="14"/>
      <point x="95" y="0"/>
      <point x="129" y="0" type="curve" smooth="yes"/>
    </contour>
    <contour>
      <point x="249" y="280" type="line"/>
      <point x="366" y="280" type="line" smooth="yes"/>
      <point x="399" y="280"/>
      <point x="409" y="293"/>
      <point x="409" y="322" type="curve" smooth="yes"/>
      <point x="409" y="358" type="line" smooth="yes"/>
      <point x="409" y="388"/>
      <point x="399" y="401"/>
      <point x="366" y="401" type="curve" smooth="yes"/>
      <point x="249" y="401" type="line"/>
      <point x="249" y="558" type="line"/>
      <point x="347" y="558" type="line" smooth="yes"/>
      <point x="460" y="558"/>
      <point x="524" y="507"/>
      <point x="524" y="340" type="curve" smooth="yes"/>
      <point x="524" y="173"/>
      <point x="460" y="121"/>
      <point x="347" y="121" type="curve" smooth="yes"/>
      <point x="249" y="121" type="line"/>
    </contour>
  </outline>
</glyph>
<glyph name="dcroat" format="1">
  <advance width="632"/>
  <unicode hex="0111"/>
  <note>
	dcroat
  </note>
  <outline>
    <contour>
      <point x="424" y="-15"/>
      <point x="517" y="15"/>
      <point x="569" y="53" type="curve"/>
      <point x="569" y="526" type="line"/>
      <point x="597" y="526" type="line" smooth="yes"/>
      <point x="624" y="526"/>
      <point x="631" y="533"/>
      <point x="631" y="558" type="curve" smooth="yes"/>
      <point x="631" y="595" type="line" smooth="yes"/>
      <point x="631" y="620"/>
      <point x="624" y="628"/>
      <point x="598" y="628" type="curve" smooth="yes"/>
      <point x="569" y="628" type="line"/>
      <point x="569" y="636" type="line" smooth="yes"/>
      <point x="569" y="665"/>
      <point x="557" y="680"/>
      <point x="524" y="680" type="curve" smooth="yes"/>
      <point x="452" y="680" type="line" smooth="yes"/>
      <point x="418" y="680"/>
      <point x="407" y="665"/>
      <point x="407" y="636" type="curve" smooth="yes"/>
      <point x="407" y="628" type="line"/>
      <point x="300" y="628" type="line" smooth="yes"/>
      <point x="274" y="628"/>
      <point x="267" y="620"/>
      <point x="267" y="595" type="curve" smooth="yes"/>
      <point x="267" y="558" type="line" smooth="yes"/>
      <point x="267" y="533"/>
      <point x="274" y="526"/>
      <point x="300" y="526" type="curve" smooth="yes"/>
      <point x="407" y="526" type="line"/>
      <point x="407" y="458" type="line"/>
      <point x="379" y="482"/>
      <point x="331" y="495"/>
      <point x="274" y="495" type="curve" smooth="yes"/>
      <point x="119" y="495"/>
      <point x="31" y="392"/>
      <point x="31" y="242" type="curve" smooth="yes"/>
      <point x="31" y="72"/>
      <point x="127" y="-15"/>
      <point x="323" y="-15" type="curve" smooth="yes"/>
    </contour>
    <contour>
      <point x="242" y="99"/>
      <point x="195" y="136"/>
      <point x="195" y="240" type="curve" smooth="yes"/>
      <point x="195" y="324"/>
      <point x="230" y="381"/>
      <point x="311" y="381" type="curve" smooth="yes"/>
      <point x="367" y="381"/>
      <point x="407" y="356"/>
      <point x="407" y="299" type="curve" smooth="yes"/>
      <point x="407" y="116" type="line"/>
      <point x="389" y="106"/>
      <point x="361" y="99"/>
      <point x="327" y="99" type="curve" smooth="yes"/>
    </contour>
  </outline>
</glyph>
<glyph name="Ebreve" format="1">
  <advance width="574"/>
  <unicode hex="0114"/>
  <note>
	Ebreve
  </note>
  <outline>
    <contour>
      <point x="510" y="0" type="line" smooth="yes"/>
      <point x="543" y="0"/>
      <point x="552" y="13"/>
      <point x="552" y="42" type="curve" smooth="yes"/>
      <point x="552" y="78" type="line" smooth="yes"/>
      <point x="552" y="108"/>
      <point x="543" y="121"/>
      <point x="510" y="121" type="curve" smooth="yes"/>
      <point x="216" y="121" type="line"/>
      <point x="216" y="280" type="line"/>
      <point x="422" y="280" type="line" smooth="yes"/>
      <point x="455" y="280"/>
      <point x="464" y="294"/>
      <point x="464" y="323" type="curve" smooth="yes"/>
      <point x="464" y="358" type="line" smooth="yes"/>
      <point x="464" y="387"/>
      <point x="455" y="400"/>
      <point x="422" y="400" type="curve" smooth="yes"/>
      <point x="216" y="400" type="line"/>
      <point x="216" y="558" type="line"/>
      <point x="511" y="558" type="line" smooth="yes"/>
      <point x="544" y="558"/>
      <point x="553" y="572"/>
      <point x="553" y="601" type="curve" smooth="yes"/>
      <point x="553" y="638" type="line" smooth="yes"/>
      <point x="553" y="667"/>
      <point x="544" y="680"/>
      <point x="511" y="680" type="curve" smooth="yes"/>
      <point x="96" y="680" type="line" smooth="yes"/>
      <point x="63" y="680"/>
      <point x="51" y="665"/>
      <point x="51" y="636" type="curve" smooth="yes"/>
      <point x="51" y="43" type="line" smooth="yes"/>
      <point x="51" y="14"/>
      <point x="63" y="0"/>
      <point x="96" y="0" type="curve" smooth="yes"/>
    </contour>
    <contour>
      <point x="428" y="750"/>
      <point x="486" y="822"/>
      <point x="486" y="918" type="curve" smooth="yes"/>
      <point x="486" y="929"/>
      <point x="480" y="936"/>
      <point x="470" y="936" type="curve" smooth="yes"/>
      <point x="383" y="936" type="line" smooth="yes"/>
      <point x="369" y="936"/>
      <point x="366" y="929"/>
      <point x="366" y="917" type="curve" smooth="yes"/>
      <point x="366" y="880"/>
      <point x="351" y="855"/>
      <point x="309" y="855" type="curve" smooth="yes"/>
      <point x="266" y="855"/>
      <point x="252" y="880"/>
      <point x="252" y="917" type="curve" smooth="yes"/>
      <point x="252" y="929"/>
      <point x="249" y="936"/>
      <point x="235" y="936" type="curve" smooth="yes"/>
      <point x="148" y="936" type="line" smooth="yes"/>
      <point x="138" y="936"/>
      <point x="132" y="929"/>
      <point x="132" y="918" type="curve" smooth="yes"/>
      <point x="132" y="822"/>
      <point x="189" y="750"/>
      <point x="309" y="750" type="curve" smooth="yes"/>
    </contour>
  </outline>
</glyph>
<glyph name="ebreve" format="1">
  <advance width="596"/>
  <unicode hex="0115"/>
  <note>
	ebreve
  </note>
  <outline>
    <contour>
      <point x="401" y="-15"/>
      <point x="466" y="-1"/>
      <point x="521" y="35" type="curve" smooth="yes"/>
      <point x="533" y="43"/>
      <point x="535" y="51"/>
      <point x="528" y="63" type="curve"/>
      <point x="499" y="117" type="line" smooth="yes"/>
      <point x="493" y="128"/>
      <point x="487" y="131"/>
      <point x="472" y="123" type="curve" smooth="yes"/>
      <point x="439" y="105"/>
      <point x="400" y="90"/>
      <point x="339" y="90" type="curve" smooth="yes"/>
      <point x="245" y="90"/>
      <point x="187" y="130"/>
      <point x="187" y="203" type="curve"/>
      <point x="527" y="203" type="line" smooth="yes"/>
      <point x="553" y="203"/>
      <point x="565" y="217"/>
      <point x="565" y="245" type="curve" smooth="yes"/>
      <point x="565" y="402"/>
      <point x="478" y="495"/>
      <point x="303" y="495" type="curve" smooth="yes"/>
      <point x="129" y="495"/>
      <point x="31" y="405"/>
      <point x="31" y="233" type="curve" smooth="yes"/>
      <point x="31" y="64"/>
      <point x="159" y="-15"/>
      <point x="316" y="-15" type="curve" smooth="yes"/>
    </contour>
    <contour>
      <point x="187" y="352"/>
      <point x="226" y="395"/>
      <point x="304" y="395" type="curve" smooth="yes"/>
      <point x="382" y="395"/>
      <point x="417" y="354"/>
      <point x="417" y="289" type="curve"/>
      <point x="187" y="289" type="line"/>
    </contour>
    <contour>
      <point x="428" y="548"/>
      <point x="486" y="620"/>
      <point x="486" y="716" type="curve" smooth="yes"/>
      <point x="486" y="727"/>
      <point x="480" y="734"/>
      <point x="470" y="734" type="curve" smooth="yes"/>
      <point x="383" y="734" type="line" smooth="yes"/>
      <point x="369" y="734"/>
      <point x="366" y="727"/>
      <point x="366" y="715" type="curve" smooth="yes"/>
      <point x="366" y="678"/>
      <point x="351" y="653"/>
      <point x="309" y="653" type="curve" smooth="yes"/>
      <point x="266" y="653"/>
      <point x="252" y="678"/>
      <point x="252" y="715" type="curve" smooth="yes"/>
      <point x="252" y="727"/>
      <point x="249" y="734"/>
      <point x="235" y="734" type="curve" smooth="yes"/>
      <point x="148" y="734" type="line" smooth="yes"/>
      <point x="138" y="734"/>
      <point x="132" y="727"/>
      <point x="132" y="716" type="curve" smooth="yes"/>
      <point x="132" y="620"/>
      <point x="189" y="548"/>
      <point x="309" y="548" type="curve" smooth="yes"/>
    </contour>
  </outline>
</glyph>
<glyph name="edotaccent" format="1">
  <advance width="596"/>
  <unicode hex="0117"/>
  <note>
	edotaccent
  </note>
  <outline>
    <contour>
      <point x="401" y="-15"/>
      <point x="466" y="-1"/>
      <point x="521" y="35" type="curve" smooth="yes"/>
      <point x="533" y="43"/>
      <point x="535" y="51"/>
      <point x="528" y="63" type="curve"/>
      <point x="499" y="117" type="line" smooth="yes"/>
      <point x="493" y="128"/>
      <point x="487" y="131"/>
      <point x="472" y="123" type="curve" smooth="yes"/>
      <point x="439" y="105"/>
      <point x="400" y="90"/>
      <point x="339" y="90" type="curve" smooth="yes"/>
      <point x="245" y="90"/>
      <point x="187" y="130"/>
      <point x="187" y="203" type="curve"/>
      <point x="527" y="203" type="line" smooth="yes"/>
      <point x="553" y="203"/>
      <point x="565" y="217"/>
      <point x="565" y="245" type="curve" smooth="yes"/>
      <point x="565" y="402"/>
      <point x="478" y="495"/>
      <point x="303" y="495" type="curve" smooth="yes"/>
      <point x="129" y="495"/>
      <point x="31" y="405"/>
      <point x="31" y="233" type="curve" smooth="yes"/>
      <point x="31" y="64"/>
      <point x="159" y="-15"/>
      <point x="316" y="-15" type="curve" smooth="yes"/>
    </contour>
    <contour>
      <point x="187" y="352"/>
      <point x="226" y="395"/>
      <point x="304" y="395" type="curve" smooth="yes"/>
      <point x="382" y="395"/>
      <point x="417" y="354"/>
      <point x="417" y="289" type="curve"/>
      <point x="187" y="289" type="line"/>
    </contour>
    <contour>
      <point x="325" y="559" type="line" smooth="yes"/>
      <point x="357" y="559"/>
      <point x="379" y="585"/>
      <point x="379" y="616" type="curve" smooth="yes"/>
      <point x="379" y="638" type="line" smooth="yes"/>
      <point x="379" y="670"/>
      <point x="356" y="695"/>
      <point x="325" y="695" type="curve" smooth="yes"/>
      <point x="301" y="695" type="line" smooth="yes"/>
      <point x="269" y="695"/>
      <point x="247" y="670"/>
      <point x="247" y="638" type="curve" smooth="yes"/>
      <point x="247" y="616" type="line" smooth="yes"/>
      <point x="247" y="585"/>
      <point x="269" y="559"/>
      <point x="301" y="559" type="curve" smooth="yes"/>
    </contour>
  </outline>
</glyph>
<glyph name="Eogonek" format="1">
  <advance width="574"/>
  <unicode hex="0118"/>
  <note>
	Eogonek
  </note>
  <outline>
    <contour>
      <point x="510" y="0" type="line" smooth="yes"/>
      <point x="543" y="0"/>
      <point x="552" y="13"/>
      <point x="552" y="42" type="curve" smooth="yes"/>
      <point x="552" y="78" type="line" smooth="yes"/>
      <point x="552" y="108"/>
      <point x="543" y="121"/>
      <point x="510" y="121" type="curve" smooth="yes"/>
      <point x="216" y="121" type="line"/>
      <point x="216" y="280" type="line"/>
      <point x="422" y="280" type="line" smooth="yes"/>
      <point x="455" y="280"/>
      <point x="464" y="294"/>
      <point x="464" y="323" type="curve" smooth="yes"/>
      <point x="464" y="358" type="line" smooth="yes"/>
      <point x="464" y="387"/>
      <point x="455" y="400"/>
      <point x="422" y="400" type="curve" smooth="yes"/>
      <point x="216" y="400" type="line"/>
      <point x="216" y="558" type="line"/>
      <point x="511" y="558" type="line" smooth="yes"/>
      <point x="544" y="558"/>
      <point x="553" y="572"/>
      <point x="553" y="601" type="curve" smooth="yes"/>
      <point x="553" y="638" type="line" smooth="yes"/>
      <point x="553" y="667"/>
      <point x="544" y="680"/>
      <point x="511" y="680" type="curve" smooth="yes"/>
      <point x="96" y="680" type="line" smooth="yes"/>
      <point x="63" y="680"/>
      <point x="51" y="665"/>
      <point x="51" y="636" type="curve" smooth="yes"/>
      <point x="51" y="43" type="line" smooth="yes"/>
      <point x="51" y="14"/>
      <point x="63" y="0"/>
      <point x="96" y="0" type="curve" smooth="yes"/>
    </contour>
    <contour>
      <point x="468" y="-213"/>
      <point x="496" y="-210"/>
      <point x="518" y="-199" type="curve" smooth="yes"/>
      <point x="531" y="-193"/>
      <point x="531" y="-189"/>
      <point x="528" y="-182" type="curve" smooth="yes"/>
      <point x="510" y="-143" type="line" smooth="yes"/>
      <point x="507" y="-136"/>
      <point x="503" y="-135"/>
      <point x="496" y="-138" type="curve"/>
      <point x="490" y="-141"/>
      <point x="483" y="-142"/>
      <point x="474" y="-142" type="curve" smooth="yes"/>
      <point x="458" y="-142"/>
      <point x="450" y="-133"/>
      <point x="450" y="-115" type="curve" smooth="yes"/>
      <point x="450" y="-86"/>
      <point x="463" y="-65"/>
      <point x="510" y="-10" type="curve" smooth="yes"/>
      <point x="517" y="-2"/>
      <point x="512" y="6"/>
      <point x="500" y="6" type="curve" smooth="yes"/>
      <point x="422" y="6" type="line" smooth="yes"/>
      <point x="409" y="6"/>
      <point x="405" y="2"/>
      <point x="397" y="-7" type="curve" smooth="yes"/>
      <point x="353" y="-57"/>
      <point x="336" y="-94"/>
      <point x="336" y="-130" type="curve" smooth="yes"/>
      <point x="336" y="-175"/>
      <point x="365" y="-213"/>
      <point x="430" y="-213" type="curve" smooth="yes"/>
    </contour>
  </outline>
</glyph>
<glyph name="eogonek" format="1">
  <advance width="596"/>
  <unicode hex="0119"/>
  <note>
	eogonek
  </note>
  <outline>
    <contour>
      <point x="401" y="-15"/>
      <point x="466" y="-1"/>
      <point x="521" y="35" type="curve" smooth="yes"/>
      <point x="533" y="43"/>
      <point x="535" y="51"/>
      <point x="528" y="63" type="curve"/>
      <point x="499" y="117" type="line" smooth="yes"/>
      <point x="493" y="128"/>
      <point x="487" y="131"/>
      <point x="472" y="123" type="curve" smooth="yes"/>
      <point x="439" y="105"/>
      <point x="400" y="90"/>
      <point x="339" y="90" type="curve" smooth="yes"/>
      <point x="245" y="90"/>
      <point x="187" y="130"/>
      <point x="187" y="203" type="curve"/>
      <point x="527" y="203" type="line" smooth="yes"/>
      <point x="553" y="203"/>
      <point x="565" y="217"/>
      <point x="565" y="245" type="curve" smooth="yes"/>
      <point x="565" y="402"/>
      <point x="478" y="495"/>
      <point x="303" y="495" type="curve" smooth="yes"/>
      <point x="129" y="495"/>
      <point x="31" y="405"/>
      <point x="31" y="233" type="curve" smooth="yes"/>
      <point x="31" y="64"/>
      <point x="159" y="-15"/>
      <point x="316" y="-15" type="curve" smooth="yes"/>
    </contour>
    <contour>
      <point x="483" y="-166"/>
      <point x="511" y="-163"/>
      <point x="533" y="-152" type="curve" smooth="yes"/>
      <point x="546" y="-146"/>
      <point x="546" y="-142"/>
      <point x="543" y="-135" type="curve" smooth="yes"/>
      <point x="525" y="-96" type="line" smooth="yes"/>
      <point x="522" y="-89"/>
      <point x="518" y="-88"/>
      <point x="511" y="-91" type="curve"/>
      <point x="505" y="-94"/>
      <point x="498" y="-95"/>
      <point x="489" y="-95" type="curve" smooth="yes"/>
      <point x="473" y="-95"/>
      <point x="465" y="-86"/>
      <point x="465" y="-68" type="curve" smooth="yes"/>
      <point x="465" y="-39"/>
      <point x="478" y="-18"/>
      <point x="525" y="37" type="curve" smooth="yes"/>
      <point x="532" y="45"/>
      <point x="527" y="53"/>
      <point x="515" y="53" type="curve" smooth="yes"/>
      <point x="437" y="53" type="line" smooth="yes"/>
      <point x="424" y="53"/>
      <point x="420" y="49"/>
      <point x="412" y="40" type="curve" smooth="yes"/>
      <point x="368" y="-10"/>
      <point x="351" y="-47"/>
      <point x="351" y="-83" type="curve" smooth="yes"/>
      <point x="351" y="-128"/>
      <point x="380" y="-166"/>
      <point x="445" y="-166" type="curve" smooth="yes"/>
    </contour>
    <contour>
      <point x="187" y="352"/>
      <point x="226" y="395"/>
      <point x="304" y="395" type="curve" smooth="yes"/>
      <point x="382" y="395"/>
      <point x="417" y="354"/>
      <point x="417" y="289" type="curve"/>
      <point x="187" y="289" type="line"/>
    </contour>
  </outline>
</glyph>
<glyph name="ecaron" format="1">
  <advance width="596"/>
  <unicode hex="011B"/>
  <note>
	ecaron
  </note>
  <outline>
    <contour>
      <point x="401" y="-15"/>
      <point x="466" y="-1"/>
      <point x="521" y="35" type="curve" smooth="yes"/>
      <point x="533" y="43"/>
      <point x="535" y="51"/>
      <point x="528" y="63" type="curve"/>
      <point x="499" y="117" type="line" smooth="yes"/>
      <point x="493" y="128"/>
      <point x="487" y="131"/>
      <point x="472" y="123" type="curve" smooth="yes"/>
      <point x="439" y="105"/>
      <point x="400" y="90"/>
      <point x="339" y="90" type="curve" smooth="yes"/>
      <point x="245" y="90"/>
      <point x="187" y="130"/>
      <point x="187" y="203" type="curve"/>
      <point x="527" y="203" type="line" smooth="yes"/>
      <point x="553" y="203"/>
      <point x="565" y="217"/>
      <point x="565" y="245" type="curve" smooth="yes"/>
      <point x="565" y="402"/>
      <point x="478" y="495"/>
      <point x="303" y="495" type="curve" smooth="yes"/>
      <point x="129" y="495"/>
      <point x="31" y="405"/>
      <point x="31" y="233" type="curve" smooth="yes"/>
      <point x="31" y="64"/>
      <point x="159" y="-15"/>
      <point x="316" y="-15" type="curve" smooth="yes"/>
    </contour>
    <contour>
      <point x="187" y="352"/>
      <point x="226" y="395"/>
      <point x="304" y="395" type="curve" smooth="yes"/>
      <point x="382" y="395"/>
      <point x="417" y="354"/>
      <point x="417" y="289" type="curve"/>
      <point x="187" y="289" type="line"/>
    </contour>
    <contour>
      <point x="354" y="550" type="line" smooth="yes"/>
      <point x="383" y="550"/>
      <point x="387" y="556"/>
      <point x="400" y="574" type="curve" smooth="yes"/>
      <point x="500" y="707" type="line" smooth="yes"/>
      <point x="518" y="730"/>
      <point x="512" y="746"/>
      <point x="486" y="746" type="curve" smooth="yes"/>
      <point x="421" y="746" type="line" smooth="yes"/>
      <point x="392" y="746"/>
      <point x="385" y="741"/>
      <point x="374" y="724" type="curve" smooth="yes"/>
      <point x="315" y="635" type="line"/>
      <point x="255" y="724" type="line" smooth="yes"/>
      <point x="244" y="741"/>
      <point x="237" y="746"/>
      <point x="208" y="746" type="curve" smooth="yes"/>
      <point x="143" y="746" type="line" smooth="yes"/>
      <point x="117" y="746"/>
      <point x="111" y="730"/>
      <point x="129" y="707" type="curve" smooth="yes"/>
      <point x="229" y="574" type="line" smooth="yes"/>
      <point x="243" y="556"/>
      <point x="246" y="550"/>
      <point x="275" y="550" type="curve" smooth="yes"/>
    </contour>
  </outline>
</glyph>
<glyph name="Gcommaaccent" format="1">
  <advance width="703"/>
  <unicode hex="0122"/>
  <note>
	Gcommaaccent
  </note>
  <outline>
    <contour>
      <point x="506" y="-15"/>
      <point x="591" y="8"/>
      <point x="652" y="47" type="curve" smooth="yes"/>
      <point x="669" y="58"/>
      <point x="672" y="68"/>
      <point x="672" y="90" type="curve" smooth="yes"/>
      <point x="672" y="344" type="line" smooth="yes"/>
      <point x="672" y="378"/>
      <point x="660" y="397"/>
      <point x="621" y="397" type="curve" smooth="yes"/>
      <point x="409" y="397" type="line" smooth="yes"/>
      <point x="376" y="397"/>
      <point x="367" y="385"/>
      <point x="367" y="356" type="curve" smooth="yes"/>
      <point x="367" y="320" type="line" smooth="yes"/>
      <point x="367" y="291"/>
      <point x="376" y="278"/>
      <point x="409" y="278" type="curve" smooth="yes"/>
      <point x="518" y="278" type="line"/>
      <point x="518" y="124" type="line"/>
      <point x="492" y="112"/>
      <point x="446" y="105"/>
      <point x="405" y="105" type="curve" smooth="yes"/>
      <point x="277" y="105"/>
      <point x="195" y="176"/>
      <point x="195" y="340" type="curve" smooth="yes"/>
      <point x="195" y="503"/>
      <point x="284" y="576"/>
      <point x="417" y="576" type="curve" smooth="yes"/>
      <point x="485" y="576"/>
      <point x="534" y="559"/>
      <point x="569" y="540" type="curve" smooth="yes"/>
      <point x="584" y="532"/>
      <point x="590" y="530"/>
      <point x="599" y="545" type="curve" smooth="yes"/>
      <point x="637" y="609" type="line" smooth="yes"/>
      <point x="645" y="623"/>
      <point x="644" y="630"/>
      <point x="631" y="639" type="curve" smooth="yes"/>
      <point x="577" y="675"/>
      <point x="493" y="695"/>
      <point x="396" y="695" type="curve" smooth="yes"/>
      <point x="168" y="695"/>
      <point x="31" y="572"/>
      <point x="31" y="340" type="curve" smooth="yes"/>
      <point x="31" y="108"/>
      <point x="167" y="-15"/>
      <point x="396" y="-15" type="curve" smooth="yes"/>
    </contour>
    <contour>
      <point x="384" y="-251" type="line" smooth="yes"/>
      <point x="404" y="-251"/>
      <point x="413" y="-244"/>
      <point x="418" y="-231" type="curve"/>
      <point x="484" y="-77" type="line" smooth="yes"/>
      <point x="496" y="-48"/>
      <point x="491" y="-36"/>
      <point x="459" y="-36" type="curve" smooth="yes"/>
      <point x="393" y="-36" type="line" smooth="yes"/>
      <point x="366" y="-36"/>
      <point x="357" y="-42"/>
      <point x="350" y="-67" type="curve" smooth="yes"/>
      <point x="304" y="-222" type="line" smooth="yes"/>
      <point x="299" y="-239"/>
      <point x="303" y="-251"/>
      <point x="324" y="-251" type="curve" smooth="yes"/>
    </contour>
  </outline>
</glyph>
